<?xml version="1.0" encoding="UTF-8"?>
<svg width="191px" height="50px" viewBox="0 0 191 50" version="1.1" xmlns="http://www.w3.org/2000/svg" xmlns:xlink="http://www.w3.org/1999/xlink">
    <!-- Generator: Sketch 50.2 (55047) - http://www.bohemiancoding.com/sketch -->
    <title>slogan</title>
    <desc>Created with Sketch.</desc>
    <defs></defs>
    <g id="Page-1" stroke="none" stroke-width="1" fill="none" fill-rule="evenodd">
        <g id="slogan" transform="translate(-1.000000, -6.000000)" fill="#FFFFFF">
            <path d="M21.196578,24.288 C17.740578,24.288 14.644578,22.632 14.644578,17.592 L14.644578,7.2 L17.524578,7.2 L17.524578,17.592 C17.524578,20.664 19.012578,21.528 21.196578,21.528 C23.356578,21.528 24.868578,20.664 24.868578,17.592 L24.868578,7.2 L27.748578,7.2 L27.748578,17.592 C27.748578,22.56 24.748578,24.288 21.196578,24.288 Z M44.764578,24 L42.148578,24 L35.188578,13.392 C34.972578,13.056 34.708578,12.576 34.492578,12.144 C34.540578,12.528 34.564578,13.008 34.564578,13.392 L34.564578,24 L31.708578,24 L31.708578,7.2 L34.492578,7.2 L41.284578,17.64 C41.524578,18 41.764578,18.48 41.980578,18.912 C41.932578,18.48 41.908578,18 41.908578,17.64 L41.908578,7.2 L44.764578,7.2 L44.764578,24 Z M54.220578,24.288 C51.124578,24.288 48.796578,22.608 47.884578,19.944 L50.548578,18.96 C51.244578,20.496 52.588578,21.552 54.316578,21.552 C56.044578,21.552 57.196578,20.76 57.196578,19.224 C57.196578,17.616 55.492578,17.016 53.596578,16.368 C51.196578,15.552 48.508578,14.616 48.508578,11.424 C48.508578,8.976 50.500578,6.912 54.028578,6.912 C56.956578,6.912 58.804578,8.448 59.404578,10.512 L56.812578,11.376 C56.380578,10.392 55.420578,9.648 53.836578,9.648 C52.324578,9.648 51.436578,10.296 51.436578,11.448 C51.436578,12.672 52.900578,13.176 54.652578,13.752 C57.100578,14.616 60.124578,15.672 60.124578,19.224 C60.124578,22.464 57.532578,24.288 54.220578,24.288 Z M70.060578,9.96 L70.060578,24 L67.180578,24 L67.180578,9.96 L62.404578,9.96 L62.404578,7.2 L74.836578,7.2 L74.836578,9.96 L70.060578,9.96 Z M83.812578,24.288 C78.412578,24.288 76.444578,19.752 76.444578,15.6 C76.444578,11.448 78.412578,6.912 83.812578,6.912 C89.236578,6.912 91.180578,11.448 91.180578,15.6 C91.180578,19.752 89.236578,24.288 83.812578,24.288 Z M83.812578,21.528 C87.052578,21.528 88.204578,18.168 88.204578,15.6 C88.204578,12.84 87.076578,9.672 83.812578,9.672 C80.548578,9.672 79.420578,13.008 79.420578,15.6 C79.420578,18.336 80.548578,21.528 83.812578,21.528 Z M94.660578,24 L94.660578,7.2 L101.644578,7.2 C105.820578,7.2 107.284578,9.84 107.284578,12.408 C107.284578,14.808 105.676578,17.64 101.644578,17.64 L97.540578,17.64 L97.540578,24 L94.660578,24 Z M101.788578,14.904 C103.636578,14.904 104.308578,13.584 104.308578,12.408 C104.308578,11.352 103.756578,9.936 101.788578,9.936 L97.540578,9.936 L97.540578,14.904 L101.788578,14.904 Z M109.924578,24 L109.924578,7.2 L116.908578,7.2 C121.084578,7.2 122.548578,9.84 122.548578,12.408 C122.548578,14.808 120.940578,17.64 116.908578,17.64 L112.804578,17.64 L112.804578,24 L109.924578,24 Z M117.052578,14.904 C118.900578,14.904 119.572578,13.584 119.572578,12.408 C119.572578,11.352 119.020578,9.936 117.052578,9.936 L112.804578,9.936 L112.804578,14.904 L117.052578,14.904 Z M133.972578,24 L132.652578,20.328 L126.004578,20.328 L124.684578,24 L121.636578,24 L127.900578,7.2 L130.756578,7.2 L136.996578,24 L133.972578,24 Z M131.740578,17.736 L129.892578,12.696 C129.700578,12.216 129.460578,11.496 129.340578,10.992 C129.196578,11.496 128.956578,12.216 128.788578,12.696 L126.916578,17.736 L131.740578,17.736 Z M139.564578,7.2 L146.428578,7.2 C150.484578,7.2 151.804578,9.408 151.804578,11.688 C151.804578,13.104 151.132578,14.424 149.644578,15.144 C151.636578,15.864 152.404578,17.52 152.404578,19.032 C152.404578,21.36 150.940578,24 146.788578,24 L139.564578,24 L139.564578,7.2 Z M146.044578,13.968 C147.964578,13.968 148.900578,13.128 148.900578,11.904 C148.900578,10.92 148.492578,9.864 146.500578,9.864 L142.444578,9.864 L142.444578,13.968 L146.044578,13.968 Z M146.956578,21.336 C148.924578,21.336 149.476578,20.136 149.476578,19.104 C149.476578,17.856 148.876578,16.632 146.260578,16.632 L142.444578,16.632 L142.444578,21.336 L146.956578,21.336 Z M155.884578,24 L155.884578,7.2 L158.764578,7.2 L158.764578,21.24 L166.924578,21.24 L166.924578,24 L155.884578,24 Z M169.444578,24 L169.444578,7.2 L180.388578,7.2 L180.388578,9.912 L172.324578,9.912 L172.324578,13.968 L177.292578,13.968 L177.292578,16.68 L172.324578,16.68 L172.324578,21.288 L180.916578,21.288 L180.916578,24 L169.444578,24 Z" id="UNSTOPPABLE"></path>
            <path d="M9.098578,55.288 C3.698578,55.288 1.730578,50.752 1.730578,46.6 C1.730578,42.448 3.698578,37.912 9.098578,37.912 C14.522578,37.912 16.466578,42.448 16.466578,46.6 C16.466578,50.752 14.522578,55.288 9.098578,55.288 Z M9.098578,52.528 C12.338578,52.528 13.490578,49.168 13.490578,46.6 C13.490578,43.84 12.362578,40.672 9.098578,40.672 C5.834578,40.672 4.706578,44.008 4.706578,46.6 C4.706578,49.336 5.834578,52.528 9.098578,52.528 Z M19.946578,55 L19.946578,38.2 L27.386578,38.2 C31.562578,38.2 32.906578,40.672 32.906578,43.312 C32.906578,45.232 31.826578,47.392 29.450578,48.112 L32.810578,55 L29.570578,55 L26.330578,48.424 L22.826578,48.424 L22.826578,55 L19.946578,55 Z M22.826578,45.688 L27.434578,45.688 C29.306578,45.688 29.930578,44.536 29.930578,43.312 C29.930578,42.184 29.402578,40.936 27.434578,40.936 L22.826578,40.936 L22.826578,45.688 Z M43.034578,55.288 C37.850578,55.288 35.666578,50.992 35.666578,46.6 C35.666578,42.496 37.994578,37.912 43.034578,37.912 C46.274578,37.912 47.810578,39.544 48.914578,41.296 L46.346578,42.76 C45.602578,41.656 44.618578,40.696 43.034578,40.696 C39.650578,40.696 38.642578,43.984 38.642578,46.6 C38.642578,49.624 39.914578,52.504 43.034578,52.504 C44.906578,52.504 46.274578,51.112 46.274578,49.36 L46.274578,49.096 L43.322578,49.096 L43.322578,46.384 L49.202578,46.384 L49.202578,48.712 C49.202578,52.984 46.514578,55.288 43.034578,55.288 Z M63.458578,55 L62.138578,51.328 L55.490578,51.328 L54.170578,55 L51.122578,55 L57.386578,38.2 L60.242578,38.2 L66.482578,55 L63.458578,55 Z M61.226578,48.736 L59.378578,43.696 C59.186578,43.216 58.946578,42.496 58.826578,41.992 C58.682578,42.496 58.442578,43.216 58.274578,43.696 L56.402578,48.736 L61.226578,48.736 Z M82.106578,55 L79.490578,55 L72.530578,44.392 C72.314578,44.056 72.050578,43.576 71.834578,43.144 C71.882578,43.528 71.906578,44.008 71.906578,44.392 L71.906578,55 L69.050578,55 L69.050578,38.2 L71.834578,38.2 L78.626578,48.64 C78.866578,49 79.106578,49.48 79.322578,49.912 C79.274578,49.48 79.250578,49 79.250578,48.64 L79.250578,38.2 L82.106578,38.2 L82.106578,55 Z M86.306578,55 L86.306578,38.2 L89.186578,38.2 L89.186578,55 L86.306578,55 Z M92.546578,55 L92.546578,52.744 L101.786578,40.936 L93.098578,40.936 L93.098578,38.2 L105.602578,38.2 L105.602578,40.432 L96.314578,52.264 L105.602578,52.264 L105.602578,55 L92.546578,55 Z M120.266578,55 L118.946578,51.328 L112.298578,51.328 L110.978578,55 L107.930578,55 L114.194578,38.2 L117.050578,38.2 L123.290578,55 L120.266578,55 Z M118.034578,48.736 L116.186578,43.696 C115.994578,43.216 115.754578,42.496 115.634578,41.992 C115.490578,42.496 115.250578,43.216 115.082578,43.696 L113.210578,48.736 L118.034578,48.736 Z M130.514578,40.96 L130.514578,55 L127.634578,55 L127.634578,40.96 L122.858578,40.96 L122.858578,38.2 L135.290578,38.2 L135.290578,40.96 L130.514578,40.96 Z M138.410578,55 L138.410578,38.2 L141.290578,38.2 L141.290578,55 L138.410578,55 Z M152.258578,55.288 C146.858578,55.288 144.890578,50.752 144.890578,46.6 C144.890578,42.448 146.858578,37.912 152.258578,37.912 C157.682578,37.912 159.626578,42.448 159.626578,46.6 C159.626578,50.752 157.682578,55.288 152.258578,55.288 Z M152.258578,52.528 C155.498578,52.528 156.650578,49.168 156.650578,46.6 C156.650578,43.84 155.522578,40.672 152.258578,40.672 C148.994578,40.672 147.866578,44.008 147.866578,46.6 C147.866578,49.336 148.994578,52.528 152.258578,52.528 Z M176.162578,55 L173.546578,55 L166.586578,44.392 C166.370578,44.056 166.106578,43.576 165.890578,43.144 C165.938578,43.528 165.962578,44.008 165.962578,44.392 L165.962578,55 L163.106578,55 L163.106578,38.2 L165.890578,38.2 L172.682578,48.64 C172.922578,49 173.162578,49.48 173.378578,49.912 C173.330578,49.48 173.306578,49 173.306578,48.64 L173.306578,38.2 L176.162578,38.2 L176.162578,55 Z M185.618578,55.288 C182.522578,55.288 180.194578,53.608 179.282578,50.944 L181.946578,49.96 C182.642578,51.496 183.986578,52.552 185.714578,52.552 C187.442578,52.552 188.594578,51.76 188.594578,50.224 C188.594578,48.616 186.890578,48.016 184.994578,47.368 C182.594578,46.552 179.906578,45.616 179.906578,42.424 C179.906578,39.976 181.898578,37.912 185.426578,37.912 C188.354578,37.912 190.202578,39.448 190.802578,41.512 L188.210578,42.376 C187.778578,41.392 186.818578,40.648 185.234578,40.648 C183.722578,40.648 182.834578,41.296 182.834578,42.448 C182.834578,43.672 184.298578,44.176 186.050578,44.752 C188.498578,45.616 191.522578,46.672 191.522578,50.224 C191.522578,53.464 188.930578,55.288 185.618578,55.288 Z" id="ORGANIZATIONS"></path>
        </g>
    </g>
</svg>