<?xml version="1.0" encoding="UTF-8" standalone="no"?>
<!-- Generator: Adobe Illustrator 19.2.1, SVG Export Plug-In . SVG Version: 6.00 Build 0)  -->

<svg
   xmlns:dc="http://purl.org/dc/elements/1.1/"
   xmlns:cc="http://creativecommons.org/ns#"
   xmlns:rdf="http://www.w3.org/1999/02/22-rdf-syntax-ns#"
   xmlns:svg="http://www.w3.org/2000/svg"
   xmlns="http://www.w3.org/2000/svg"
   xmlns:sodipodi="http://sodipodi.sourceforge.net/DTD/sodipodi-0.dtd"
   xmlns:inkscape="http://www.inkscape.org/namespaces/inkscape"
   version="1.1"
   id="Capa_1"
   x="0px"
   y="0px"
   viewBox="0 0 370.1 331.3"
   style="enable-background:new 0 0 370.1 331.3;"
   xml:space="preserve"
   inkscape:version="0.91 r13725"
   sodipodi:docname="vectorial.svg"><metadata
     id="metadata4470"><rdf:RDF><cc:Work
         rdf:about=""><dc:format>image/svg+xml</dc:format><dc:type
           rdf:resource="http://purl.org/dc/dcmitype/StillImage" /><dc:title></dc:title></cc:Work></rdf:RDF></metadata><defs
     id="defs4468" /><sodipodi:namedview
     pagecolor="#ffffff"
     bordercolor="#666666"
     borderopacity="1"
     objecttolerance="10"
     gridtolerance="10"
     guidetolerance="10"
     inkscape:pageopacity="0"
     inkscape:pageshadow="2"
     inkscape:window-width="3840"
     inkscape:window-height="2043"
     id="namedview4466"
     showgrid="false"
     inkscape:zoom="5.4029582"
     inkscape:cx="136.92822"
     inkscape:cy="165.64999"
     inkscape:window-x="0"
     inkscape:window-y="64"
     inkscape:window-maximized="1"
     inkscape:current-layer="Capa_1" /><style
     type="text/css"
     id="style4410">
	.st0{fill:url(#SVGID_1_);}
	.st1{fill:url(#SVGID_2_);}
	.st2{fill:url(#SVGID_3_);}
	.st3{fill:#20201E;}
	.st4{fill:url(#SVGID_4_);}
	.st5{fill:#353534;}
	.st6{fill:#282828;}
	.st7{fill:url(#SVGID_5_);stroke:url(#SVGID_6_);stroke-width:8;stroke-miterlimit:10;}
</style><g
     id="g4412"
     transform="matrix(0.79251588,0,0,0.86802958,38.626482,22.226424)"><linearGradient
       id="SVGID_1_"
       gradientUnits="userSpaceOnUse"
       x1="1981.9636"
       y1="2444.4961"
       x2="2163.2969"
       y2="2444.4961"
       gradientTransform="matrix(-0.2964,0.9551,-0.9551,-0.2964,3154.6836,-1144.0933)"><stop
         offset="3.919654e-02"
         style="stop-color:#2CF4E1"
         id="stop4415" /><stop
         offset="1"
         style="stop-color:#2CB2E1"
         id="stop4417" /></linearGradient><circle
       class="st0"
       cx="197"
       cy="139.10001"
       r="90.699997"
       id="circle4419"
       style="fill:url(#SVGID_1_)" /><linearGradient
       id="SVGID_2_"
       gradientUnits="userSpaceOnUse"
       x1="244.60159"
       y1="113.1318"
       x2="324.33621"
       y2="222.1181"><stop
         offset="3.919654e-02"
         style="stop-color:#2CF4E1"
         id="stop4422" /><stop
         offset="1"
         style="stop-color:#2CB2E1"
         id="stop4424" /></linearGradient><path
       class="st1"
       d="m 260.7,111.9 c 6.5,8.8 9.9,19.2 9.9,30 0,13.1 -5.4,25.2 -14.6,35 l 5.6,20.9 17,0 17.9,-20.3 4.8,-29.7 1,-17.7 -17.7,-20 -23.9,1.8 z"
       id="path4426"
       style="fill:url(#SVGID_2_)"
       inkscape:connector-curvature="0" /><g
       id="g4428"><linearGradient
         id="SVGID_3_"
         gradientUnits="userSpaceOnUse"
         x1="111.4558"
         y1="126.7419"
         x2="224.12241"
         y2="280.74191"><stop
           offset="0"
           style="stop-color:#2CE5E1"
           id="stop4431" /><stop
           offset="1"
           style="stop-color:#2CB2E1"
           id="stop4433" /></linearGradient><path
         class="st2"
         d="m 63.7,200.2 3.1,12.3 c 0,0 36.6,75.1 119,103 0,0 77.2,-32 110.5,-86.3 l -48.2,-40.1 c 0,0 -22,17.5 -54.7,17.5 -32.7,0 -77.1,-19.5 -77.1,-59.7 0,-40.2 46,-54.9 46,-54.9 l -19.6,-4.8 -50.1,0 -31.8,76.6 2.9,36.4 z"
         id="path4435"
         style="fill:url(#SVGID_3_)"
         inkscape:connector-curvature="0" /></g><path
       class="st3"
       d="M 305.4,228.1"
       id="path4437"
       inkscape:connector-curvature="0"
       style="fill:#20201e" /><linearGradient
       id="SVGID_4_"
       gradientUnits="userSpaceOnUse"
       x1="186.4738"
       y1="233.7267"
       x2="186.4738"
       y2="36.5"><stop
         offset="0"
         style="stop-color:#000000"
         id="stop4440" /><stop
         offset="1"
         style="stop-color:#0D0D0D"
         id="stop4442" /></linearGradient><path
       class="st4"
       d="m 340.6,119.5 c -1.4,-1.4 -42,-44.4 -153.3,-82.7 l -0.7,-0.3 c -107.8,37 -154.2,83 -154.2,83 4.2,24.5 14.8,51.8 24.4,73 0.8,1.8 13.6,24.4 23.1,36.7 -5.6,-12.3 -11.7,-23 -11.7,-41.4 0,-51.9 40.2,-94.1 90.5,-95.9 1.2,0 2.5,0 3.7,0.1 l -12,-12 c 0,0 48.3,-8.1 110.3,29.4 0,0 0.9,1.9 0,7.5 0,0 29.2,12.6 31.7,37.1 2.5,24.5 -13,38.5 -25.5,40.5 0,0 6.5,-10.1 -3.5,-15.5 -2.1,-1.2 -4.6,-1.7 -7.1,-1.6 l 0,0 c -19.1,0 -21.3,21.8 -21.3,21.8 -0.2,1.1 -0.2,2.2 -0.2,3.3 0,0 -3.2,31.9 53.6,31.3 0,0 28.8,-32.6 36.4,-61.9 2.8,-10.8 4.8,-18.9 6.1,-24.9 3.2,-8.5 6.3,-17.3 9.3,-26.4 l 0.4,-1.1 z"
       id="path4444"
       style="fill:url(#SVGID_4_)"
       inkscape:connector-curvature="0" /><path
       class="st5"
       d="M 236.6,116"
       id="path4446"
       inkscape:connector-curvature="0"
       style="fill:#353534" /><path
       class="st6"
       d="m 236,119.1 c 0.8,-0.4 3.4,-1.7 6.4,-4.8 6,0.8 11.9,2.7 11.9,2.7 -10.9,-6.6 -25.8,-10.5 -42.3,-10.4 0,0 6.3,9 23.8,12.7 0,0 0.1,-0.1 0.2,-0.2 z"
       id="path4448"
       inkscape:connector-curvature="0"
       style="fill:#282828" /><g
       id="g4450"><path
         class="st6"
         d="m 186.1,41.3 c 10.6,3.3 87.6,28.9 149.2,79.8 l 6.9,-2 -0.5,-0.4 C 281.5,67.7 205.4,41.2 189.6,36.1 l -1.5,-0.5 -2,-0.6 -3.5,1.1 C 166.8,41.2 90.7,67.7 30.5,118.7 l -0.7,0.6 6.7,2.2 C 98.1,70.3 175.5,44.6 186.1,41.3 Z"
         id="path4452"
         inkscape:connector-curvature="0"
         style="fill:#282828" /></g><linearGradient
       id="SVGID_5_"
       gradientUnits="userSpaceOnUse"
       x1="186.05701"
       y1="248.7955"
       x2="186.05701"
       y2="-16.972799"><stop
         offset="3.919654e-02"
         style="stop-color:#2CF4E1"
         id="stop4455" /><stop
         offset="1"
         style="stop-color:#2CB2E1"
         id="stop4457" /></linearGradient><linearGradient
       id="SVGID_6_"
       gradientUnits="userSpaceOnUse"
       x1="24.841499"
       y1="168.8616"
       x2="347.27261"
       y2="168.8616"><stop
         offset="3.919654e-02"
         style="stop-color:#2CF4E1"
         id="stop4460" /><stop
         offset="1"
         style="stop-color:#2CB2E1"
         id="stop4462" /></linearGradient><path
       class="st7"
       d="M 341.7,109.2 C 281.5,58.2 205.4,31.7 189.6,26.6 l -1.5,-0.5 -2,-0.6 -3.5,1.1 C 166.8,31.7 90.7,58.2 30.5,109.2 l -1.3,1.1 0.3,1.7 c 0.1,0.4 6.6,39.1 28.8,82.8 13.1,25.7 29,48 47.2,66.5 22.3,22.6 48.3,39.3 77.2,49.7 l 1.7,0.6 1.7,0.6 1.8,-0.7 1.7,-0.6 c 28.9,-10.4 54.8,-27.1 77.2,-49.7 18.2,-18.4 34.1,-40.8 47.2,-66.5 22.2,-43.6 28.8,-82.4 28.8,-82.8 l 0.3,-1.7 -1.4,-1 z M 308.5,192 c -12.8,25.1 -28.3,47 -46.1,65 -22.1,22.3 -47.7,38.7 -76.3,48.8 C 157.5,295.7 131.9,279.4 109.8,257.1 92,239.1 76.5,217.3 63.7,192.2 44.4,154.4 37.2,120.5 35.7,112.7 97.4,61 175.4,35.2 186.1,31.8 c 10.6,3.4 88.7,29.2 150.4,80.9 -1.5,7.7 -8.8,41.6 -28,79.3 z"
       id="path4464"
       style="fill:url(#SVGID_5_);stroke:url(#SVGID_6_);stroke-width:8;stroke-miterlimit:10"
       inkscape:connector-curvature="0" /></g></svg>