<svg fill="none" height="496" viewBox="0 0 410 496" width="410" xmlns="http://www.w3.org/2000/svg" xmlns:xlink="http://www.w3.org/1999/xlink"><linearGradient id="a"><stop offset="0" stop-color="#01e8f7"/><stop offset="1" stop-color="#00c2ff"/></linearGradient><linearGradient id="b" gradientUnits="userSpaceOnUse" x1="294.314" x2="299.748" xlink:href="#a" y1="119.274" y2="189.165"/><linearGradient id="c"><stop offset="0" stop-color="#01e8f7"/><stop offset="1" stop-color="#00b3ec"/></linearGradient><linearGradient id="d" gradientUnits="userSpaceOnUse" x1="172.923" x2="246.528" xlink:href="#c" y1="70.5187" y2="186.926"/><linearGradient id="e" gradientUnits="userSpaceOnUse" x1="200.133" x2="206.717" xlink:href="#a" y1="128.384" y2="316.572"/><linearGradient id="f" gradientUnits="userSpaceOnUse" x1="-25.5584" x2="99.5968" xlink:href="#c" y1="278.432" y2="522.657"/><linearGradient id="g" gradientUnits="userSpaceOnUse" x1="-27.0977" x2="31.1515" xlink:href="#c" y1="374.614" y2="553.012"/><linearGradient id="h" gradientUnits="userSpaceOnUse" x1="131.271" x2="133.162" xlink:href="#a" y1="405.044" y2="445.6"/><rect fill="#fff" height="496" rx="32" width="410"/><path d="m314.098 140.262c.986-20.555-13.32-34.191-29.464-43.5526l-10.494 61.8686c7.265-.407 10.817 2.361 12.108 3.663 1.615 1.628 5.651 6.513.807 14.246 10.091-1.628 25.851-11.397 27.043-36.225z" fill="url(#b)"/><path clip-rule="evenodd" d="m176.44 68.2307-12.512-12.618c18.835-2.3065 68.534.6513 116.645 30.9343.807 3.2562 0 8.1406 0 8.1406l4.036 2.0351c3.498 5.0203 9.445 19.2933 5.247 36.2253-4.197 16.933-11.435 24.151-14.53 25.643-6.458 0-17.436 3.745-20.988 20.352s-10.359 20.216-13.319 19.944l-71.037.814-46.819-27.678-6.862-57.391 13.32-17.9093 23.813-19.5374 16.952-6.9195zm83.898 23.7076c-3.133 3.2743-6.062 4.8453-6.898 5.2713-18.291-3.9046-24.881-13.4009-24.881-13.4009 17.253-.1068 32.826 4.0114 44.219 10.9779 0 0-6.168-2.0057-12.44-2.8483z" fill="url(#d)" fill-rule="evenodd"/><path clip-rule="evenodd" d="m253.713 178.948c-12.539 6.175-27.405 9.75-43.345 9.75-44.805 0-81.127-28.246-81.127-63.089 0-25.7389 19.82-47.8776 48.238-57.6901-54.047 3.1248-97.479 46.6971-97.479 100.4601 0 62.049 55.115 113.319 123.103 113.319 50.768 0 93.028-29.539 115.124-69.06-30.404 6.862-66.395-6.184-64.514-33.69z" fill="url(#e)" fill-rule="evenodd"/><g fill="url(#f)"><path d="m75.6639 322c1.046 0 2.0187.074 2.918.221 2.0922.331 3.8724 1.067 5.3406 2.208 1.4682 1.123 2.5785 2.558 3.331 4.306.7524 1.73 1.1286 3.663 1.1286 5.797 0 2.135-.3762 4.077-1.1286 5.825-.7525 1.73-1.872 3.165-3.3586 4.306-1.4682 1.123-3.2392 1.85-5.313 2.181-.8993.147-1.872.221-2.918.221h-10.7638v14.685h-4.9001v-39.75zm-.1652 20.399c.936 0 1.7618-.082 2.4776-.248 1.7802-.405 3.1199-1.325 4.0192-2.76.9176-1.436 1.3764-3.055 1.3764-4.859 0-1.803-.4588-3.423-1.3764-4.858-.8993-1.435-2.239-2.356-4.0192-2.76-.7158-.166-1.5416-.249-2.4776-.249h-10.5986v15.734z"/><path d="m106.268 362.578c-2.918 0-5.46-.662-7.6258-1.987-2.1473-1.344-3.799-3.202-4.9552-5.576-1.1562-2.393-1.7343-5.126-1.7343-8.199 0-3.092.5873-5.824 1.7618-8.198 1.1746-2.374 2.8447-4.215 5.0103-5.521 2.1652-1.325 4.6802-1.988 7.5432-1.988 2.918 0 5.46.663 7.625 1.988 2.166 1.325 3.827 3.174 4.983 5.548s1.734 5.098 1.734 8.171c0 3.11-.587 5.861-1.762 8.254-1.156 2.374-2.817 4.223-4.982 5.548-2.166 1.307-4.699 1.96-7.598 1.96zm0-4.665c2.991 0 5.258-.994 6.799-2.981 1.56-2.006 2.34-4.711 2.34-8.116 0-3.441-.78-6.137-2.34-8.088-1.56-1.969-3.826-2.954-6.799-2.954-3.01 0-5.286.994-6.8275 2.982-1.5232 1.987-2.2849 4.674-2.2849 8.06 0 3.441.78 6.156 2.34 8.143 1.5784 1.969 3.8354 2.954 6.7724 2.954z"/><path d="m122.843 331.91 4.873.028 6.634 21.807 6.689-21.807h4.322l6.662 21.807 6.662-21.807h4.845l-9.084 29.812h-4.074l-7.185-22.663-7.185 22.663h-4.075z"/><path d="m171.033 348.224c.202 3.11 1.073 5.502 2.615 7.177 1.56 1.675 3.707 2.512 6.442 2.512 1.945 0 3.643-.451 5.093-1.353 1.468-.901 2.615-2.199 3.441-3.892l4.707 1.629c-1.156 2.613-2.89 4.647-5.203 6.1-2.312 1.454-4.918 2.181-7.818 2.181s-5.451-.644-7.653-1.932c-2.184-1.288-3.881-3.11-5.093-5.466-1.193-2.355-1.789-5.07-1.789-8.143 0-3.221.587-6.027 1.762-8.419 1.193-2.411 2.863-4.261 5.01-5.549 2.166-1.306 4.68-1.96 7.543-1.96 2.844 0 5.295.644 7.35 1.933 2.074 1.269 3.661 3.101 4.762 5.493 1.102 2.374 1.652 5.199 1.652 8.474 0 .534-.009.939-.027 1.215zm9.222-12.698c-2.661 0-4.762.745-6.304 2.236s-2.487 3.662-2.836 6.515h17.619c-.606-5.834-3.432-8.751-8.479-8.751z"/><path d="m206.865 333.759c.826-.662 1.799-1.168 2.918-1.518 1.12-.35 2.249-.524 3.386-.524.716 0 1.423.073 2.12.221v4.609c-.771-.184-1.514-.276-2.23-.276-1.78 0-3.303.47-4.569 1.408-1.34.957-2.276 2.218-2.808 3.782-.533 1.546-.799 3.322-.799 5.328v14.961h-4.927v-29.812h4.377v4.72c.697-1.215 1.541-2.181 2.532-2.899z"/><path d="m223.563 348.224c.202 3.11 1.074 5.502 2.616 7.177 1.559 1.675 3.707 2.512 6.441 2.512 1.946 0 3.643-.451 5.093-1.353 1.468-.901 2.615-2.199 3.441-3.892l4.708 1.629c-1.157 2.613-2.891 4.647-5.203 6.1-2.313 1.454-4.919 2.181-7.819 2.181-2.899 0-5.45-.644-7.653-1.932-2.183-1.288-3.881-3.11-5.092-5.466-1.193-2.355-1.79-5.07-1.79-8.143 0-3.221.588-6.027 1.762-8.419 1.193-2.411 2.863-4.261 5.01-5.549 2.166-1.306 4.68-1.96 7.543-1.96 2.845 0 5.295.644 7.35 1.933 2.074 1.269 3.662 3.101 4.763 5.493 1.101 2.374 1.652 5.199 1.652 8.474 0 .534-.01.939-.028 1.215zm9.222-12.698c-2.661 0-4.762.745-6.304 2.236-1.541 1.491-2.486 3.662-2.835 6.515h17.618c-.605-5.834-3.432-8.751-8.479-8.751z"/><path d="m277.84 322v39.75h-4.377v-3.368c-1.119 1.344-2.459 2.383-4.019 3.12-1.56.717-3.322 1.076-5.286 1.076-2.716 0-5.083-.681-7.102-2.043-2.001-1.38-3.542-3.257-4.625-5.631-1.064-2.392-1.597-5.088-1.597-8.088 0-2.981.533-5.659 1.597-8.033 1.083-2.392 2.624-4.269 4.625-5.631 2.019-1.362 4.377-2.043 7.075-2.043 1.817 0 3.459.304 4.927.911 1.487.608 2.772 1.482 3.854 2.623v-12.643zm-13.076 36.079c2.881 0 5.047-1.022 6.497-3.064 1.468-2.043 2.202-4.776 2.202-8.199s-.725-6.146-2.175-8.171c-1.45-2.024-3.578-3.036-6.386-3.036-1.946 0-3.588.488-4.928 1.463-1.321.975-2.312 2.309-2.973 4.002-.643 1.675-.964 3.589-.964 5.742 0 2.172.321 4.104.964 5.797.661 1.693 1.642 3.027 2.945 4.003 1.322.975 2.928 1.463 4.818 1.463z"/><path d="m310.257 331.109c2.698 0 5.047.681 7.047 2.043 2.019 1.362 3.561 3.239 4.625 5.631 1.083 2.374 1.624 5.052 1.624 8.033 0 3-.541 5.696-1.624 8.088-1.064 2.374-2.606 4.251-4.625 5.631-2 1.362-4.358 2.043-7.075 2.043-1.963 0-3.725-.359-5.285-1.076-1.56-.737-2.9-1.776-4.019-3.12v3.368h-4.377v-39.75h4.927v12.643c1.083-1.141 2.359-2.015 3.827-2.623 1.486-.607 3.138-.911 4.955-.911zm-.633 26.97c1.89 0 3.487-.488 4.79-1.463 1.321-.976 2.303-2.31 2.945-4.003.661-1.693.991-3.625.991-5.797 0-2.153-.33-4.067-.991-5.742-.642-1.693-1.633-3.027-2.973-4.002-1.321-.975-2.955-1.463-4.9-1.463-2.808 0-4.937 1.012-6.387 3.036-1.449 2.025-2.174 4.748-2.174 8.171s.725 6.156 2.174 8.199c1.469 2.042 3.643 3.064 6.525 3.064z"/><path d="m348.017 331.938h4.983l-16.187 43.062h-4.762l4.9-13.36-12.058-29.702h5.148l9.277 23.463z"/></g><path d="m231.611 392c7.828 0 12.744 2.204 17.402 6.158l-5.046 6.027c-3.493-2.981-6.986-4.796-12.679-4.796-8.281 0-14.685 7.259-14.685 15.944l.004.539c.177 9.124 6.277 15.793 15.392 15.793 4.335 0 8.151-1.361 10.933-3.435v-8.425l7.699-7v19.055c-4.529 3.824-10.869 7.064-18.89 7.064-14.168 0-23.483-10.111-23.483-23.332l.003-.543c.207-12.522 9.785-23.049 23.35-23.049zm51.233 0c13.909 0 23.613 10.565 23.613 23.333l-.004.538c-.208 12.524-9.979 23.053-23.738 23.053-13.909 0-23.613-10.564-23.613-23.332l.004-.539c.208-12.524 9.979-23.053 23.738-23.053zm-200.5442.454 19.9252 45.692h-8.1002l-15.6418-36.165-15.5276 36.165h-7.9554l19.925-45.692zm102.6272 0 19.925 45.692h-8.1l-15.642-36.165-15.527 36.165h-7.956l19.925-45.692zm137.49.324 24.26 31.369v-31.369h7.827v45.368h-6.663l-24.971-32.276v32.276h-7.827v-45.368zm-39.702 6.611c-8.992 0-15.267 7.129-15.267 15.944l.004.517c.183 8.639 6.469 15.686 15.392 15.686 8.992 0 15.267-7.13 15.267-15.944l-.004-.518c-.183-8.638-6.469-15.685-15.392-15.685z" fill="url(#g)"/><path d="m132.046 392c5.704 0 10.176 1.713 13.093 4.612 2.398 2.569 3.759 5.929 3.759 9.947l-.001.378c-.094 7.266-4.346 11.698-10.351 13.597l-.408.124 12.251 17.458h-9.463l-11.149-16.075-5.852-.001 4.107-7.181 3.43.001c5.575 0 9.168-2.831 9.328-7.387l.006-.321-.001-.307c-.08-4.893-3.504-7.466-9.397-7.466h-11.603l-.001 14.255-.006-.001v10.285l.006-.004.001 14.202h-7.972v-46.116z" fill="url(#h)"/></svg>