<svg width="32" height="32" xmlns="http://www.w3.org/2000/svg"><path d="M9.875 18c.88 0 1.642.322 2.285.965.643.643.965 1.405.965 2.285 0 .88-.322 1.642-.965 2.285-.643.643-1.405.965-2.285.965-.88 0-1.642-.322-2.285-.965-.643-.643-.965-1.405-.965-2.285 0-.88.322-1.642.965-2.285.643-.643 1.405-.965 2.285-.965zm12.95-.813H9.874c-1.117 0-2.074.398-2.87 1.194-.795.795-1.192 1.752-1.192 2.869 0 1.117.397 2.074 1.193 2.87.795.795 1.752 1.192 2.869 1.192h13c1.117 0 2.074-.397 2.87-1.193.795-.795 1.192-1.752 1.192-2.869 0-1.117-.406-2.074-1.218-2.87-.813-.795-1.778-1.192-2.895-1.192zm.05-.812c1.354 0 2.505.474 3.453 1.422s1.422 2.099 1.422 3.453c0 1.354-.474 2.505-1.422 3.453s-2.099 1.422-3.453 1.422h-13c-1.354 0-2.505-.474-3.453-1.422S5 22.604 5 21.25c0-1.354.474-2.505 1.422-3.453s2.099-1.422 3.453-1.422h13zm0-9.75c.88 0 1.642.322 2.285.965.643.643.965 1.405.965 2.285 0 .88-.322 1.642-.965 2.285-.643.643-1.405.965-2.285.965-.88 0-1.642-.322-2.285-.965-.643-.643-.965-1.405-.965-2.285 0-.88.322-1.642.965-2.285.643-.643 1.405-.965 2.285-.965zm-12.95-.813c-1.116 0-2.081.398-2.894 1.194-.812.795-1.218 1.752-1.218 2.869 0 1.117.397 2.074 1.193 2.87.795.795 1.752 1.193 2.869 1.193h13c1.117 0 2.074-.398 2.87-1.194.795-.795 1.192-1.752 1.192-2.869 0-1.117-.397-2.074-1.193-2.87-.795-.795-1.752-1.192-2.869-1.192H9.925zM9.876 5h13c1.354 0 2.505.474 3.453 1.422S27.75 8.52 27.75 9.875c0 1.354-.474 2.505-1.422 3.453s-2.099 1.422-3.453 1.422h-13c-1.354 0-2.505-.474-3.453-1.422S5 11.23 5 9.875c0-1.354.474-2.505 1.422-3.453S8.52 5 9.875 5z" fill="#A781FF" fill-rule="evenodd"/></svg>