<svg width="32" height="32" xmlns="http://www.w3.org/2000/svg"><path d="M5 24.5v-1.625h13.813V24.5H5zm18.688 0v-1.625h4.062V24.5h-4.063zm-.813 1.625c0 .474-.152.863-.457 1.168-.305.305-.694.457-1.168.457s-.863-.152-1.168-.457c-.305-.305-.457-.694-.457-1.168V21.25c0-.474.152-.863.457-1.168.305-.305.694-.457 1.168-.457s.863.152 1.168.457c.305.305.457.694.457 1.168v4.875zM5 17.187v-1.625h4.063v1.626H5zm8.938 0v-1.625H27.75v1.626H13.937zm-.813 1.625c0 .474-.152.864-.457 1.168-.305.305-.694.457-1.168.457s-.863-.152-1.168-.457c-.305-.304-.457-.694-.457-1.168v-4.875c0-.473.152-.863.457-1.167.305-.305.694-.457 1.168-.457s.863.152 1.168.457c.305.304.457.694.457 1.168v4.874zM5 9.876V8.25h13.813v1.625H5zm18.688 0V8.25h4.062v1.625h-4.063zm-.813 1.625c0 .474-.152.863-.457 1.168-.305.305-.694.457-1.168.457s-.863-.152-1.168-.457c-.305-.305-.457-.694-.457-1.168V6.625c0-.474.152-.863.457-1.168.305-.305.694-.457 1.168-.457s.863.152 1.168.457c.305.305.457.694.457 1.168V11.5z" fill="#A781FF" fill-rule="evenodd"/></svg>