<?xml version="1.0" encoding="UTF-8"?>
<svg width="213px" height="196px" viewBox="0 0 213 196" version="1.1" xmlns="https://www.w3.org/2000/svg" xmlns:xlink="https://www.w3.org/1999/xlink">
    <!-- Generator: Sketch 46.2 (44496) - http://www.bohemiancoding.com/sketch -->
    <title>Group</title>
    <desc>Created with Sketch.</desc>
    <defs>
        <filter x="-3.4%" y="-2.7%" width="106.8%" height="107.4%" filterUnits="objectBoundingBox" id="filter-1">
            <feOffset dx="0" dy="2" in="SourceAlpha" result="shadowOffsetOuter1"></feOffset>
            <feGaussianBlur stdDeviation="2" in="shadowOffsetOuter1" result="shadowBlurOuter1"></feGaussianBlur>
            <feColorMatrix values="0 0 0 0 0   0 0 0 0 0   0 0 0 0 0  0 0 0 0.5 0" type="matrix" in="shadowBlurOuter1" result="shadowMatrixOuter1"></feColorMatrix>
            <feMerge>
                <feMergeNode in="shadowMatrixOuter1"></feMergeNode>
                <feMergeNode in="SourceGraphic"></feMergeNode>
            </feMerge>
        </filter>
        <polygon id="path-2" points="204.738351 0.295333333 0 0.295333333 0 187.999867 204.738351 187.999867 204.738351 0.295333333"></polygon>
    </defs>
    <g id="T-shirt-design" stroke="none" stroke-width="1" fill="none" fill-rule="evenodd">
        <g id="Artboard" transform="translate(-788.000000, -142.000000)">
            <g id="Group" transform="translate(792.000000, 144.000000)">
                <g id="Page-1" filter="url(#filter-1)">
                    <path d="M147.952177,100 L147,99.1002285 C153.252484,92.3559919 156.696229,84.2172107 156.696229,76.1837291 C156.696229,71.0230364 155.557561,66.1131053 153.311306,61.5899477 L154.476043,61 C156.814541,65.7077694 158,70.8164872 158,76.1837291 C158,84.5526844 154.431592,93.0110769 147.952177,100" id="Fill-1" fill="#FFFFFF"></path>
                    <path d="M106.370244,119 C94.8825491,119 82.501896,115.409336 73.2510625,109.394973 C65.3811875,104.278607 56,95.0138346 56,79.9307345 C56,53.8617858 85.8378337,44.095377 86.1395668,44 L86.5309597,45.2267003 C86.2384903,45.3194371 57.290637,54.8096156 57.290637,79.9307345 C57.290637,94.4369522 66.3528873,103.37368 73.9554374,108.316454 C83.0051154,114.200127 95.1230754,117.712575 106.370244,117.712575 C117.996564,117.712575 127.501489,114.228839 133.427633,111.306474 L134,112.460569 C127.950118,115.443658 118.246023,119 106.370244,119" id="Fill-3" fill="#FFFFFF"></path>
                    <path d="M165.758378,138 C152.825613,137.599098 143.627761,134.373829 138.420713,128.413802 C133.61065,122.908175 134.117445,117.153113 134.141737,116.911034 C134.138409,116.250666 134.194313,115.493333 134.303126,114.723963 C134.302461,114.723963 134.369013,114.058246 134.592961,113.019379 C135.439506,109.097965 138.511557,99.9768672 148.737309,99.9768672 C150.518913,99.944434 152.239621,100.346673 153.666834,101.130421 C155.680039,102.235826 156.93954,103.735111 157.409732,105.585813 C157.930836,107.639472 157.350833,109.643312 156.821743,110.889819 C164.212702,108.938808 173.034535,100.283144 171.530121,85.466166 C170.715855,77.4464608 165.291181,71.4466446 160.884092,67.8258238 C156.063047,63.8639523 151.367454,61.7999273 151.320535,61.7795311 L150.921887,61.6059965 L150.92954,61.1689836 C150.975128,58.6375186 150.956161,57.2519168 150.941519,56.6654435 C130.404163,44.2475226 112.289308,39.7693941 100.688254,38.2018986 C91.0072321,36.8942035 84.1353803,37.3399099 81.417054,37.6251218 L89.424287,45.6709074 L87.7890984,45.6214216 C86.9811542,45.5970131 86.1851894,45.5836386 85.3972108,45.5749451 C69.7863841,46.126979 55.1658547,52.8078934 44.2582749,64.3862279 C33.3210794,75.9959925 27.2977687,91.2937851 27.2977687,107.460588 C27.2977687,111.066697 27.6551543,114.398962 28.3912221,117.647302 L27.1253984,117.936526 C26.3680339,114.592224 26,111.165334 26,107.460588 C26,90.958753 32.1494272,75.3426465 43.3155624,63.4894653 C54.4587371,51.661027 69.397719,44.8356677 85.381571,44.270928 C85.6584284,44.2739373 85.9329564,44.2772809 86.2058206,44.2816276 L78.6724395,36.7116411 L79.913306,36.5016609 C80.2370827,36.446491 87.9867586,35.177582 100.797067,36.9008908 C112.591455,38.4871106 131.033747,43.0421427 151.914513,55.7322353 L152.209007,55.9111197 L152.226643,56.2565171 C152.229305,56.3076747 152.286873,57.4970052 152.234297,60.7627321 C155.07874,62.0861423 171.291199,70.2660076 172.821567,85.3337581 C173.769271,94.6638334 170.760777,100.906063 168.070403,104.499132 C164.888207,108.749559 160.275139,111.723386 155.729621,112.45397 L154.303073,112.683678 L155.080736,111.458571 C155.098373,111.430484 156.847698,108.630525 156.149898,105.900449 C155.770883,104.418216 154.726346,103.198124 153.044238,102.274612 C151.813021,101.599198 150.331901,101.259485 148.747958,101.282222 L148.746294,101.282222 C139.455601,101.282222 136.641106,109.683436 135.86178,113.295897 C135.655135,114.254183 135.592243,114.874092 135.591578,114.880445 C135.485759,115.627079 135.436511,116.302827 135.436511,116.975566 C135.428192,117.092593 134.971976,122.510617 139.419663,127.580569 C144.385791,133.240672 153.260532,136.307787 165.798975,136.696317 L165.758378,138 Z" id="Fill-5" fill="#FFFFFF"></path>
                    <g id="Group-9">
                        <mask id="mask-3" fill="white">
                            <use xlink:href="#path-2"></use>
                        </mask>
                        <g id="Clip-8"></g>
                        <path d="M5.6198906,57.8882 C6.61664911,62.9658667 11.4017545,84.9498667 23.6489263,109.032533 C31.9133833,125.282533 41.9291451,139.421867 53.4177836,151.0582 C67.5780673,165.400533 84.0465113,175.9722 102.369259,182.481533 C120.711609,175.965533 137.196665,165.377533 151.369575,151.008867 C162.862865,139.3562 172.880288,125.197867 181.143416,108.927533 C193.364672,84.8592 198.126852,62.9515333 199.119955,57.8885333 C159.431357,24.6835333 108.959161,7.84786667 102.369259,5.74053333 C95.7786912,7.84853333 45.3015113,24.6885333 5.6198906,57.8882 L5.6198906,57.8882 Z M102.369259,183.8602 L102.153959,183.7842 C83.5587642,177.2152 66.8520948,166.512533 52.497111,151.9732 C40.9144449,140.241533 30.8199392,125.9932 22.4946799,109.623533 C9.83617909,84.7322 5.09592788,62.0518667 4.27393436,57.7582 L4.2025,57.3825333 L4.4948825,57.1372 C44.8333671,23.2598667 96.4239263,6.26486667 102.173562,4.43853333 L102.369259,4.37653333 L102.564623,4.43853333 C108.313594,6.2642 159.898837,23.2545333 200.244299,57.1375333 L200.536682,57.3828667 L200.465247,57.7582 C199.647573,62.0362 194.931244,84.6378667 182.297662,109.517867 C173.973732,125.9082 163.877897,140.1752 152.290912,151.923533 C137.92297,166.489533 121.20002,177.208533 102.584226,183.7842 L102.369259,183.8602 Z M1.3972893,56.3562 L1.51623582,57.0832 C1.55677066,57.3328667 5.78236224,82.4405333 20.1313655,110.6982 C28.5752391,127.3262 38.8278971,141.811867 50.6055956,153.752867 C65.0120786,168.358533 81.7582861,179.177533 100.379064,185.9102 L102.36361,186.616533 L103.283618,186.272533 L104.377062,185.903867 C122.983221,179.175533 139.727767,168.356867 154.132921,153.752533 C165.91062,141.811867 176.163278,127.3262 184.607152,110.6982 C198.955823,82.4405333 203.181746,57.3328667 203.222946,57.0828667 L203.341228,56.3562 L202.780717,55.8802 C163.721074,22.7142 114.00575,5.4372 104.436536,2.31053333 L102.369923,1.65753333 L100.295669,2.31253333 C90.7321029,5.43786667 41.013124,22.7182 1.95779984,55.8802 L1.3972893,56.3562 Z M102.374907,187.999867 L99.9418193,187.1342 C81.1363088,180.334867 64.2279619,169.411533 49.6842585,154.667533 C37.8128647,142.630867 27.4811305,128.0362 18.9771191,111.288533 C4.53707861,82.8528667 0.278594003,57.5458667 0.237394652,57.2935333 L-0.000166126418,55.8395333 L1.12019044,54.8878667 C40.3605794,21.5685333 90.2898744,4.21486667 99.9006199,1.07453333 L102.367265,0.2952 L104.83391,1.0732 C114.447314,4.2142 164.373618,21.5648667 203.618327,54.8878667 L204.738351,55.8395333 L204.501787,57.2932 C204.459923,57.5458667 200.201438,82.8528667 185.761398,111.288533 C177.257387,128.0362 166.925652,142.630867 155.054259,154.6672 C140.512549,169.4102 123.605199,180.332533 104.803011,187.131533 L103.716544,187.497867 L102.374907,187.999867 Z" id="Fill-7" fill="#FFFFFF" mask="url(#mask-3)"></path>
                    </g>
                    <path d="M117.73642,52.3688027 C119.487076,54.1814378 123.847746,57.8182135 131.939433,59.6022593 C132.429427,59.3770309 134.067949,58.5235339 135.921564,56.4818353 L136.152629,56.2269716 L136.489712,56.270553 C136.961356,56.3322641 137.422807,56.4047835 137.869985,56.4846245 C131.919385,53.8725333 125.175689,52.4922251 117.73642,52.3688027 M136.654176,57.6651558 C134.797842,59.6371243 133.170194,60.5244404 132.499086,60.8354369 C132.310836,60.9497943 132.145693,60.9797783 132.079771,60.9874486 L131.973753,61 L131.868755,60.9773377 C120.18129,58.463566 115.898435,52.3297539 115.721738,52.0696604 L115,51.008019 L116.262022,51.001046 C116.386389,51.0003487 116.512116,51 116.636143,51 C127.150954,51 136.354471,53.4185901 144,58.1923157" id="Fill-10" fill="#FFFFFF"></path>
                </g>
            </g>
        </g>
    </g>
</svg>
