<svg width="760" height="181" viewBox="0 0 760 181" fill="none" xmlns="http://www.w3.org/2000/svg">
<rect width="760" height="181" rx="8" fill="url(#paint0_linear)"/>
<mask id="mask0" mask-type="alpha" maskUnits="userSpaceOnUse" x="0" y="0" width="760" height="181">
<rect width="760" height="181" rx="8" fill="url(#paint1_linear)"/>
</mask>
<g mask="url(#mask0)">
<path d="M571.481 139.259C613.067 139.259 646.778 105.507 646.778 63.8707C646.778 22.2348 613.067 -11.5177 571.481 -11.5177C529.895 -11.5177 496.184 22.2348 496.184 63.8707C496.184 105.507 529.895 139.259 571.481 139.259Z" fill="#47C1E6"/>
<path d="M625.774 41.2091C624.8 42.3182 625.595 43.9213 626.417 45.1473C630.848 51.755 632.586 57.9841 632.586 66.1982C632.586 75.629 629.222 84.4359 623.359 91.9154C621.653 94.0919 620.897 96.9129 621.612 99.5845L623.523 106.731C624.459 110.23 627.629 112.664 631.251 112.664H635.61C637.908 112.664 640.094 111.676 641.613 109.952L652.56 97.525C653.557 96.3926 654.214 95.0011 654.455 93.5112L658.07 71.1048L658.715 59.6772C658.834 57.5726 658.118 55.5061 656.722 53.9269L646.22 42.0492C644.923 40.5816 643.129 39.6275 641.178 39.4429C632.652 38.6353 627.516 39.2258 625.774 41.2091Z" fill="url(#paint2_linear)"/>
<mask id="mask1" mask-type="alpha" maskUnits="userSpaceOnUse" x="458" y="20" width="195" height="191">
<path d="M460.82 114.663L463.392 124.889C463.392 124.889 493.78 187.312 562.188 210.503C562.188 210.503 624.426 183.901 652.068 138.77L613.909 105.437C613.909 105.437 595.644 119.982 568.498 119.982C541.351 119.982 504.492 103.774 504.492 70.357C504.492 36.9404 542.679 24.7228 542.679 24.7228L526.405 20.7318H484.808L458.41 84.4059L460.82 114.663Z" fill="#94D8FA"/>
</mask>
<g mask="url(#mask1)">
<circle cx="566.095" cy="86.0904" r="107.869" fill="url(#paint3_linear)"/>
</g>
<mask id="mask2" mask-type="alpha" maskUnits="userSpaceOnUse" x="432" y="-50" width="259" height="193">
<path d="M690.702 44.489C689.542 43.3287 679.088 -10.4832 586.686 -42.3202C583.765 -44.3192 486.24 -60.0455 501.131 -38.7906C415.303 -16.8786 434.833 41.6093 434.833 44.489C434.833 47.3686 447.117 90.6405 455.09 108.261C455.754 109.757 466.382 128.544 474.271 138.77C469.624 128.544 464.558 119.654 464.558 104.361C464.558 61.2218 497.93 26.1416 539.688 24.6459C540.687 24.6459 541.763 24.6459 542.762 24.7298L532.798 14.7558C532.798 14.7558 572.899 8.02491 624.369 39.191C624.369 39.191 625.117 40.7706 624.369 45.4256C624.369 45.4256 648.609 55.8958 650.684 76.2631C652.759 96.6304 639.888 108.268 629.512 109.924C629.512 109.924 634.906 101.53 626.605 97.0428C624.858 96.0433 622.783 95.6309 620.708 95.7148C604.853 95.7148 603.022 113.839 603.022 113.839C602.855 114.754 602.855 115.67 602.855 116.578C602.855 116.578 600.199 143.096 647.351 142.593C647.351 142.593 671.262 115.495 677.572 91.1437C679.899 82.1692 681.555 75.4314 682.638 70.4479C685.293 63.3815 687.872 52.9742 690.359 45.4116L690.702 44.489Z" fill="url(#paint4_radial)"/>
</mask>
<g mask="url(#mask2)">
<circle cx="561.634" cy="80.4128" r="105.436" fill="url(#paint5_linear)"/>
</g>
<path d="M603.634 46.8037L603.563 46.8398L603.537 46.866C596.486 45.336 591.69 42.7631 588.657 40.5749C587.121 39.4669 586.036 38.4562 585.337 37.7273C585.21 37.594 585.095 37.4701 584.993 37.3567C596.39 37.4304 606.794 39.8233 615.037 43.8784C613.344 43.4678 611.299 43.0382 609.237 42.7633L608.986 42.7299L608.811 42.9118C606.408 45.4027 604.327 46.4541 603.659 46.7915L603.634 46.8037Z" fill="white" fill-opacity="0.2" stroke="white"/>
<path d="M565.282 199.62C557.589 199.62 549.896 198.844 542.419 197.314C535.124 195.818 527.955 193.595 521.1 190.695C514.371 187.85 507.887 184.327 501.815 180.225C495.806 176.164 490.16 171.502 485.024 166.364C479.888 161.227 475.227 155.58 471.168 149.569C467.066 143.502 463.544 137.009 460.7 130.278C457.801 123.421 455.579 116.25 454.083 108.953C452.553 101.474 451.777 93.7787 451.777 86.0833C451.777 78.3879 452.553 70.6925 454.083 63.2138C455.579 55.9238 457.801 48.7456 460.7 41.8889C463.544 35.1581 467.066 28.6718 471.168 22.598C475.227 16.587 479.888 10.9395 485.024 5.80228C490.16 0.665024 495.806 -3.99695 501.815 -8.05783C507.88 -12.1607 514.371 -15.6833 521.1 -18.5281C527.955 -21.4287 535.124 -23.6513 542.419 -25.1471C549.896 -26.6778 557.589 -27.4536 565.282 -27.4536C572.976 -27.4536 580.669 -26.6778 588.145 -25.1471C595.44 -23.6513 602.61 -21.4287 609.464 -18.5281C616.193 -15.6833 622.678 -12.1607 628.75 -8.05783C634.759 -3.99695 640.405 0.665024 645.541 5.80228C650.677 10.9395 655.337 16.587 659.397 22.598C663.499 28.6648 667.02 35.1581 669.864 41.8889C672.764 48.7456 674.986 55.9168 676.481 63.2138C678.012 70.6925 678.787 78.3879 678.787 86.0833C678.787 93.7787 678.012 101.474 676.481 108.953C674.986 116.25 672.764 123.421 669.864 130.278C667.02 137.009 663.499 143.495 659.397 149.569C655.337 155.58 650.677 161.227 645.541 166.364C640.405 171.502 634.759 176.164 628.75 180.225C622.685 184.327 616.193 187.85 609.464 190.695C602.61 193.595 595.44 195.818 588.145 197.314C580.669 198.844 572.976 199.62 565.282 199.62ZM565.282 -11.3499C552.125 -11.3499 539.373 -8.77775 527.368 -3.6964C521.596 -1.25708 516.034 1.76936 510.829 5.28506C505.672 8.77281 500.816 12.7778 496.407 17.1881C491.997 21.5985 487.987 26.4562 484.507 31.6214C480.992 36.8285 477.967 42.3992 475.528 48.1655C470.448 60.1734 467.877 72.9292 467.877 86.0903C467.877 99.2515 470.448 112.007 475.528 124.015C477.967 129.788 480.992 135.352 484.507 140.559C487.994 145.717 491.997 150.575 496.407 154.986C500.816 159.396 505.672 163.401 510.829 166.889C516.034 170.404 521.603 173.431 527.368 175.87C539.373 180.951 552.125 183.524 565.282 183.524C578.44 183.524 591.192 180.951 603.197 175.87C608.968 173.431 614.53 170.404 619.736 166.889C624.893 163.401 629.749 159.396 634.158 154.986C638.567 150.575 642.571 145.717 646.058 140.559C649.573 135.352 652.598 129.782 655.037 124.015C660.117 112.007 662.688 99.2515 662.688 86.0903C662.688 72.9292 660.117 60.1734 655.037 48.1655C652.598 42.3922 649.573 36.8285 646.058 31.6214C642.571 26.4632 638.567 21.6055 634.158 17.1951C629.749 12.7848 624.893 8.7798 619.736 5.29205C614.53 1.77635 608.961 -1.25009 603.197 -3.68941C591.192 -8.77076 578.44 -11.3499 565.282 -11.3499Z" fill="url(#paint6_linear)" stroke="white"/>
</g>
<path d="M49.1094 95.9219H51.6875L60.2812 118H56.6562L54.8594 113.031H45.9844L44.1562 118H40.4844L49.1094 95.9219ZM53.7969 110.141L50.4219 100.812L47.0312 110.141H53.7969ZM63.1406 102.391H66.2812V105.234C66.5104 104.568 66.8542 104 67.3125 103.531C67.7708 103.052 68.2917 102.693 68.875 102.453C69.4688 102.214 70.0729 102.094 70.6875 102.094C71.1979 102.094 71.6875 102.177 72.1562 102.344C72.6354 102.51 73.0469 102.76 73.3906 103.094L71.9219 105.75C71.3802 105.406 70.8073 105.234 70.2031 105.234C69.5365 105.234 68.901 105.438 68.2969 105.844C67.6927 106.25 67.1979 106.885 66.8125 107.75C66.4375 108.604 66.25 109.672 66.25 110.953V118H63.1406V102.391ZM81.5156 102.094C82.8802 102.094 84.0573 102.359 85.0469 102.891C86.0365 103.422 86.7917 104.172 87.3125 105.141C87.8333 106.099 88.0938 107.219 88.0938 108.5V118H85.4219L85.2031 115.562C84.7031 116.438 83.9792 117.115 83.0312 117.594C82.0938 118.062 81.1094 118.297 80.0781 118.297C79.0052 118.297 78.0469 118.099 77.2031 117.703C76.3594 117.307 75.6979 116.734 75.2188 115.984C74.7396 115.224 74.5 114.328 74.5 113.297C74.5 111.714 75.0625 110.568 76.1875 109.859C77.3125 109.151 78.8542 108.797 80.8125 108.797H85.1562C85.1354 107.87 85.0104 107.13 84.7812 106.578C84.5521 106.016 84.1771 105.599 83.6562 105.328C83.1458 105.057 82.4375 104.922 81.5312 104.922C80.6458 104.922 79.8698 105.13 79.2031 105.547C78.5469 105.964 78.0052 106.526 77.5781 107.234L75.1094 105.453C75.901 104.359 76.8073 103.526 77.8281 102.953C78.8594 102.38 80.0885 102.094 81.5156 102.094ZM80.7188 115.547C81.5312 115.547 82.25 115.37 82.875 115.016C83.5104 114.661 84.0208 114.188 84.4062 113.594C84.7917 113 85.0417 112.344 85.1562 111.625V111.141H81C79.9583 111.141 79.1667 111.349 78.625 111.766C78.0833 112.172 77.8125 112.714 77.8125 113.391C77.8125 114.047 78.0625 114.573 78.5625 114.969C79.0625 115.354 79.7812 115.547 80.7188 115.547ZM99.1875 115.75C100.479 115.927 101.547 116.146 102.391 116.406C103.245 116.667 103.958 117.104 104.531 117.719C105.104 118.323 105.391 119.172 105.391 120.266C105.391 121.349 105.099 122.271 104.516 123.031C103.932 123.792 103.13 124.359 102.109 124.734C101.089 125.12 99.9271 125.312 98.625 125.312C97.0729 125.312 95.7448 125.078 94.6406 124.609C93.5365 124.151 92.6979 123.51 92.125 122.688C91.5625 121.865 91.2812 120.917 91.2812 119.844C91.2812 119.625 91.3021 119.401 91.3438 119.172L93.3438 117.438C92.2083 116.781 91.6406 115.771 91.6406 114.406C91.6406 113.135 92.151 112.089 93.1719 111.266C92.7552 110.786 92.4323 110.245 92.2031 109.641C91.974 109.026 91.8594 108.38 91.8594 107.703C91.8594 106.63 92.1406 105.667 92.7031 104.812C93.2656 103.958 94.0208 103.292 94.9688 102.812C95.9167 102.333 96.9583 102.094 98.0938 102.094C99.5 102.094 100.76 102.453 101.875 103.172L104.172 101.188L105.859 103.266L103.656 105.078C104.135 105.922 104.375 106.849 104.375 107.859C104.375 108.964 104.099 109.938 103.547 110.781C102.995 111.625 102.245 112.276 101.297 112.734C100.359 113.193 99.3281 113.422 98.2031 113.422C97.0781 113.422 96.0521 113.198 95.125 112.75C94.875 112.885 94.6927 113.042 94.5781 113.219C94.4635 113.396 94.4062 113.604 94.4062 113.844C94.4062 114.25 94.5625 114.568 94.875 114.797C95.1875 115.026 95.599 115.193 96.1094 115.297C96.6198 115.401 97.3698 115.516 98.3594 115.641L99.1875 115.75ZM98.2031 104.594C97.276 104.594 96.5417 104.885 96 105.469C95.4583 106.052 95.1875 106.807 95.1875 107.734C95.1875 108.651 95.4531 109.391 95.9844 109.953C96.526 110.516 97.2656 110.797 98.2031 110.797C99.1302 110.797 99.8542 110.516 100.375 109.953C100.906 109.391 101.172 108.651 101.172 107.734C101.172 106.797 100.906 106.042 100.375 105.469C99.8438 104.885 99.1198 104.594 98.2031 104.594ZM98.5938 122.812C99.75 122.812 100.661 122.62 101.328 122.234C101.995 121.859 102.328 121.318 102.328 120.609C102.328 120.141 102.167 119.776 101.844 119.516C101.531 119.255 101.083 119.057 100.5 118.922C99.9167 118.797 99.1042 118.672 98.0625 118.547C97.9688 118.536 97.625 118.5 97.0312 118.438C96.4479 118.375 95.8802 118.281 95.3281 118.156L94.1719 119.828C94.1823 119.943 94.2083 120.094 94.25 120.281C94.4271 121.125 94.9062 121.755 95.6875 122.172C96.4688 122.599 97.4375 122.812 98.5938 122.812ZM115.266 118.297C113.734 118.297 112.37 117.932 111.172 117.203C109.984 116.474 109.062 115.49 108.406 114.25C107.75 113 107.422 111.635 107.422 110.156C107.422 108.688 107.75 107.339 108.406 106.109C109.062 104.87 109.984 103.891 111.172 103.172C112.37 102.453 113.734 102.094 115.266 102.094C116.797 102.094 118.156 102.453 119.344 103.172C120.542 103.891 121.469 104.87 122.125 106.109C122.792 107.339 123.125 108.688 123.125 110.156C123.125 111.635 122.792 113 122.125 114.25C121.469 115.49 120.542 116.474 119.344 117.203C118.156 117.932 116.797 118.297 115.266 118.297ZM115.266 115.5C116.245 115.5 117.073 115.26 117.75 114.781C118.427 114.302 118.932 113.656 119.266 112.844C119.599 112.031 119.766 111.135 119.766 110.156C119.766 109.177 119.599 108.292 119.266 107.5C118.932 106.698 118.427 106.062 117.75 105.594C117.073 105.125 116.245 104.891 115.266 104.891C114.286 104.891 113.458 105.125 112.781 105.594C112.115 106.062 111.615 106.698 111.281 107.5C110.948 108.292 110.781 109.177 110.781 110.156C110.781 111.146 110.948 112.047 111.281 112.859C111.615 113.661 112.115 114.302 112.781 114.781C113.458 115.26 114.286 115.5 115.266 115.5ZM126.609 102.391H129.828V104.484C130.38 103.693 131.073 103.099 131.906 102.703C132.74 102.297 133.609 102.094 134.516 102.094C135.766 102.094 136.807 102.385 137.641 102.969C138.484 103.552 139.104 104.323 139.5 105.281C139.896 106.24 140.099 107.297 140.109 108.453V118H136.891V108.938C136.891 107.76 136.604 106.823 136.031 106.125C135.469 105.427 134.661 105.078 133.609 105.078C132.422 105.078 131.495 105.427 130.828 106.125C130.161 106.823 129.828 107.859 129.828 109.234V118H126.609V102.391ZM150.672 95.9219H154.172L159.094 113.094L164.266 97.1719H166.906L172.078 113.094L177.016 95.9219H180.5L173.969 118H170.688L165.594 102.469L160.484 118H157.203L150.672 95.9219ZM183.562 95.9219H186.938V99.3281H183.562V95.9219ZM183.641 102.391H186.859V118H183.641V102.391ZM191.797 95.9219H195.016V109.547L201.625 102.391H205.828L200.031 108.359L206.562 118H202.734L197.844 110.359L195.016 113.406V118H191.797V95.9219ZM209.031 95.9219H212.406V99.3281H209.031V95.9219ZM209.109 102.391H212.328V118H209.109V102.391Z" fill="white"/>
<path d="M42.1484 64.7207H43.4082V71.8105H47.0293V73H42.1484V64.7207ZM48.8945 64.7207H54.373V65.8809H50.1543V68.2715H54.0332V69.4316H50.1543V71.8105H54.373V73H48.8945V64.7207ZM59.0215 64.7207H59.9883L63.2109 73H61.8516L61.1777 71.1367H57.8496L57.1641 73H55.7871L59.0215 64.7207ZM60.7793 70.0527L59.5137 66.5547L58.2422 70.0527H60.7793ZM65.0469 64.7207H67.6016C68.1289 64.7207 68.6074 64.8164 69.0371 65.0078C69.4668 65.1953 69.8066 65.4707 70.0566 65.834C70.3066 66.1934 70.4316 66.6191 70.4316 67.1113C70.4316 67.6348 70.2793 68.0859 69.9746 68.4648C69.6738 68.8438 69.2715 69.1094 68.7676 69.2617L71.0703 73H69.6289L67.5488 69.3906L67.0449 69.3965H66.3066V73H65.0469V64.7207ZM67.7129 68.3652C68.1777 68.3496 68.5391 68.2344 68.7969 68.0195C69.0547 67.8008 69.1836 67.5059 69.1836 67.1348C69.1836 66.7402 69.043 66.4277 68.7617 66.1973C68.4805 65.9668 68.0977 65.8516 67.6133 65.8516H66.3184V68.3652H67.7129ZM79.1348 64.7207V73H77.8633L74.1777 66.7891V73H72.9648V64.7207H74.2305L77.9277 70.9082V64.7207H79.1348ZM93.5879 64.7207V73H92.375V66.4609L90.1016 72.2969H88.877L86.6035 66.4609V73H85.3906V64.7207H87.0957L89.4922 70.8848L91.8828 64.7207H93.5879ZM99.748 73.1113C98.8887 73.1113 98.1641 72.9199 97.5742 72.5371C96.9844 72.1504 96.543 71.6348 96.25 70.9902C95.9609 70.3457 95.8164 69.6348 95.8164 68.8574C95.8164 68.0801 95.9609 67.3711 96.25 66.7305C96.543 66.0859 96.9844 65.5723 97.5742 65.1895C98.1641 64.8027 98.8887 64.6094 99.748 64.6094C100.607 64.6094 101.332 64.8027 101.922 65.1895C102.512 65.5723 102.951 66.0859 103.24 66.7305C103.533 67.3711 103.68 68.0801 103.68 68.8574C103.68 69.6348 103.533 70.3457 103.24 70.9902C102.951 71.6348 102.512 72.1504 101.922 72.5371C101.332 72.9199 100.607 73.1113 99.748 73.1113ZM99.748 71.9922C100.346 71.9922 100.838 71.8516 101.225 71.5703C101.615 71.2891 101.9 70.9141 102.08 70.4453C102.26 69.9727 102.35 69.4434 102.35 68.8574C102.35 68.2715 102.26 67.7441 102.08 67.2754C101.9 66.8027 101.615 66.4277 101.225 66.1504C100.838 65.8691 100.346 65.7285 99.748 65.7285C99.1504 65.7285 98.6562 65.8691 98.2656 66.1504C97.8789 66.4277 97.5957 66.8027 97.416 67.2754C97.2363 67.7441 97.1465 68.2715 97.1465 68.8574C97.1465 69.4434 97.2363 69.9727 97.416 70.4453C97.5957 70.9141 97.8789 71.2891 98.2656 71.5703C98.6562 71.8516 99.1504 71.9922 99.748 71.9922ZM105.902 64.7207H108.457C108.984 64.7207 109.463 64.8164 109.893 65.0078C110.322 65.1953 110.662 65.4707 110.912 65.834C111.162 66.1934 111.287 66.6191 111.287 67.1113C111.287 67.6348 111.135 68.0859 110.83 68.4648C110.529 68.8438 110.127 69.1094 109.623 69.2617L111.926 73H110.484L108.404 69.3906L107.9 69.3965H107.162V73H105.902V64.7207ZM108.568 68.3652C109.033 68.3496 109.395 68.2344 109.652 68.0195C109.91 67.8008 110.039 67.5059 110.039 67.1348C110.039 66.7402 109.898 66.4277 109.617 66.1973C109.336 65.9668 108.953 65.8516 108.469 65.8516H107.174V68.3652H108.568ZM113.82 64.7207H119.299V65.8809H115.08V68.2715H118.959V69.4316H115.08V71.8105H119.299V73H113.82V64.7207ZM127.4 64.7207H128.367L131.59 73H130.23L129.557 71.1367H126.229L125.543 73H124.166L127.4 64.7207ZM129.158 70.0527L127.893 66.5547L126.621 70.0527H129.158ZM133.426 64.7207H136.174C136.635 64.7207 137.061 64.7969 137.451 64.9492C137.846 65.0977 138.164 65.3359 138.406 65.6641C138.648 65.9922 138.77 66.4102 138.77 66.918C138.77 67.168 138.725 67.4062 138.635 67.6328C138.545 67.8555 138.424 68.0488 138.271 68.2129C138.123 68.377 137.959 68.502 137.779 68.5879C138.045 68.6777 138.283 68.8281 138.494 69.0391C138.709 69.25 138.875 69.4961 138.992 69.7773C139.113 70.0547 139.174 70.3418 139.174 70.6387C139.174 71.127 139.053 71.5508 138.811 71.9102C138.572 72.2656 138.25 72.5371 137.844 72.7246C137.438 72.9082 136.988 73 136.496 73H133.426V64.7207ZM136.355 68.1543C136.719 68.1543 137.018 68.0605 137.252 67.873C137.49 67.6855 137.609 67.3906 137.609 66.9883C137.609 66.625 137.48 66.3457 137.223 66.1504C136.969 65.9551 136.627 65.8574 136.197 65.8574H134.686V68.1543H136.355ZM136.514 71.7988C136.975 71.7988 137.326 71.6914 137.568 71.4766C137.814 71.2578 137.938 70.9316 137.938 70.498C137.938 70.2598 137.881 70.0469 137.768 69.8594C137.654 69.668 137.492 69.5176 137.281 69.4082C137.07 69.2988 136.824 69.2441 136.543 69.2441H134.686V71.7988H136.514ZM144.748 73.1113C143.889 73.1113 143.164 72.9199 142.574 72.5371C141.984 72.1504 141.543 71.6348 141.25 70.9902C140.961 70.3457 140.816 69.6348 140.816 68.8574C140.816 68.0801 140.961 67.3711 141.25 66.7305C141.543 66.0859 141.984 65.5723 142.574 65.1895C143.164 64.8027 143.889 64.6094 144.748 64.6094C145.607 64.6094 146.332 64.8027 146.922 65.1895C147.512 65.5723 147.951 66.0859 148.24 66.7305C148.533 67.3711 148.68 68.0801 148.68 68.8574C148.68 69.6348 148.533 70.3457 148.24 70.9902C147.951 71.6348 147.512 72.1504 146.922 72.5371C146.332 72.9199 145.607 73.1113 144.748 73.1113ZM144.748 71.9922C145.346 71.9922 145.838 71.8516 146.225 71.5703C146.615 71.2891 146.9 70.9141 147.08 70.4453C147.26 69.9727 147.35 69.4434 147.35 68.8574C147.35 68.2715 147.26 67.7441 147.08 67.2754C146.9 66.8027 146.615 66.4277 146.225 66.1504C145.838 65.8691 145.346 65.7285 144.748 65.7285C144.15 65.7285 143.656 65.8691 143.266 66.1504C142.879 66.4277 142.596 66.8027 142.416 67.2754C142.236 67.7441 142.146 68.2715 142.146 68.8574C142.146 69.4434 142.236 69.9727 142.416 70.4453C142.596 70.9141 142.879 71.2891 143.266 71.5703C143.656 71.8516 144.15 71.9922 144.748 71.9922ZM153.814 73.1113C152.771 73.1113 151.994 72.8223 151.482 72.2441C150.975 71.666 150.721 70.8555 150.721 69.8125V64.7207H151.98V69.6719C151.98 70.1641 152.037 70.5723 152.15 70.8965C152.268 71.2207 152.461 71.4688 152.73 71.6406C153 71.8086 153.361 71.8926 153.814 71.8926C154.271 71.8926 154.635 71.8086 154.904 71.6406C155.174 71.4688 155.367 71.2207 155.484 70.8965C155.602 70.5684 155.66 70.1562 155.66 69.6602V64.7207H156.92V69.7539C156.92 70.8203 156.662 71.6465 156.146 72.2324C155.635 72.8184 154.857 73.1113 153.814 73.1113ZM161.322 65.8516H158.627V64.7207H165.271V65.8516H162.582V73H161.322V65.8516ZM172.846 64.7207H173.812L177.035 73H175.676L175.002 71.1367H171.674L170.988 73H169.611L172.846 64.7207ZM174.604 70.0527L173.338 66.5547L172.066 70.0527H174.604ZM178.871 64.7207H181.426C181.953 64.7207 182.432 64.8164 182.861 65.0078C183.291 65.1953 183.631 65.4707 183.881 65.834C184.131 66.1934 184.256 66.6191 184.256 67.1113C184.256 67.6348 184.104 68.0859 183.799 68.4648C183.498 68.8438 183.096 69.1094 182.592 69.2617L184.895 73H183.453L181.373 69.3906L180.869 69.3965H180.131V73H178.871V64.7207ZM181.537 68.3652C182.002 68.3496 182.363 68.2344 182.621 68.0195C182.879 67.8008 183.008 67.5059 183.008 67.1348C183.008 66.7402 182.867 66.4277 182.586 66.1973C182.305 65.9668 181.922 65.8516 181.438 65.8516H180.143V68.3652H181.537ZM189.021 64.7207H189.988L193.211 73H191.852L191.178 71.1367H187.85L187.164 73H185.787L189.021 64.7207ZM190.779 70.0527L189.514 66.5547L188.242 70.0527H190.779ZM198 73.1113C197.152 73.1113 196.434 72.9238 195.844 72.5488C195.254 72.1699 194.812 71.6602 194.52 71.0195C194.227 70.375 194.08 69.6543 194.08 68.8574C194.08 68.0566 194.225 67.3359 194.514 66.6953C194.807 66.0508 195.248 65.541 195.838 65.166C196.428 64.7871 197.152 64.5977 198.012 64.5977C198.828 64.5977 199.539 64.7969 200.145 65.1953C200.75 65.5938 201.215 66.1719 201.539 66.9297L200.42 67.3984C200.221 66.8281 199.914 66.4023 199.5 66.1211C199.086 65.8398 198.586 65.6992 198 65.6992C197.41 65.6992 196.914 65.8359 196.512 66.1094C196.113 66.3828 195.816 66.7539 195.621 67.2227C195.426 67.6875 195.328 68.2148 195.328 68.8047C195.328 69.4141 195.422 69.957 195.609 70.4336C195.801 70.9102 196.096 71.2871 196.494 71.5645C196.896 71.8418 197.398 71.9805 198 71.9805C198.457 71.9805 198.859 71.8984 199.207 71.7344C199.559 71.5703 199.838 71.3281 200.045 71.0078C200.252 70.6836 200.371 70.291 200.402 69.8301L200.432 69.6133H198.516V68.5938H201.674V73H200.672L200.561 71.7285C200.318 72.1621 199.975 72.502 199.529 72.748C199.088 72.9902 198.578 73.1113 198 73.1113ZM207.506 73.1113C206.646 73.1113 205.922 72.9199 205.332 72.5371C204.742 72.1504 204.301 71.6348 204.008 70.9902C203.719 70.3457 203.574 69.6348 203.574 68.8574C203.574 68.0801 203.719 67.3711 204.008 66.7305C204.301 66.0859 204.742 65.5723 205.332 65.1895C205.922 64.8027 206.646 64.6094 207.506 64.6094C208.365 64.6094 209.09 64.8027 209.68 65.1895C210.27 65.5723 210.709 66.0859 210.998 66.7305C211.291 67.3711 211.438 68.0801 211.438 68.8574C211.438 69.6348 211.291 70.3457 210.998 70.9902C210.709 71.6348 210.27 72.1504 209.68 72.5371C209.09 72.9199 208.365 73.1113 207.506 73.1113ZM207.506 71.9922C208.104 71.9922 208.596 71.8516 208.982 71.5703C209.373 71.2891 209.658 70.9141 209.838 70.4453C210.018 69.9727 210.107 69.4434 210.107 68.8574C210.107 68.2715 210.018 67.7441 209.838 67.2754C209.658 66.8027 209.373 66.4277 208.982 66.1504C208.596 65.8691 208.104 65.7285 207.506 65.7285C206.908 65.7285 206.414 65.8691 206.023 66.1504C205.637 66.4277 205.354 66.8027 205.174 67.2754C204.994 67.7441 204.904 68.2715 204.904 68.8574C204.904 69.4434 204.994 69.9727 205.174 70.4453C205.354 70.9141 205.637 71.2891 206.023 71.5703C206.414 71.8516 206.908 71.9922 207.506 71.9922ZM219.83 64.7207V73H218.559L214.873 66.7891V73H213.66V64.7207H214.926L218.623 70.9082V64.7207H219.83Z" fill="white" fill-opacity="0.8"/>
<defs>
<linearGradient id="paint0_linear" x1="760" y1="181" x2="725.21" y2="-122.216" gradientUnits="userSpaceOnUse">
<stop stop-color="#46C4E6"/>
<stop offset="1" stop-color="#4A80E4"/>
</linearGradient>
<linearGradient id="paint1_linear" x1="760" y1="181" x2="725.21" y2="-122.216" gradientUnits="userSpaceOnUse">
<stop stop-color="#46C4E6"/>
<stop offset="1" stop-color="#4A80E4"/>
</linearGradient>
<linearGradient id="paint2_linear" x1="652.5" y1="113" x2="436.308" y2="-28.8671" gradientUnits="userSpaceOnUse">
<stop stop-color="#99DDFF"/>
<stop offset="1" stop-color="#4A80E4"/>
</linearGradient>
<linearGradient id="paint3_linear" x1="673.963" y1="193.959" x2="530.788" y2="-103.23" gradientUnits="userSpaceOnUse">
<stop stop-color="#8DE7FF"/>
<stop offset="1" stop-color="#4A80E4"/>
</linearGradient>
<radialGradient id="paint4_radial" cx="0" cy="0" r="1" gradientUnits="userSpaceOnUse" gradientTransform="translate(401.015 224.681) scale(0.468002 0.468134)">
<stop stop-color="#00C9FF"/>
<stop offset="1" stop-color="#7DD6E7"/>
</radialGradient>
<linearGradient id="paint5_linear" x1="667.069" y1="185.848" x2="527.123" y2="-104.637" gradientUnits="userSpaceOnUse">
<stop stop-color="#46C4E6"/>
<stop offset="1" stop-color="#4A80E4"/>
</linearGradient>
<linearGradient id="paint6_linear" x1="678.787" y1="199.62" x2="528.061" y2="-113.152" gradientUnits="userSpaceOnUse">
<stop stop-color="#46C4E6"/>
<stop offset="1" stop-color="#4A80E4"/>
</linearGradient>
</defs>
</svg>
