<svg fill="none" height="284" viewBox="0 0 283 284" width="283" xmlns="http://www.w3.org/2000/svg" xmlns:xlink="http://www.w3.org/1999/xlink"><linearGradient id="a" gradientUnits="userSpaceOnUse" x1="141.5" x2="141.5" y1="99.3752" y2="287.733"><stop offset="0" stop-color="#01e8f8"/><stop offset="1" stop-color="#01e8f8" stop-opacity="0"/></linearGradient><linearGradient id="b"><stop offset="0" stop-color="#01e8f7"/><stop offset="1" stop-color="#00c2ff"/></linearGradient><linearGradient id="c" gradientUnits="userSpaceOnUse" x1="232.389" x2="237.798" xlink:href="#b" y1="111.72" y2="181.287"/><linearGradient id="d" gradientUnits="userSpaceOnUse" x1="111.561" x2="184.824" y1="63.1905" y2="179.059"><stop offset="0" stop-color="#01e8f7"/><stop offset="1" stop-color="#00b3ec"/></linearGradient><linearGradient id="e" gradientUnits="userSpaceOnUse" x1="139.052" x2="145.584" xlink:href="#b" y1="120.788" y2="308.105"/><path d="m0 0h283v284h-283z" fill="#fff"/><ellipse cx="141.5" cy="142" fill="url(#a)" fill-opacity=".05" rx="141.5" ry="142"/><path d="m252.081 132.61c.982-20.459-13.258-34.0319-29.327-43.3502l-10.446 61.5822c7.232-.406 10.767 2.349 12.053 3.646 1.607 1.62 5.624 6.482.803 14.18 10.044-1.621 25.731-11.344 26.917-36.058z" fill="url(#c)"/><g clip-rule="evenodd" fill-rule="evenodd"><path d="m115.061 60.913-12.454-12.5594c18.748-2.2959 68.217.6482 116.105 30.7909.803 3.2411 0 8.1028 0 8.1028l4.017 2.0257c3.482 4.9968 9.401 19.204 5.223 36.058s-11.383 24.038-14.463 25.524c-6.428 0-17.355 3.727-20.891 20.257-3.535 16.53-10.311 20.122-13.257 19.852l-70.708.81-46.6021-27.549-6.8297-57.126 13.2577-17.826 23.703-19.4468 16.8731-6.8875zm83.509 23.5978c-3.118 3.2591-6.033 4.8228-6.865 5.2468-18.207-3.8865-24.766-13.3387-24.766-13.3387 17.173-.1063 32.673 3.9928 44.013 10.927 0 0-6.138-1.9964-12.382-2.8351z" fill="url(#d)"/><path d="m192.566 171.117c-12.524 6.147-27.371 9.705-43.292 9.705-44.749 0-81.0258-28.115-81.0258-62.797 0-25.6192 19.7952-47.6554 48.1778-57.4224-53.9799 3.1102-97.3578 46.4804-97.3578 99.9954 0 61.761 55.0467 112.793 122.9508 112.793 50.705 0 92.912-29.402 114.981-68.74-30.366 6.83-66.313-6.155-64.434-33.534z" fill="url(#e)"/></g></svg>