<?xml version="1.0" encoding="utf-8"?>
<!-- Generator: Adobe Illustrator 19.2.0, SVG Export Plug-In . SVG Version: 6.00 Build 0)  -->
<svg version="1.1" id="Capa_1" xmlns="http://www.w3.org/2000/svg" xmlns:xlink="http://www.w3.org/1999/xlink" x="0px" y="0px"
	 viewBox="0 0 571.6 98.3" style="enable-background:new 0 0 571.6 98.3;" xml:space="preserve">
<style type="text/css">
	.st0{clip-path:url(#SVGID_3_);}
	.st1{clip-path:url(#SVGID_6_);fill:url(#SVGID_7_);}
	.st2{clip-path:url(#SVGID_10_);}
	.st3{clip-path:url(#SVGID_13_);fill:url(#SVGID_14_);}
	.st4{clip-path:url(#SVGID_17_);}
	.st5{clip-path:url(#SVGID_20_);fill:url(#SVGID_21_);}
	.st6{clip-path:url(#SVGID_24_);}
	.st7{clip-path:url(#SVGID_27_);fill:url(#SVGID_28_);}
	.st8{clip-path:url(#SVGID_31_);}
	.st9{clip-path:url(#SVGID_34_);fill:url(#SVGID_35_);}
	.st10{clip-path:url(#SVGID_38_);}
	.st11{clip-path:url(#SVGID_41_);fill:url(#SVGID_42_);}
</style>
<g>
	<defs>
		<path id="SVGID_1_" d="M291.8,52v-0.2c0-21.2,16.2-39.1,39.1-39.1c13.2,0,21.3,3.7,29.1,10.3L351.6,33c-5.8-5-11.6-8.1-21.2-8.1
			c-14,0-24.6,12.2-24.6,26.7v0.2c0,15.6,10.3,27,25.8,27c7.1,0,13.6-2.3,18.3-5.7V58.9v-3l12.9-8.6v31.8
			c-7.5,6.4-18.2,11.8-31.6,11.8C307.4,90.9,291.8,74,291.8,52"/>
	</defs>
	<linearGradient id="SVGID_2_" gradientUnits="userSpaceOnUse" x1="291.8167" y1="51.7659" x2="362.6997" y2="51.7659">
		<stop  offset="0" style="stop-color:#000000"/>
		<stop  offset="1" style="stop-color:#0D0D0D"/>
	</linearGradient>
	<use xlink:href="#SVGID_1_"  style="overflow:visible;fill-rule:evenodd;clip-rule:evenodd;fill:url(#SVGID_2_);"/>
	<clipPath id="SVGID_3_">
		<use xlink:href="#SVGID_1_"  style="overflow:visible;"/>
	</clipPath>
	<g class="st0">
		<defs>
			<rect id="SVGID_4_" x="-655.9" y="-523.9" width="1528.9" height="1080.4"/>
		</defs>
		<linearGradient id="SVGID_5_" gradientUnits="userSpaceOnUse" x1="-655.9293" y1="16.3011" x2="872.985" y2="16.3011">
			<stop  offset="0" style="stop-color:#000000"/>
			<stop  offset="1" style="stop-color:#0D0D0D"/>
		</linearGradient>
		<use xlink:href="#SVGID_4_"  style="overflow:visible;fill:url(#SVGID_5_);"/>
		<clipPath id="SVGID_6_">
			<use xlink:href="#SVGID_4_"  style="overflow:visible;"/>
		</clipPath>
		<linearGradient id="SVGID_7_" gradientUnits="userSpaceOnUse" x1="282.7377" y1="51.766" x2="371.7787" y2="51.766">
			<stop  offset="0" style="stop-color:#000000"/>
			<stop  offset="1" style="stop-color:#0D0D0D"/>
		</linearGradient>
		<rect x="282.7" y="3.6" class="st1" width="89" height="96.4"/>
	</g>
</g>
<g>
	<defs>
		<polygon id="SVGID_8_" points="43.8,15.2 10.5,91.4 24.1,91.4 31.9,73.2 36.8,61.4 49.8,31.1 62.9,61.4 67.7,73.2 75.4,91.4 
			89.5,91.4 56.2,15.2 		"/>
	</defs>
	<linearGradient id="SVGID_9_" gradientUnits="userSpaceOnUse" x1="10.474" y1="53.335" x2="89.4804" y2="53.335">
		<stop  offset="0" style="stop-color:#000000"/>
		<stop  offset="1" style="stop-color:#0D0D0D"/>
	</linearGradient>
	<use xlink:href="#SVGID_8_"  style="overflow:visible;fill-rule:evenodd;clip-rule:evenodd;fill:url(#SVGID_9_);"/>
	<clipPath id="SVGID_10_">
		<use xlink:href="#SVGID_8_"  style="overflow:visible;"/>
	</clipPath>
	<g class="st2">
		<defs>
			<rect id="SVGID_11_" x="-655.9" y="-523.9" width="1528.9" height="1080.4"/>
		</defs>
		<linearGradient id="SVGID_12_" gradientUnits="userSpaceOnUse" x1="-655.9293" y1="16.3011" x2="872.985" y2="16.3011">
			<stop  offset="0" style="stop-color:#000000"/>
			<stop  offset="1" style="stop-color:#0D0D0D"/>
		</linearGradient>
		<use xlink:href="#SVGID_11_"  style="overflow:visible;fill:url(#SVGID_12_);"/>
		<clipPath id="SVGID_13_">
			<use xlink:href="#SVGID_11_"  style="overflow:visible;"/>
		</clipPath>
		<linearGradient id="SVGID_14_" gradientUnits="userSpaceOnUse" x1="1.3949" y1="53.335" x2="98.5594" y2="53.335">
			<stop  offset="0" style="stop-color:#000000"/>
			<stop  offset="1" style="stop-color:#0D0D0D"/>
		</linearGradient>
		<rect x="1.4" y="6.2" class="st3" width="97.2" height="94.4"/>
	</g>
</g>
<g>
	<defs>
		<polygon id="SVGID_15_" points="230.4,13.7 197,89.9 210.7,89.9 218.5,71.6 223.3,59.8 236.3,29.6 249.4,59.8 254.3,71.6 
			262,89.9 276,89.9 242.7,13.7 		"/>
	</defs>
	<linearGradient id="SVGID_16_" gradientUnits="userSpaceOnUse" x1="197.0368" y1="51.7646" x2="276.0432" y2="51.7646">
		<stop  offset="0" style="stop-color:#000000"/>
		<stop  offset="1" style="stop-color:#0D0D0D"/>
	</linearGradient>
	<use xlink:href="#SVGID_15_"  style="overflow:visible;fill-rule:evenodd;clip-rule:evenodd;fill:url(#SVGID_16_);"/>
	<clipPath id="SVGID_17_">
		<use xlink:href="#SVGID_15_"  style="overflow:visible;"/>
	</clipPath>
	<g class="st4">
		<defs>
			<rect id="SVGID_18_" x="-655.9" y="-523.9" width="1528.9" height="1080.4"/>
		</defs>
		<linearGradient id="SVGID_19_" gradientUnits="userSpaceOnUse" x1="-655.9293" y1="16.3011" x2="872.985" y2="16.3011">
			<stop  offset="0" style="stop-color:#000000"/>
			<stop  offset="1" style="stop-color:#0D0D0D"/>
		</linearGradient>
		<use xlink:href="#SVGID_18_"  style="overflow:visible;fill:url(#SVGID_19_);"/>
		<clipPath id="SVGID_20_">
			<use xlink:href="#SVGID_18_"  style="overflow:visible;"/>
		</clipPath>
		<linearGradient id="SVGID_21_" gradientUnits="userSpaceOnUse" x1="187.9577" y1="51.7646" x2="285.1223" y2="51.7646">
			<stop  offset="0" style="stop-color:#000000"/>
			<stop  offset="1" style="stop-color:#0D0D0D"/>
		</linearGradient>
		<rect x="188" y="4.6" class="st5" width="97.2" height="94.4"/>
	</g>
</g>
<g>
	<defs>
		<path id="SVGID_22_" d="M427.2,12.9c-23.3,0-39.7,17.8-39.7,39.1v0.2c0,21.3,16.2,38.9,39.5,38.9c23.3,0,39.7-17.8,39.7-39.1v-0.2
			C466.7,30.5,450.4,12.9,427.2,12.9z M452.7,52.3c0,14.7-10.5,26.7-25.5,26.7c-15,0-25.8-12.2-25.8-26.9v-0.2
			c0-14.7,10.5-26.7,25.5-26.7c15,0,25.8,12.2,25.8,26.9V52.3z"/>
	</defs>
	<linearGradient id="SVGID_23_" gradientUnits="userSpaceOnUse" x1="387.4618" y1="52.0346" x2="466.6792" y2="52.0346">
		<stop  offset="0" style="stop-color:#000000"/>
		<stop  offset="1" style="stop-color:#0D0D0D"/>
	</linearGradient>
	<use xlink:href="#SVGID_22_"  style="overflow:visible;fill-rule:evenodd;clip-rule:evenodd;fill:url(#SVGID_23_);"/>
	<clipPath id="SVGID_24_">
		<use xlink:href="#SVGID_22_"  style="overflow:visible;"/>
	</clipPath>
	<g class="st6">
		<defs>
			<rect id="SVGID_25_" x="-655.9" y="-523.9" width="1528.9" height="1080.4"/>
		</defs>
		<linearGradient id="SVGID_26_" gradientUnits="userSpaceOnUse" x1="-655.9293" y1="16.3011" x2="872.985" y2="16.3011">
			<stop  offset="0" style="stop-color:#000000"/>
			<stop  offset="1" style="stop-color:#0D0D0D"/>
		</linearGradient>
		<use xlink:href="#SVGID_25_"  style="overflow:visible;fill:url(#SVGID_26_);"/>
		<clipPath id="SVGID_27_">
			<use xlink:href="#SVGID_25_"  style="overflow:visible;"/>
		</clipPath>
		<linearGradient id="SVGID_28_" gradientUnits="userSpaceOnUse" x1="378.3827" y1="52.0346" x2="475.7582" y2="52.0346">
			<stop  offset="0" style="stop-color:#000000"/>
			<stop  offset="1" style="stop-color:#0D0D0D"/>
		</linearGradient>
		<rect x="378.4" y="3.8" class="st7" width="97.4" height="96.4"/>
	</g>
</g>
<g>
	<defs>
		<polygon id="SVGID_29_" points="546.5,14.2 546.5,66.5 505.9,14.2 493.6,14.2 493.6,89.9 506.7,89.9 506.7,36 548.5,89.9 
			559.6,89.9 559.6,14.2 		"/>
	</defs>
	<linearGradient id="SVGID_30_" gradientUnits="userSpaceOnUse" x1="493.5924" y1="52.0373" x2="559.609" y2="52.0373">
		<stop  offset="0" style="stop-color:#000000"/>
		<stop  offset="1" style="stop-color:#0D0D0D"/>
	</linearGradient>
	<use xlink:href="#SVGID_29_"  style="overflow:visible;fill-rule:evenodd;clip-rule:evenodd;fill:url(#SVGID_30_);"/>
	<clipPath id="SVGID_31_">
		<use xlink:href="#SVGID_29_"  style="overflow:visible;"/>
	</clipPath>
	<g class="st8">
		<defs>
			<rect id="SVGID_32_" x="-655.9" y="-523.9" width="1528.9" height="1080.4"/>
		</defs>
		<linearGradient id="SVGID_33_" gradientUnits="userSpaceOnUse" x1="-655.9293" y1="16.3011" x2="872.985" y2="16.3011">
			<stop  offset="0" style="stop-color:#000000"/>
			<stop  offset="1" style="stop-color:#0D0D0D"/>
		</linearGradient>
		<use xlink:href="#SVGID_32_"  style="overflow:visible;fill:url(#SVGID_33_);"/>
		<clipPath id="SVGID_34_">
			<use xlink:href="#SVGID_32_"  style="overflow:visible;"/>
		</clipPath>
		<linearGradient id="SVGID_35_" gradientUnits="userSpaceOnUse" x1="484.5133" y1="52.0373" x2="568.6881" y2="52.0373">
			<stop  offset="0" style="stop-color:#000000"/>
			<stop  offset="1" style="stop-color:#0D0D0D"/>
		</linearGradient>
		<rect x="484.5" y="5.1" class="st9" width="84.2" height="93.8"/>
	</g>
</g>
<g>
	<defs>
		<path id="SVGID_36_" d="M158.3,61.2c10.6-3,18.1-10.5,18.1-22.9v-0.2c0-6.6-2.3-12.2-6.3-16.3c-4.9-4.8-12.3-7.6-21.9-7.6h-33.8
			v75.7h9.6h3.7v-8.4v-18v-2.3V26.3h19.4c1.7,0,3.2,0.2,4.6,0.4c7,1.2,11.1,5.4,11.1,12.1v0.2c0,7.7-6.1,12.6-15.6,12.6h-7.4
			l-5.2,11.8h1h8.8l18.6,26.4h15.7L158.3,61.2z"/>
	</defs>
	<linearGradient id="SVGID_37_" gradientUnits="userSpaceOnUse" x1="114.4856" y1="52.0333" x2="178.7747" y2="52.0333">
		<stop  offset="0" style="stop-color:#000000"/>
		<stop  offset="1" style="stop-color:#0D0D0D"/>
	</linearGradient>
	<use xlink:href="#SVGID_36_"  style="overflow:visible;fill-rule:evenodd;clip-rule:evenodd;fill:url(#SVGID_37_);"/>
	<clipPath id="SVGID_38_">
		<use xlink:href="#SVGID_36_"  style="overflow:visible;"/>
	</clipPath>
	<g class="st10">
		<defs>
			<rect id="SVGID_39_" x="-655.9" y="-523.9" width="1528.9" height="1080.4"/>
		</defs>
		<linearGradient id="SVGID_40_" gradientUnits="userSpaceOnUse" x1="-655.9293" y1="16.3011" x2="872.985" y2="16.3011">
			<stop  offset="0" style="stop-color:#000000"/>
			<stop  offset="1" style="stop-color:#0D0D0D"/>
		</linearGradient>
		<use xlink:href="#SVGID_39_"  style="overflow:visible;fill:url(#SVGID_40_);"/>
		<clipPath id="SVGID_41_">
			<use xlink:href="#SVGID_39_"  style="overflow:visible;"/>
		</clipPath>
		<linearGradient id="SVGID_42_" gradientUnits="userSpaceOnUse" x1="105.4065" y1="52.0333" x2="187.8538" y2="52.0333">
			<stop  offset="0" style="stop-color:#000000"/>
			<stop  offset="1" style="stop-color:#0D0D0D"/>
		</linearGradient>
		<rect x="105.4" y="5.1" class="st11" width="82.4" height="93.8"/>
	</g>
</g>
</svg>
