<?xml version="1.0" encoding="utf-8"?>
<!-- Generator: Adobe Illustrator 20.1.0, SVG Export Plug-In . SVG Version: 6.00 Build 0)  -->
<svg version="1.1" id="Layer_1" xmlns="http://www.w3.org/2000/svg" xmlns:xlink="http://www.w3.org/1999/xlink" x="0px" y="0px"
	 viewBox="0 0 256.5 46.3" style="enable-background:new 0 0 256.5 46.3;" xml:space="preserve">
<style type="text/css">
	.st0{fill:#20252D;}
</style>
<g>
	<path class="st0" d="M30.3,12.9c-0.6-0.9-1.3-1.7-2.2-2.4c-0.9-0.7-1.9-1.2-2.9-1.6c-1.1-0.4-2.2-0.6-3.4-0.6
		c-2.2,0-4.1,0.4-5.6,1.3c-1.5,0.8-2.8,2-3.7,3.4c-1,1.4-1.6,3-2.1,4.9c-0.4,1.8-0.7,3.7-0.7,5.6s0.2,3.7,0.7,5.4
		c0.4,1.8,1.1,3.3,2.1,4.7c1,1.4,2.2,2.5,3.7,3.4c1.5,0.8,3.4,1.3,5.6,1.3c3,0,5.3-0.9,7-2.7c1.7-1.8,2.7-4.2,3.1-7.2h9.4
		c-0.2,2.8-0.9,5.3-1.9,7.5S37,40,35.3,41.6c-1.7,1.6-3.7,2.8-6,3.6s-4.8,1.2-7.5,1.2c-3.4,0-6.4-0.6-9.1-1.8s-5-2.8-6.9-4.9
		c-1.9-2.1-3.3-4.5-4.3-7.3S0,26.6,0,23.4c0-3.3,0.5-6.4,1.5-9.2s2.4-5.3,4.3-7.4s4.1-3.8,6.9-5C15.3,0.6,18.4,0,21.8,0
		c2.4,0,4.7,0.4,6.9,1.1s4.1,1.7,5.8,3.1c1.7,1.3,3.1,3,4.2,5c1.1,2,1.8,4.3,2.1,6.8h-9.4C31.3,14.8,30.9,13.8,30.3,12.9z"/>
	<path class="st0" d="M42.7,22.4c0.8-2.1,1.9-3.9,3.3-5.3c1.4-1.5,3.2-2.6,5.2-3.4c2-0.8,4.3-1.2,6.8-1.2s4.8,0.4,6.9,1.2
		c2,0.8,3.8,1.9,5.2,3.4c1.4,1.5,2.6,3.2,3.3,5.3c0.8,2.1,1.2,4.4,1.2,7s-0.4,4.9-1.2,6.9c-0.8,2.1-1.9,3.8-3.3,5.3
		s-3.2,2.6-5.2,3.4c-2,0.8-4.3,1.2-6.9,1.2c-2.5,0-4.8-0.4-6.8-1.2s-3.8-1.9-5.2-3.4s-2.6-3.2-3.3-5.3c-0.8-2.1-1.2-4.4-1.2-6.9
		C41.5,26.8,41.9,24.4,42.7,22.4z M50.7,33.1c0.2,1.2,0.7,2.3,1.3,3.3s1.4,1.7,2.4,2.3s2.2,0.9,3.7,0.9s2.7-0.3,3.8-0.9
		c1-0.6,1.8-1.4,2.4-2.3c0.6-1,1-2.1,1.3-3.3c0.2-1.2,0.4-2.5,0.4-3.8s-0.1-2.5-0.4-3.8c-0.2-1.2-0.7-2.3-1.3-3.3
		c-0.6-1-1.4-1.7-2.4-2.3c-1-0.6-2.3-0.9-3.8-0.9s-2.7,0.3-3.7,0.9s-1.8,1.4-2.4,2.3c-0.6,1-1,2-1.3,3.3c-0.2,1.2-0.4,2.5-0.4,3.8
		C50.3,30.6,50.4,31.9,50.7,33.1z"/>
	<path class="st0" d="M76,8.3V1.1h8.8v7.3H76V8.3z M84.8,13.3v32.1H76V13.3H84.8z"/>
	<path class="st0" d="M95.9,13.3v4.5h0.2c1.1-1.9,2.6-3.2,4.3-4.1c1.8-0.8,3.6-1.3,5.5-1.3c2.4,0,4.3,0.3,5.8,1
		c1.5,0.6,2.7,1.5,3.6,2.7c0.9,1.1,1.5,2.5,1.8,4.2c0.4,1.6,0.5,3.4,0.5,5.4v19.7h-8.8V27.2c0-2.6-0.4-4.6-1.2-5.9
		c-0.8-1.3-2.3-2-4.4-2c-2.4,0-4.1,0.7-5.2,2.1s-1.6,3.8-1.6,7v16.8h-8.8V13.3H95.9z"/>
	<path class="st0" d="M138.8,1.1c2.9,0,5.5,0.5,8,1.4s4.6,2.3,6.4,4.1c1.8,1.8,3.2,4.1,4.2,6.8s1.5,5.9,1.5,9.6
		c0,3.2-0.4,6.2-1.2,8.9s-2.1,5.1-3.8,7.1s-3.8,3.5-6.3,4.7c-2.5,1.1-5.4,1.7-8.8,1.7h-19.1V1.1H138.8z M138.1,37.1
		c1.4,0,2.8-0.2,4.1-0.7s2.5-1.2,3.5-2.3s1.9-2.4,2.5-4.1s0.9-3.8,0.9-6.2c0-2.2-0.2-4.2-0.7-6c-0.4-1.8-1.1-3.3-2.1-4.6
		s-2.3-2.3-3.9-2.9s-3.6-1-6-1h-6.9v27.9L138.1,37.1L138.1,37.1z"/>
	<path class="st0" d="M171,37.6c1.3,1.3,3.2,1.9,5.7,1.9c1.8,0,3.3-0.4,4.6-1.3c1.3-0.9,2.1-1.8,2.4-2.8h7.8
		c-1.2,3.8-3.1,6.6-5.7,8.2c-2.6,1.7-5.7,2.5-9.3,2.5c-2.5,0-4.8-0.4-6.8-1.2s-3.7-2-5.1-3.4c-1.4-1.5-2.5-3.3-3.3-5.3
		c-0.8-2.1-1.1-4.3-1.1-6.8c0-2.4,0.4-4.6,1.2-6.7s1.9-3.9,3.3-5.4c1.4-1.5,3.2-2.7,5.2-3.6c2-0.9,4.2-1.3,6.7-1.3
		c2.7,0,5.1,0.5,7.1,1.6s3.7,2.5,5,4.2c1.3,1.8,2.2,3.8,2.8,6.1s0.8,4.6,0.6,7.1H169C168.9,34.3,169.7,36.4,171,37.6z M180.9,20.8
		c-1.1-1.2-2.7-1.7-4.8-1.7c-1.4,0-2.6,0.2-3.5,0.7s-1.7,1.1-2.2,1.8c-0.6,0.7-1,1.4-1.2,2.2c-0.2,0.8-0.4,1.5-0.4,2.1h14.3
		C182.7,23.6,182,21.9,180.9,20.8z"/>
	<path class="st0" d="M201.4,37.4c0.4,0.7,0.9,1.2,1.5,1.7s1.3,0.8,2.1,1s1.6,0.3,2.5,0.3c0.6,0,1.3-0.1,2-0.2
		c0.7-0.1,1.3-0.4,1.9-0.7c0.6-0.3,1-0.7,1.4-1.2s0.6-1.2,0.6-2c0-1.3-0.9-2.3-2.6-3s-4.2-1.3-7.3-2c-1.3-0.3-2.5-0.6-3.8-1
		c-1.2-0.4-2.3-0.9-3.3-1.6c-1-0.6-1.7-1.4-2.3-2.4s-0.9-2.2-0.9-3.6c0-2.1,0.4-3.8,1.2-5.1c0.8-1.3,1.9-2.4,3.2-3.1
		c1.3-0.8,2.8-1.3,4.5-1.6s3.3-0.5,5.1-0.5c1.7,0,3.4,0.2,5.1,0.5c1.6,0.3,3.1,0.9,4.4,1.7c1.3,0.8,2.3,1.8,3.2,3.1
		c0.8,1.3,1.4,2.9,1.5,4.9H213c-0.1-1.7-0.8-2.8-1.9-3.4c-1.2-0.6-2.5-0.9-4.1-0.9c-0.5,0-1,0-1.6,0.1s-1.1,0.2-1.6,0.4
		c-0.5,0.2-0.9,0.5-1.2,0.9s-0.5,0.9-0.5,1.6c0,0.8,0.3,1.4,0.9,1.9c0.6,0.5,1.3,0.9,2.3,1.2c0.9,0.3,2,0.6,3.2,0.8
		c1.2,0.2,2.4,0.5,3.7,0.8s2.5,0.6,3.8,1.1c1.2,0.4,2.3,1,3.3,1.6c1,0.7,1.7,1.5,2.3,2.5s0.9,2.3,0.9,3.8c0,2.1-0.4,3.9-1.3,5.3
		c-0.8,1.4-2,2.6-3.3,3.4s-2.9,1.5-4.7,1.8s-3.5,0.5-5.4,0.5s-3.7-0.2-5.5-0.6c-1.8-0.4-3.4-1-4.7-1.9c-1.4-0.9-2.5-2-3.4-3.4
		s-1.4-3.2-1.5-5.4h8.4C200.8,35.9,201,36.7,201.4,37.4z"/>
	<path class="st0" d="M233.7,1.1v23.7l11.1-11.5h10.4L243.1,25l13.5,20.3h-10.7L237.1,31l-3.4,3.3v11h-8.8V1.1H233.7z"/>
</g>
</svg>
