<?xml version="1.0" encoding="utf-8"?>
<!-- Generator: Adobe Illustrator 21.1.0, SVG Export Plug-In . SVG Version: 6.00 Build 0)  -->
<svg version="1.1" id="Layer_1" xmlns="http://www.w3.org/2000/svg" xmlns:xlink="http://www.w3.org/1999/xlink" x="0px" y="0px"
	 viewBox="0 0 1124.1 345" style="enable-background:new 0 0 1124.1 345;" xml:space="preserve">
<style type="text/css">
	.st0{fill:#5F5F5F;}
</style>
<title>Asset 1</title>
<g id="Layer_2">
	<g id="Layer_1-2">
		<path class="st0" d="M856.6,342h-56.2c-0.7-4.5-0.4-5.1,3.5-6.2c5.8-1.7,7.5-3.4,7.6-9.4c0.1-21.6,0.2-43.2-0.1-64.9
			c-0.1-6.8-2.3-13.4-9.2-15.9c-7.7-2.8-15.4-1.4-21.3,4.6c-5,5.1-8.2,11.1-8,18.8c0.6,17.9,0.6,35.8,0.9,53.7c0,1.5,0.3,3,0.4,4.5
			c0.2,4.9,2.4,7.8,7.6,8.5c3.7,0.5,4.1,1.5,3.3,6.2h-52c-0.5-3.1,0.9-5.2,3.6-5.9c7.1-1.8,9-6.4,8.9-13.3
			c-0.3-19-0.1-37.9-0.2-56.9c-0.1-2.9-0.5-5.7-1.3-8.5c-3.3-13.6-14.2-15.3-24-11c-9.5,4.2-13.9,12.6-14,22.6
			c-0.1,19.5,0.7,39,0.9,58.5c0,3.6,1.9,5.7,5,7c1.4,0.6,2.8,1.1,4.1,1.7c2.4,0.8,3.8,3.3,3.1,5.8h-56.3c-1-4.9-0.6-5.5,4.2-5.9
			c8.4-0.6,11.1-2.7,11.4-11c0.6-20.2,0.7-40.5,0.8-60.7c0-4.9-0.4-9.8-0.8-14.7c-0.5-5.9-3.7-8.9-9.5-9.6c-1.3-0.1-2.5-0.3-3.8-0.3
			c-2.1-0.1-2.7-1.3-2.7-3.2s1-2.7,2.9-2.9c11.5-1.4,23-2.9,34.5-4.5c2.7-0.4,4.3,0.2,4.5,3.2c0.2,4.8,0.4,9.6,0.7,14.6
			c0.7-0.5,1.4-0.9,1.9-1.4c1.5-1.4,3.1-2.6,4.4-4.1c10.5-11.4,23.9-13.1,38.2-11c6.3,0.9,11,5,14.7,10c1.9,2.7,3.6,5.5,5.6,8.4
			c0.8-0.7,1.5-1.2,2.2-1.9c2.4-2.2,4.8-4.5,7.2-6.8c10.4-9.9,22.9-12,36.5-9.9c10.6,1.7,20.7,12.9,22,25c0.9,8.9,1.1,17.8,1.3,26.8
			c0.3,13.4,0.4,26.8,0.7,40.2c0.2,8.5,3.2,11.9,11.5,13.4C855.6,336.6,856,337,856.6,342z"/>
		<path class="st0" d="M0.3,342c-0.8-4.8-0.4-5.4,3.8-6.2c2.2-0.4,4.4-0.8,6.5-1.5c6.3-1.8,8.3-4,8.6-10.6c0.5-10.3,1-20.6,1.1-31
			c0-27-0.2-53.9-0.5-80.9c-0.1-4-0.6-8-1.4-12c-0.4-3.9-3.5-6.9-7.4-7.3c-2.2-0.4-4.4-0.8-6.6-1.3c-4.6-1-4.9-1.6-4.3-6.6h101.4
			v32.9l-8.1,0.8c-0.5-2.8-0.8-5.4-1.3-7.9c-1.5-7.8-5.6-12.1-13.3-12.8c-9.4-0.8-18.9-0.9-28.5-1.3V254c10.2,1.5,20.2,2.4,30.4,0.1
			c4.3-0.9,7.1-3.3,8.1-7.6c0.4-1.9,1-3.7,1.3-5.6c1.2-6.1,1.7-6.5,8.4-5.6c0.1,0.9,0.2,1.8,0.2,2.7c0,14.7,0,29.4-0.2,44.1
			c0,1.4,0.6,3.4-1.8,3.2c-2.2-0.1-5,0.9-5.9-2.2c-0.5-1.8-0.9-3.7-1.2-5.6c-1.1-5.6-4.1-9.4-10-10c-9.6-0.9-19.3-1.5-29.2-2.2
			c-0.1,1.6-0.2,2.6-0.2,3.6c0.2,16.2,0.4,32.4,0.7,48.6c0.2,11.1,2.4,13.3,13.5,13c6.3-0.1,12.6,0,18.8-0.9
			c10.9-1.5,17.1-8.2,18.8-19.1c1-6.5,1-6.4,7.7-6.2c2.6,0.1,3.2,0.9,2.8,3.5c-1.5,10.2-2.8,20.5-4.1,30.7c-0.3,2.6-1.3,3.8-3.9,3.8
			c-13.3,0.1-26.6,0.3-39.9,0.3c-19.8-0.1-39.6-0.4-59.4-0.5C3.4,342.2,1.8,342.1,0.3,342z"/>
		<path class="st0" d="M423,229.3l1.4,17.8c0.6-0.4,1.2-0.8,1.8-1.4c1.2-1,2.4-2.2,3.5-3.3c9.7-11.2,22.3-13.6,36.2-12.3
			c9.4,0.9,16.1,6.1,21.2,13.7c4.1,6.1,5.2,12.9,5.4,20.1c0.4,20.4,0.8,40.9,1.3,61.3c0.1,5.8,2.3,8.5,7.9,10
			c1.5,0.4,3.1,0.8,4.7,1.1c3.1,0.5,4.4,2.3,3.9,5.6h-56.4c-1-4-0.6-5.3,3.1-6.1c6.1-1.3,8.3-5.2,8.6-10.9c1.4-20.4,2-40.8-0.2-61.2
			c-0.3-2-0.7-4-1.2-5.9c-2.7-11.2-8.8-15-21.4-12.7c-8.8,1.6-16.5,10.4-16.7,19.9c-0.5,20.1-0.2,40.2-0.1,60.4
			c0,5,2.4,8.6,7.6,10.2c4,1.2,4.4,2.1,5.1,5.8c-19,1.2-37.8,0.7-56.5,0.8c-1.1-5-0.6-5.7,4-6.1c8.5-0.6,11.4-3.2,11.5-11.6
			c0.3-23.5,0.3-47.1,0.5-70.6c-0.1-1.4-0.2-2.8-0.4-4.1c-0.6-5.5-3.8-8.9-9.4-9.6c-1.5-0.2-3-0.3-4.5-0.4c-1.3,0-2.3-0.9-2.3-2.2
			c0-0.3,0-0.6,0.2-0.9c0.3-1.1,1.4-2.6,2.2-2.7C396.9,232.3,409.7,230.8,423,229.3z"/>
		<path class="st0" d="M563.8,0v59.6c1.6-1.5,2.6-2.3,3.5-3.2c9.4-8.8,20.5-12.5,33.4-10.8c12.4,1.7,22.1,12.9,22.7,26.9
			c0.4,9.6,0.5,19.2,0.8,28.7s0.6,19.4,1.2,29c0.5,8.3,2.3,9.9,10.6,11.2c4,0.6,4.4,1.1,3.7,5.4h-50.5c-0.9-3.9-0.4-5.1,3.2-6
			c5.4-1.2,7.5-4.5,7.5-9.8c0.1-16,0.5-31.9,0.4-47.9c-0.2-4-0.8-8.1-1.7-12c-2-9.9-6.3-14.5-19.8-11.7c-7.8,1.8-13.5,8.4-14,16.4
			c-0.6,13.9-0.6,27.9-0.8,41.8c0,4.9,0.1,9.8,0.4,14.7c0.2,4.5,2.9,7.1,7,8.4c0.8,0.2,2,0.3,2.3,0.9c0.7,1.2,1.2,2.6,1.3,4
			c0,0.4-1.7,1.4-2.5,1.4c-15.1-0.1-30.2-0.2-45.4-0.5c-1,0-2-0.8-3-1.2c0.7-1,1.1-2.5,2-2.9c1.9-0.9,4-1.4,6.1-1.7
			c3.1-0.4,5-2,5.4-5c0.7-3.8,1.1-7.6,1.3-11.4c0.3-32.5,0.4-65,0.5-97.4c0-2.3-0.1-4.7-0.4-7c-0.7-5.5-3.4-8.4-8.8-9.5
			c-1.4-0.2-2.7-0.6-3.9-1.2c-1-0.7-1.6-2-2.4-3.1c1-0.5,1.9-1.4,2.9-1.5c4.8-0.6,9.8-0.9,14.6-1.5c6.4-0.9,12.8-2,19.2-2.9
			C561.7,0.2,562.6,0.1,563.8,0z"/>
		<path class="st0" d="M356.7,287.9c-0.2,12.9-3.5,24.9-11.1,35.4c-12.3,17.1-29.8,22.9-49.8,21.2c-27.8-2.4-45.7-21.7-47.8-49.6
			c-0.9-12.4,0-24.5,5.1-36c7.9-17.9,22.1-27.2,41.3-29.3c10.4-1.1,20.5,0,30,4.2c18.6,8.2,27.9,23.4,31.2,42.9
			C356.3,280.5,356.4,284.2,356.7,287.9z M275.2,282.3c1.1,8.7,1.8,16.8,3.2,24.7c1.5,8.6,4.6,16.6,11,23c9.8,9.6,24.9,8,32.1-3.7
			c2-3.4,3.6-7,4.5-10.8c3.3-12.6,3.2-25.5,1.6-38.4c-1.3-10-4.1-19.6-10.4-27.8c-5.8-7.4-13.1-12.3-22.9-10.2s-14.9,9.7-16.6,19
			C276.3,266.3,276,274.6,275.2,282.3L275.2,282.3z"/>
		<path class="st0" d="M528.4,288.6c0.2-13.6,2.3-25.6,9.1-36.3c8.7-13.7,21.4-21,37.4-22.5c10.3-0.9,20.5-0.2,30.1,3.9
			c18.1,7.8,27.6,22.3,31.3,41.1c2.6,13,1.2,26.6-4.2,38.8c-8,18.5-22.8,28.3-42.6,30.7c-11.6,1.4-22.8,0.1-33.2-5.4
			c-17.4-9.1-25.4-24.4-27.5-43.3C528.5,292.9,528.5,290.2,528.4,288.6z M609.4,292.7l0.9-0.1c-1.4-8.9-2.2-17.9-4.3-26.7
			c-2.3-9.8-7-18.6-16-24.1c-9.1-5.8-21.1-3.2-27,5.9c-0.1,0.1-0.1,0.2-0.2,0.3c-2.1,3.4-3.6,7.2-4.4,11.2
			c-2.9,13.7-2.2,27.5-0.4,41.3c1.2,9,3.4,17.8,8.6,25.5c5.8,8.6,14.6,11.9,24.5,9.4c7.9-2,11.7-8.2,14.3-15.1
			C608.8,311.3,609.4,302,609.4,292.7L609.4,292.7z"/>
		<path class="st0" d="M447.5,14.2c-9.5,1-18.6,1.9-27.8,3.1c-6,0.8-9.6,4.3-10,10.5c0,0.3-0.1,0.6-0.2,0.9
			c-1.1,7.6-1.7,8.1-9.8,7.3c0.2-2.3,0.5-4.6,0.6-6.9c0.3-7.3,0.6-14.7,0.7-22c0-1.8,0.4-2.7,2.5-2.7c38.6,0.1,77.1,0.1,115.7,0.1
			c0.4,0,0.9,0.1,1.3,0.2V36c-0.6,0.1-1,0.2-1.4,0.2c-6.3,0.3-6.3,0.3-6.8-5.9c-0.6-8.4-3.9-12.3-12.1-13.4s-16.4-1.7-24.8-2.6
			c-0.1,1.5-0.2,2.4-0.2,3.4c0,31.6,0,63.3,0.1,94.9c0,5,0.3,10,0.5,15c0.4,8.3,4.4,12.4,12.7,13.1c5,0.4,5.4,1,4.4,6.4h-63
			c-0.5-4.7,0.1-5.5,4.3-6.2c0.8-0.1,1.7-0.4,2.5-0.5c8.5-1.7,9.9-3.2,10.2-11.8c0.4-11.5,0.6-23,0.7-34.5c0.1-25.3,0-50.7,0-76.1
			C447.7,16.9,447.6,15.9,447.5,14.2z"/>
		<path class="st0" d="M740.2,92.1H736c-18.3,0-36.6,0.1-55-0.1c-3.1,0-3.7,1-3.7,3.8c0.2,9.6,2.5,19.1,6.9,27.6
			c6.2,11.8,17.7,16.5,30.5,12.5c6.1-2,11.6-5.4,16.2-9.8c1.5-1.4,3.1-2.9,4.7-4.3c3,3.6,3.3,6.4,0.7,9.4
			c-14.6,16.9-34.6,22.4-54.4,15.2c-13.2-4.8-22-14.5-26.5-27.7c-5.5-16.3-4.1-32.4,3.1-47.9c8.1-17.3,24-26,43.1-25.6
			c24.7,0.5,35.8,20,37.5,36.7C739.6,85.1,739.9,88.2,740.2,92.1z M717,80.8c-0.4-7.7-3.1-13.6-6.3-19.5
			c-5.1-9.4-22.3-12.3-28.6,0.9c-2,4.3-3.2,8.9-4.6,13.5c-0.6,2.5-1,5-1.2,7.6L717,80.8z"/>
		<path class="st0" d="M1029,256.7c-2.8,0.2-4.8,0.4-6.8,0.5c-4.8,0.3-5.2,0-6.9-4.7c-0.4-1.1-0.9-2.2-1.2-3.3
			c-3.3-11-11.1-12.9-20.9-10.2c-10.8,3-13.6,15.1-5.4,22.9c3.4,3,7,5.9,10.7,8.6c6.5,5,13.1,9.9,19.6,14.8
			c11.6,8.8,15.3,20.5,11.5,34.2c-3.7,13.2-13.3,20.7-26.3,23.9c-13.2,3.3-25.7-0.2-38-4.7c-1.2-0.4-2.2-2.6-2.3-4
			c-0.4-4.9-0.3-9.8-0.3-14.7c0-1.9-0.3-4.3,2.4-5c3-0.7,6.1-1.6,8.7,1.1c0.8,1,1.5,2,2.1,3.2c0.8,1.5,1.5,3.1,2.1,4.6
			c4.9,12.5,13.8,12.3,25.4,8.3c6.1-2.1,8.4-10,5.2-15.6c-2.1-3.6-4.8-6.8-7.9-9.5c-5.3-4.5-11.2-8.4-16.8-12.7
			c-3.8-2.8-7.5-5.9-11-9.2c-11.3-11.2-12.4-32.1-2.5-44.6c5.7-7.2,13.5-10.2,22.3-11c10.9-1,21.8,0.3,32.1,3.9
			c1.4,0.5,3.2,2.3,3.4,3.6C1028.7,243.7,1028.8,250.1,1029,256.7z"/>
		<path class="st0" d="M1093.5,204.3c0,5.4,0,10.1,0,14.9s0,9.4,0,14.5h27.5l-2.8,12.8h-24.6c-0.1,1.3-0.2,2.3-0.2,3.3
			c0.2,20.2,0.5,40.5,0.7,60.7c0.1,2.9,0.3,5.7,0.7,8.6c1.1,8.8,7.6,14,16.8,13.3c4-0.3,8-0.9,12-1.4c1.2,4.3,0.2,6.6-3.5,8.4
			c-9.2,4.4-19.1,5.4-29,4.7c-11-0.8-21.2-11-22-22.4c-1.1-15.7-1.4-31.5-1.9-47.2c-0.2-8-0.2-16-0.2-24c0-1.1,0-2.3,0-3.8h-13.3
			c0-3.5-0.2-6.6,0.1-9.7c0.1-0.8,1.7-1.9,2.7-1.9c9.5-0.7,16.4-5.2,20.2-13.9c2.1-4.7,3.4-9.8,5.2-14.7c0.3-0.9,1.3-2,2.1-2.1
			C1086.9,204.2,1090,204.3,1093.5,204.3z"/>
		<path class="st0" d="M221.4,317.8c0.2,0.2,0.4,0.4,0.6,0.6c4,8.2,3.8,8.3-3,14.4c-22.4,19.9-52.3,12.8-66-3.4
			c-7.4-8.8-11.1-19-12.5-30.2c-1.7-13.4-1-26.6,4.1-39.3c7.8-19.1,22.3-29.2,43-30.2c11-0.6,21.6,1.2,32.2,4c1.1,0.5,1.8,1.4,2,2.6
			c0.1,7.2-0.1,14.5-0.2,21.7c0,2.4-1,3.4-3.4,3.6c-6.9,0.6-6,2.3-8.3-5.5c-0.9-3.4-2.1-6.7-3.5-9.9c-2.2-4.9-6.3-7.3-11.6-7.8
			c-10.9-1.1-19.2,3.8-23.3,14c-4.5,11.1-4.7,22.9-4.2,34.6c0.4,9.6,1.6,19.1,5.5,28c5.6,12.9,15.7,18.6,28.2,15.8
			c6.1-1.5,11.8-4.6,16.3-9C218.7,320.4,220,319.2,221.4,317.8z"/>
		<path class="st0" d="M919.7,228.6c0,10.9-0.1,21.4,0,32c0.3,20.4,0.8,40.9,1.2,61.3c0,1.2,0.2,2.3,0.4,3.5
			c1.5,8.3,2.6,9.4,10.9,10.6c2.8,0.4,5.3,1,5,5.6c-20.1,1-40.4,0.9-60.6-0.1c-0.4-3.3,1.2-4.3,3.1-4.9c1.8-0.5,3.7-0.9,5.6-1.1
			c3.9-0.5,6.2-2.9,6.7-6.6c0.8-6.9,1.8-13.8,1.8-20.6c-0.1-18.8-0.6-37.7-1.2-56.5c-0.2-7.8-3.2-10.7-11-11.7c-1.1,0-2.1-0.3-3-0.9
			c-0.9-1.1-1.7-2.3-2.4-3.6c1-0.5,2-1.4,3.2-1.5c11-1.5,21.9-2.8,32.9-4.2C914.5,229.5,916.8,229,919.7,228.6z"/>
		<path class="st0" d="M905.7,177.4c8.4,0.1,15.2,7,15.1,15.4c0.1,8.2-6.4,15-14.6,15.1c-0.1,0-0.2,0-0.3,0
			c-8.2-0.1-14.8-6.6-15-14.8C890.9,184.6,897.7,177.3,905.7,177.4z"/>
	</g>
</g>
</svg>
