<svg data-name="Layer 1" xmlns="http://www.w3.org/2000/svg" viewBox="0 0 76.71 24.14"><path d="M0 19.94h1.16a1.24 1.24 0 0 0 1-1V5.54a1.2 1.2 0 0 0-1-1H0V.21h12.24v4.38h-1.18a1.21 1.21 0 0 0-.92 1v13.4a1.25 1.25 0 0 0 .92 1h1.2v4.2H0v-4.2zm16.06-.04h1a1.24 1.24 0 0 0 1-1V5.51a1.2 1.2 0 0 0-1-1h-1V.21h11.59c6.39 0 9.81 2 9.81 6.19 0 3-1.74 4.41-4.75 5.13v.14c3.52.55 5.47 2.36 5.47 5.61 0 4.61-4 6.87-10.43 6.87H16.06v-4.24zm9.79-10.09h1.21c1.91 0 2.67-.89 2.67-2.56s-.72-2.53-2.63-2.53h-1.27v5.09zm1.37 9.91c2.12 0 2.9-1 2.9-2.94s-.79-2.8-2.9-2.8h-1.37v5.74h1.37zm17.71.09h1.13a1.24 1.24 0 0 0 1-1V4.64h-2l-.51 4.41H39.8v-9h22.35v9h-4.72l-.55-4.41h-1.82v14.17a1.24 1.24 0 0 0 1 1h1v4.2H44.93v-4.2z" fill="#221f1f"/><path fill="#7ec242" d="M74.79 24.01H64.68l1.92-10.99h10.11l-1.92 10.99z"/><path d="M64.91 1.81a1.78 1.78 0 1 1 1.78 1.78 1.77 1.77 0 0 1-1.78-1.78zm3.26 0A1.49 1.49 0 0 0 66.68.29a1.52 1.52 0 1 0 1.5 1.52zm-2.11-1h.72a.61.61 0 0 1 .73.59.53.53 0 0 1-.39.55l.42.8h-.48l-.39-.76h-.33v.76h-.28V.81zm.7.91c.25 0 .39-.08.39-.3s-.14-.29-.39-.29h-.33v.58h.34z" fill="#010101"/></svg>