<svg id="Layer_1" xmlns="http://www.w3.org/2000/svg" viewBox="0 0 1227.6 351.8"><style>.st0{fill:#093356}.st1{fill:#fff}</style><path class="st0" d="M1227.6 307.5c-1.5.3-2.8 1-4.1 1.6-7.3 3.2-14.5 6.4-21.7 9.6l-1.5.6c-.4.1-.6-.1-.7-.4-.1-.7-.1-1.4-.1-2.1v-50.4c0-.6-.3-.9-.9-.8-1.6.2-3.1.4-4.7.5-8.4 1-16.8 1.2-25.2.3-7.5-.8-14.8-2.5-21.9-5.3-7.6-3-14.2-7.6-19.6-13.9-5.8-6.7-9.6-14.5-12.1-22.9-2.8-9.6-3.6-19.4-3-29.4.5-8.6 2.4-16.9 5.9-24.8 5.3-11.8 13.7-20.5 25.4-26.1 5.8-2.8 12-4.6 18.4-5.7 3.7-.7 7.5-1 11.2-1.3 9.3-.7 18.7-.4 28 .2l11.1.6c4.5.2 8.9.4 13.4.7.7 0 1.4-.1 2.1.4v168.6zm-687.9-80.8V101.5c0-3.9-.4-3.4 3.4-3.4h21.7c1.2 0 1.3.2 1.3 1.4v161.1c0 3.4.3 3-3 3h-31.4c-2.7 0-2.1.3-3.5-2-5.6-9.8-11.3-19.6-16.9-29.4-6.6-11.6-13.3-23.2-19.9-34.7-7.7-13.4-15.3-26.7-23-40.1l-12.9-22.5c-.2-.3-.4-.6-.6-1-.6.1-.4.6-.5 1v115.5c0 3.7 0 7.4-.1 11.1v1.2c0 .5-.3.9-.9.9h-23.6c-1.5 0-1.6-.1-1.6-1.6V101.4c0-3.8-.5-3.3 3.2-3.3h32.3c.7 0 1.2.3 1.5.9 1.4 2.5 2.8 4.9 4.3 7.3 9.8 16.9 19.6 33.9 29.3 50.8 9.1 15.8 18.2 31.6 27.3 47.3 4 6.9 7.9 13.7 11.9 20.6.5.6.7 1.2 1.7 1.7zm415.8-51.1V260c0 3.6.5 3-3.1 3.5-5.5.9-11 1.6-16.6 2.2-11 1.3-22.1 2.1-33.2 1.6-9.7-.5-19.2-2.5-28.1-6.5-11.7-5.3-20.8-13.4-26.9-24.7-3.5-6.6-5.7-13.6-6.8-21-.7-4.8-1-9.5-.9-14.3.2-7.2 1.1-14.2 3.1-21.2 2.3-8.1 5.9-15.5 11.3-22.1 4.8-5.9 10.7-10.6 17.5-14.1 6.9-3.5 14.3-5.5 22.1-6.4 6.5-.7 13-.6 19.5-.4 3.9.1 7.8.4 11.7.9.4 0 .8.1 1.2.1 1.2.1 1.3 0 1.4-1.3V91c0-.8 0-1.6.1-2.4 0-.3.3-.6.6-.6h25.9c.9.1 1 .2 1.1 1.2v2.1c.1 28.2.1 56.3.1 84.3zm-255.3 42.7v42.2c0 .8.3 1.6-.2 2.3-.5.7-1.5.4-2.2.5-1.9.3-3.9.5-5.8.7-8.4.7-16.8 1.4-25.2 1.7-8.5.3-17 .4-25.5.3-7.2 0-14.3-.5-21.3-2-6-1.3-11.8-3.3-16.9-6.9-5.1-3.6-8.7-8.4-10.9-14.2-1.7-4.4-2.5-8.9-2.9-13.5-.3-3.6-.3-7.2.2-10.8.8-7.2 3.3-13.7 8.2-19.2 3.5-3.9 7.7-6.6 12.5-8.7 5.1-2.2 10.4-3.5 15.8-4.4 10.1-1.6 20.3-1.7 30.6-1.5 4.4.1 8.8.3 13.2.5h1.9c.3 0 .6-.2.6-.6 0-.2.1-.3.1-.5 0-4.6-.1-9.3-.8-13.9-.2-1.4-.7-2.7-1.3-4-1.1-2.5-2.9-4.2-5.3-5.5-2.6-1.3-5.3-2-8.1-2.3-7.8-1-15.7-1.1-23.5-.7-6.4.3-12.8 1.2-19.2 2.1-4.9.7-9.8 1.7-14.6 2.5-.4.1-.8.1-1.2.2-.6.1-.8-.1-.9-.8V142.7c0-.5 0-.9.1-1.4 0-.3.2-.6.6-.7.3-.1.6-.1.9-.2 7.2-1.5 14.4-2.6 21.6-3.3 8.3-.9 16.6-1.2 24.9-1.1 7.6.1 15.2.3 22.8 1.7 6.2 1.1 12.2 2.9 17.5 6.5 5 3.4 8.5 7.9 10.8 13.4 1.8 4.5 2.8 9.1 3.2 14 .3 3.4.3 6.7.3 10.1.1 12.2 0 24.4 0 36.6zm388.8-1.5v45c0 1.1-.2 1.3-1.4 1.4-4.5.4-8.9.9-13.4 1.3-7.1.7-14.3 1-21.4 1.2-6.9.2-13.8.2-20.7.3-4.6 0-9.1-.1-13.7-.6-6.4-.7-12.8-1.8-18.8-4.2-6.8-2.7-12.4-7-16.2-13.4-2.1-3.5-3.5-7.4-4.3-11.4-1.4-7.2-1.7-14.4-.2-21.5 2.1-10.4 7.9-18 17.2-22.9 5.8-3 12-4.7 18.4-5.7 10.3-1.7 20.7-1.7 31-1.6 4.4.1 8.8.3 13.2.5h1.4c.7 0 .9-.2 1-1v-.5c-.1-4.1.1-8.2-.5-12.2-.3-2.1-.9-4.1-1.9-6-1.1-2.1-2.8-3.6-4.9-4.6-2.6-1.3-5.3-2-8.1-2.3-7.8-1-15.7-1.1-23.5-.7-8.8.5-17.5 1.8-26.2 3.3-2.6.5-5.3.9-7.9 1.4-.4.1-.8.1-1.2.1-.4 0-.6-.2-.6-.5-.1-.5-.1-.9-.1-1.4V142c.1-.9.2-1.1 1-1.3 2.4-.5 4.8-1 7.2-1.4 7.2-1.2 14.5-2.1 21.7-2.7 5.5-.4 11-.6 16.5-.5 3.7 0 7.4.1 11.1.3 6.2.3 12.4 1 18.4 2.5 4.4 1.1 8.6 2.8 12.5 5.4 5 3.4 8.6 8 10.9 13.6 2 4.8 2.9 9.9 3.2 15.1.1 2.3.1 4.6.1 6.8.3 12.3.2 24.6.2 37zM816.5 162c-.6.2-1.2-.1-1.8-.2-6.8-1.3-13.6-2.4-20.5-3.1-8.4-.9-16.8-1.2-25.2-.1-3.2.4-6.3 1.1-9.3 2.4-1.9.8-3.7 1.8-5.1 3.3-2.7 2.8-3.7 6.1-2.9 9.9.4 1.7 1.2 3.1 2.4 4.3 1.3 1.4 2.9 2.4 4.6 3.2 2.4 1.2 4.9 2.1 7.5 2.8 4.5 1.3 9 2.2 13.5 3.2 5.7 1.3 11.5 2.5 17.1 4.4 5.3 1.7 10.4 3.9 15 7.2 6.8 4.8 11.1 11.2 12.5 19.5 1.2 6.9.7 13.6-1.6 20.2-2.5 7-6.9 12.4-12.9 16.7-4.3 3-9 5.1-14 6.7-5.7 1.8-11.6 2.8-17.6 3.3-7.3.6-14.6.5-21.9.1-6.4-.4-12.7-1.2-19-2.1-3.8-.5-7.6-1.3-11.4-2-1.1-.2-1.3-.4-1.3-1.4v-21.2c0-.1.1-.3.2-.6.8.1 1.6.2 2.4.4 7.4 1.6 14.7 3.1 22.2 4.2 9.3 1.3 18.6 1.7 27.9.2 4.2-.7 8.3-1.7 12.1-3.8 1-.5 1.9-1.2 2.7-1.8 5.9-4.6 5.7-12.9.8-17.6-2.3-2.1-5-3.5-7.9-4.6-4-1.5-8.1-2.5-12.3-3.3-5.9-1.2-11.9-2.3-17.7-4.1-5.6-1.8-11.2-3.8-16.2-6.9-4.6-2.9-8.5-6.5-11.2-11.2-1.7-3-2.8-6.3-3.4-9.7-.9-5.4-.7-10.8.6-16.1 2.1-8.3 6.9-14.7 14.1-19.3 4.9-3.2 10.2-5.2 15.8-6.5 5.4-1.3 11-1.9 16.6-2.1 7.7-.3 15.4.1 23.1.7 5.5.5 10.9 1.2 16.4 2 1.6.2 3.3.5 4.9.7.5.1.8.4.9.9v20c.2.5.3.9-.1 1.4z"/><path class="st1" d="M1199.7 201.6V241c0 2.7.3 2.5-2.6 2.9-6.7.9-13.5 1.2-20.2.9-5.8-.2-11.4-1.4-16.6-3.8-6-2.8-10.6-7.2-13.9-13-2.5-4.4-3.9-9.1-4.8-14-1.4-7.9-1.5-15.8-.3-23.7.6-3.8 1.6-7.5 3.1-11.1 2.7-6.3 6.8-11.3 12.6-14.8 4.2-2.6 8.8-4.1 13.6-5 4.4-.8 8.9-1.1 13.4-1.1 4.8 0 9.6.3 14.4.6.2 0 .5 0 .7.1.5.1.7.4.7.8v2.1c-.1 13.3-.1 26.5-.1 39.7zm-271.9 1.2v39.4c0 3 .3 2.8-3 3.1-4.3.3-8.6.6-12.9.7-6.3.2-12.6-.5-18.5-2.8-9.8-3.7-16.8-10.5-20.9-20.2-2.5-5.8-3.5-11.9-3.7-18.1-.2-7 .3-14 2.2-20.8 1.7-6.2 4.6-11.8 9.3-16.4 3.4-3.2 7.3-5.4 11.7-6.8 5.6-1.9 11.3-2.4 17.2-2.4 5.8 0 11.6.8 17.4 1.5 1 .1 1.2.3 1.2 1.4v41.4zM674 225.5v18.6c0 1.5 0 1.5-1.6 1.7-9.9.9-19.7 1.2-29.6.8-4-.2-8-.8-11.8-1.8-2.3-.6-4.4-1.5-6.5-2.8-4.3-2.6-6.9-6.3-8-11.1-.9-3.8-.9-7.7 0-11.4 1.3-5.5 4.9-9.2 10.1-11.3 3.6-1.6 7.5-2.4 11.4-2.9 5.2-.6 10.5-1 15.7-.9 6.3.1 12.5.4 18.8.7 1.5.1 1.5.1 1.5 1.7v18.7zm388.9-.1V245c0 .5-.3.7-.7.8l-3 .3c-8.9.6-17.9 1-26.8.6-4.2-.2-8.4-.7-12.5-1.9-3.2-.9-6.2-2.3-8.8-4.4-3.2-2.7-5.1-6.2-5.8-10.2-.6-3.2-.6-6.4 0-9.6 1.1-6.1 4.8-10.1 10.4-12.4 3.6-1.6 7.5-2.4 11.4-2.8 4.9-.6 9.9-1 14.8-.9 6.6.1 13.2.4 19.8.7.2 0 .5 0 .7.1.4.1.7.3.7.8v1.9c-.2 5.6-.2 11.5-.2 17.4z"/><path class="st0" d="M402.3 0h-97.6v.5c-.8 1-1 2.3-1.4 3.5-.3 1-1.1 1.9-1 3.1-.5.4-.5.9-.5 1.4-.4.2-.4.6-.4 1-.5.3-.5.9-.5 1.4-.5.4-.5.9-.5 1.4-.5.4-.5.9-.5 1.4-.4.2-.4.6-.4 1-.5.3-.5.8-.5 1.3-.1.2-.3.3-.4.6-2.4 6.7-4.9 13.4-7.3 20.1-1.6 4.4-3.2 8.9-4.8 13.3-2.1 5.7-4.2 11.3-6.3 17l-4.5 12.6c-2.3 6.3-4.6 12.7-6.9 19-2.1 5.7-4.2 11.3-6.3 17-2.1 5.8-4.2 11.6-6.3 17.5-.1.3-.1.6-.1.9-.5.4-.5.9-.5 1.4-.4.2-.4.6-.4 1 0 .1-.1.3 0 .4-.3.2-.4.6-.4 1-.5.3-.5.9-.5 1.4-.1.1-.2.2-.3.4-1.3 3.5-2.6 7.1-3.9 10.6-1.5 4.1-3 8.3-4.5 12.4-.2.4-.3.9-.8 1.2-.3-.6-.6-1.3-.9-1.9-.5-1.8-.9-3.5-1.9-5.1-.5-2.3-1.4-4.5-2.4-6.6-.6-2.1-1.2-4.3-2.3-6.3-.2-1.5-.9-2.8-1.4-4.2-4.1-11.5-8.3-23-12.5-34.4-.7-2.1-1.4-4.2-2.3-6.1-2.5-5.5-6.6-9-12.5-10.4-2.2-.5-4.4-.3-6.6-.3-1.4 0-2.8-.1-4.2-.1h-91.6c-1.2 0-2.3.2-3.4.9-.5.1-1.1 0-1.4.5-.3.1-.6.1-.9.3-4.5 2.2-7.7 5.7-9.4 10.4-1.2 3.3-2.3 6.7-3.5 10-2.8 7.7-5.7 15.5-8.5 23.2-2.6 7-5.1 14-7.7 21-1.7 4.8-3.5 9.6-5.3 14.4-1.7 4.6-3.3 9.3-5 14-2.3 6.3-4.6 12.5-6.9 18.8-1.3 3.7-2.7 7.4-4 11.1-2.2 6-4.4 12.1-6.6 18.1-1 2.7-1.9 5.3-2.9 8-2.1 5.7-4.2 11.5-6.3 17.2-1.5 4.1-2.9 8.1-4.4 12.2-2.8 7.6-5.6 15.2-8.3 22.7-.5 1.5-1 3-1.4 4.5 0 .1-.1.3 0 .4-.3.3-.5.6-.5 1-.1.2-.3.4-.4.6-1.6 4.3-3.1 8.7-4.7 13l-2.1 6c-2.2 5.9-4.3 11.8-6.5 17.6-1.8 5-3.7 10-5.5 15-.3.8-.7 1.6-.6 2.5v.5h97.1v-.4c.3-.3.5-.6.4-1 1-2.8 2.1-5.6 3.1-8.4 2.3-6.3 4.6-12.5 6.9-18.8 1.7-4.6 3.3-9.2 5-13.7 2.7-7.4 5.4-14.7 8.1-22.1 2.2-6 4.3-12 6.5-17.9 2.8-7.6 5.6-15.2 8.3-22.8 3.5-9.7 7.1-19.5 10.6-29.2 3.4-9.2 6.7-18.4 10.1-27.6.2-.7.4-1.4.9-1.9.2.2.3.4.5.6.3 1.8 1.1 3.5 1.9 5.2.4 1.8 1.1 3.5 1.9 5.2.4 1.8 1 3.6 1.9 5.2.2 1.3.5 2.6 1.4 3.8.3 1.8 1 3.5 1.9 5.2.3 1.8 1.1 3.5 1.9 5.2.4 1.8 1.1 3.5 1.9 5.2.4 1.8 1 3.5 1.9 5.2.2 1.9 1.1 3.5 1.9 5.2.4 1.8 1.1 3.5 1.9 5.2.4 1.8 1 3.5 1.9 5.2.3 1.8 1 3.5 1.9 5.2-.1 1.1.6 1.9.9 2.9 1.2 3.5 3.6 6 6.5 8.1 3 2.1 6.4 2.9 10 3.1 2 .1 3.9 0 5.9 0h92.2c.4 0 .8-.1 1.1-.4 1.2 0 2.3-.3 3.4-.7 1.7-.6 3.4-1.3 4.6-2.6 2.2-1.3 3.7-3.3 5.1-5.5.7-1.1 1.2-2.4 1.7-3.6 1.5-4.1 3-8.2 4.5-12.4 2.1-5.9 4.3-11.8 6.4-17.7 2.7-7.5 5.5-15 8.2-22.5 2.3-6.2 4.5-12.4 6.8-18.5.5-1.4.9-2.8 1.4-4.2.2-.4.5-.8.6-1.2 2.7-7.5 5.5-15 8.2-22.6.2-.7.6-1.3.6-2 .2-.5.6-.9.7-1.5 1.3-3.5 2.6-7.1 3.9-10.6 2.5-7 5-14 7.6-21 1.9-5.2 3.8-10.5 5.7-15.7 1.6-4.4 3.2-8.9 4.8-13.3 2.6-7.2 5.3-14.4 7.9-21.6 2.9-7.9 5.7-15.8 8.6-23.7 3.7-10.2 7.4-20.3 11.1-30.5 1.3-3.5 2.6-6.9 3.8-10.4.4-.9.3-1.5.3-2zm-98.1 258.9zm-56.6-98.6v-.2l.1.1-.1.1zm-32.3 84.1c.1 0 .1-.1.2-.1 0 .1-.1.2-.1.3 0-.1 0-.2-.1-.2zm11.4-31.1c.1 0 .1-.1.2-.1 0 .1 0 .2-.1.4 0-.2-.1-.2-.1-.3zm-60.4-50.9c0-.1.1-.2.1-.2v.1l-.1.1zm3.9-10.7c0 .1 0 .1 0 0 0 .1 0 .1-.1.1 0 0 .1 0 .1-.1zm67.5 31.8c0 .1 0 .2-.1.3 0-.1-.1-.2-.1-.3h.2zm-5.6 15.5c0 .1-.1.2-.1.4 0-.1-.1-.2-.1-.3 0 0 .1 0 .2-.1zm107.2-29.5l-.2.2c.1 0 .1-.1.2-.2zm-97.4 6.5s0-.1 0 0c0-.1 0-.1 0 0z"/><path class="st1" d="M157 188l40.8-117.1h16l-52 146.5zm39.7 69.2l40.8-117.1h16l-52 146.5z"/></svg>