<svg width="283" height="284" viewBox="0 0 283 284" fill="none" xmlns="http://www.w3.org/2000/svg">
<rect width="283" height="284" fill="white"/>
<path fill-rule="evenodd" clip-rule="evenodd" d="M198.049 158.372C198.05 158.082 197.753 157.883 197.486 157.996C185.332 163.149 171.461 166.068 156.736 166.068C108.72 166.068 69.7949 135.027 69.7949 96.735C69.7949 69.928 88.8723 46.6743 116.791 35.1371C117.244 34.9496 117.04 34.2343 116.56 34.3369C60.045 46.4291 18 92.2753 18 146.986C18 210.922 75.4213 262.753 146.254 262.753C199.358 262.753 244.924 233.621 264.407 192.096C264.554 191.783 264.258 191.444 263.926 191.542C258.425 193.164 252.425 194.056 246.144 194.056C219.582 194.056 198.049 178.108 198.049 158.435C198.049 158.414 198.049 158.393 198.049 158.372Z" fill="black"/>
<path fill-rule="evenodd" clip-rule="evenodd" d="M118.753 36.8862C119.009 36.785 119.093 36.4608 118.914 36.2512L107.533 22.921C107.319 22.6705 107.463 22.2849 107.791 22.2657C134.391 20.7155 193.389 25.2205 224.219 55.3697C224.282 55.431 224.322 55.5106 224.335 55.5974C224.622 57.6433 224.87 60.4827 224.881 64.0343C224.882 64.1925 224.976 64.3366 225.12 64.4009C228.165 65.7555 229.77 66.519 230.303 66.7865C230.371 66.8207 230.425 66.8708 230.463 66.9369C236.577 77.5938 243.21 105.251 221.303 131.594C221.237 131.673 221.138 131.726 221.035 131.738C204.51 133.619 199.035 146.317 198.044 154.44C198.027 154.579 197.941 154.697 197.813 154.755C185.525 160.335 171.294 163.524 156.126 163.524C109.677 163.524 72.0225 133.621 72.0225 96.735C72.0225 70.5093 91.0568 47.814 118.753 36.8862ZM205.366 61.8364C205.237 61.8179 205.106 61.8653 205.017 61.9606C202.014 65.1581 199.22 66.7748 198.24 67.3003C198.157 67.345 198.059 67.3565 197.967 67.336C182.102 63.8017 174.901 56.0182 173.135 53.8198C172.936 53.571 173.118 53.2287 173.437 53.229C189.368 53.2408 203.858 56.8961 215.009 63.1142C215.422 63.3446 215.14 63.9801 214.684 63.8531C212.299 63.188 208.859 62.3352 205.366 61.8364Z" fill="black"/>
<path fill-rule="evenodd" clip-rule="evenodd" d="M224.65 132.369C224.337 132.305 224.204 131.921 224.417 131.684C230.819 124.539 235.698 114.944 237.926 103.873C240.279 92.1811 239.289 80.7696 235.728 71.2427C235.589 70.8714 236.012 70.536 236.336 70.7648C250.061 80.4685 261.006 93.8644 260.084 112.776C258.84 138.288 243.545 148.71 233.219 150.818C232.884 150.886 232.637 150.521 232.802 150.222C237.078 142.499 233.169 137.594 231.575 135.924C230.632 134.936 228.507 133.151 224.65 132.369Z" fill="black"/>
</svg>
