<svg width="1559" height="566" viewBox="0 0 1559 566" fill="none" xmlns="http://www.w3.org/2000/svg">
<rect width="1559" height="566" rx="24" fill="#171717"/>
<path d="M156.124 245.922L185.018 322.973C193.235 324.389 198.293 326.32 198.293 328.448L198.292 328.488L198.278 328.447L198.327 328.633C198.501 329.524 198.473 330.493 198.243 331.542L198.293 331.545L198.136 331.981C197.912 332.823 197.563 333.713 197.089 334.652C189.43 352.755 172.504 365.524 151.676 365.524C131.169 365.524 113.658 353.145 105.733 335.488L106.197 336.313C105.258 334.702 104.62 333.234 104.283 331.91C104.242 331.792 104.198 331.668 104.154 331.545L104.196 331.542C104 330.633 103.951 329.794 104.05 329.025L104.154 328.448L104.176 328.207C104.556 326.093 109.93 324.189 118.395 322.812L147.228 245.922C148.616 242.193 154.727 242.193 156.124 245.922ZM308.539 245.913L337.427 322.946C345.252 324.281 350.251 326.081 350.81 328.074L350.731 327.912C351.187 328.791 351.32 329.804 351.129 330.952L351.008 331.535C350.843 332.187 350.588 332.867 350.239 333.586C342.779 352.255 325.323 365.515 304.091 365.515C283.083 365.515 265.221 352.524 257.584 334.177C257.132 333.285 256.774 332.43 256.59 331.628L256.572 331.544C256.571 331.541 256.57 331.538 256.569 331.535L256.571 331.534L256.513 331.167C256.437 330.519 256.477 329.736 256.632 328.818L256.749 328.199L256.738 328.252C256.743 328.217 256.75 328.182 256.758 328.147L256.769 328.106L256.775 328.107C257.298 326.047 262.563 324.193 270.792 322.84L299.643 245.913C301.031 242.183 307.142 242.183 308.539 245.913ZM151.676 261.157L129.042 321.51C135.651 320.918 143.203 320.583 151.224 320.583L152.663 320.587C160.525 320.626 167.904 320.988 174.34 321.596L151.676 261.157ZM304.091 261.157L281.45 321.524C288.097 320.924 295.707 320.583 303.793 320.583L305.232 320.587C313.031 320.626 320.353 320.982 326.753 321.581L304.091 261.157ZM228.552 156.549C228.552 156.549 239.824 191.915 239.824 198.179C239.824 202.492 237.334 206.136 233.789 208.049C236.707 208.995 239.273 210.66 241.278 212.888C245.755 208.986 252.351 205.361 261.817 205.361C272.643 205.361 281.947 210.095 290.159 214.275C292.773 215.604 295.31 216.876 297.658 217.87C299.407 216.015 301.849 214.829 304.587 214.829C309.89 214.829 314.186 219.152 314.186 224.488C314.186 229.825 309.89 234.148 304.587 234.148C300.281 234.148 296.774 231.25 295.558 227.319C292.412 226.114 289.19 224.488 285.873 222.805C278.611 219.114 270.371 214.925 261.817 214.925C253.596 214.925 248.463 218.76 245.536 222.002C245.65 222.824 245.783 223.637 245.783 224.488C245.783 234.062 238.066 241.827 228.552 241.827C219.038 241.827 211.32 234.062 211.32 224.488C211.32 223.637 211.453 222.815 211.568 221.992C208.631 218.741 203.498 214.925 195.287 214.925C186.733 214.925 178.492 219.123 171.221 222.815C167.914 224.498 164.692 226.124 161.546 227.329C160.329 231.259 156.822 234.157 152.517 234.157C147.213 234.157 142.917 229.825 142.917 224.488C142.917 219.152 147.213 214.829 152.517 214.829C155.254 214.829 157.697 216.025 159.446 217.87C161.793 216.885 164.321 215.613 166.935 214.275C175.147 210.095 184.461 205.361 195.287 205.361C204.753 205.361 211.349 208.986 215.825 212.888C217.831 210.66 220.397 208.986 223.315 208.049C219.77 206.136 217.28 202.502 217.28 198.179C217.28 191.915 228.552 156.549 228.552 156.549Z" fill="url(#paint0_linear)"/>
<path d="M363.273 144.768C363.273 144.768 351.58 145.773 343.832 149.96C343.832 149.96 374.645 149.793 388.987 161.841C388.987 161.841 354.111 151.125 313.462 177.735C313.462 177.735 378.112 165.349 408.762 191.626C408.762 191.626 398.871 173.321 378.07 169.381C378.07 169.381 401.737 168.438 409.842 172.377C409.842 172.377 402.842 157.297 394.906 153.702V142.952C394.906 140.775 383.055 129.704 363.273 127.836V144.768Z" fill="url(#paint1_linear)"/>
<path d="M358.014 192.84C358.014 192.84 363.001 197.19 365.112 201.209C365.112 201.209 360.554 205.715 356.197 207.933C356.197 207.933 369.396 212.09 372.872 217.007C365.835 214.795 353.816 215.624 350.922 221.6C358.957 220.734 363.876 222.809 364.911 225.887C364.911 225.887 363 228.64 357.151 229.863C350.922 231.166 349.331 233.756 349.331 237.373C349.331 240.989 354.061 244.296 362.653 244.028C371.232 243.754 394.632 240.214 396.4 195.943C394.632 191.781 373.257 183.28 357.959 183.374L358.014 192.84Z" fill="white"/>
<path d="M403.758 241.832C414.262 225.486 420.01 211.242 421 199.102C436.551 216.384 435.616 236.617 432.974 252.101C431.192 247.118 428.894 241.993 426.078 236.725C427.938 260.599 420.87 273.525 404.874 275.502C403.003 264.474 402.631 253.25 403.758 241.832Z" fill="white"/>
<path d="M209.661 93.5576C206.742 98.0477 202.463 110.532 196.825 131.01C184.154 145.51 171.76 165.41 159.641 190.71C153.657 192.57 147.31 195.196 140.599 198.588C157.81 166.941 174.651 143.052 191.118 126.917C194.923 114.271 201.104 103.151 209.661 93.5576Z" fill="white"/>
<path d="M244.359 128.862L201.772 148.955C213.907 149.159 223.544 146.953 230.684 142.336C237.823 137.719 242.382 133.228 244.359 128.862Z" fill="white"/>
<path d="M228.645 121.533C228.404 112.752 227.261 107.817 225.215 106.727C222.942 105.711 221.62 103.524 222.942 99.5297C223.757 96.991 223.511 94.1647 222.205 91.051L233.757 83.3336L246.757 91.5289C247.212 94.4206 246.268 97.0875 243.924 99.5297C246.757 102.596 246.757 106.554 243.474 111.125C243.566 112.257 243.629 113.368 243.665 114.456C243.719 116.105 243.655 118.464 243.474 121.533H228.645Z" fill="white"/>
<path d="M389.049 256.819C387.012 293.941 394.915 315.037 412.76 320.107C439.526 327.712 475.33 329.932 485.064 386.305C487.483 393.93 486.306 400.936 488.308 407.805C480.459 416.115 471.948 423.788 462.859 430.738C453.962 409.227 442.84 395.942 427.203 386.305C365.576 347.915 352.858 304.753 389.049 256.819Z" fill="white"/>
<path d="M233.9 374.959C266.171 455.972 317.829 404.064 357.735 423.041C375.981 431.717 385.934 447.646 387.595 470.826C372.038 474.449 355.827 476.362 339.172 476.362C306.876 476.362 276.255 469.171 248.815 456.301C248.715 431.914 243.741 404.8 233.9 374.959Z" fill="white"/>
<path d="M406.202 132.565C419.218 153.262 425.289 168.572 424.415 178.493C424.083 182.078 422.507 186.078 419.687 190.493C429.592 189.609 434.544 183.518 434.544 172.22C434.544 160.923 425.097 147.704 406.202 132.565Z" fill="white"/>
<path d="M293.095 155.889C301.467 153.577 308.308 148.354 313.62 140.223C313.283 145.064 312.071 149.232 309.982 152.725C334.177 148.373 352.954 133.713 366.313 108.745C341.68 95.3513 316.287 104.488 302.676 121.151C293.602 132.26 290.409 143.839 293.095 155.889Z" fill="white"/>
<path d="M677.625 434.477C699.973 434.477 714.242 426.382 726.448 413.12L712.867 399.342C702.552 408.987 692.925 414.843 678.313 414.843C655.507 414.843 638.935 396.106 638.606 372.836L638.601 371.785C638.601 348.19 655.448 329.416 678.141 329.416C692.066 329.416 702.208 335.272 712.007 344.228L725.588 328.555C714.07 317.532 700.661 309.782 678.313 309.782C642.402 309.782 616.938 337.297 616.432 371.103L616.425 372.474C616.425 407.092 642.555 434.477 677.625 434.477ZM802.698 434.477C839.289 434.477 865.265 406.456 865.781 373.141L865.789 371.785C865.789 337.856 840.002 309.782 803.041 309.782C766.45 309.782 740.474 337.803 739.958 371.118L739.95 372.474C739.95 406.403 765.737 434.477 802.698 434.477ZM803.041 414.843C779.215 414.843 762.464 395.937 762.132 372.831L762.127 371.785C762.127 348.362 778.802 329.416 802.698 329.416C826.525 329.416 843.275 348.322 843.607 371.428L843.612 372.474C843.612 395.897 826.937 414.843 803.041 414.843ZM934.832 434.305C966.291 434.305 986.577 416.221 986.577 380.224V311.849H965.432V381.258C965.432 403.476 953.914 414.671 935.175 414.671C916.093 414.671 904.747 402.959 904.747 380.397V311.849H883.602V381.258C883.602 416.221 903.716 434.305 934.832 434.305ZM1161.2 432.41V331.483H1122.86V311.849H1220.68V331.483H1182.34V432.41H1161.2Z" fill="url(#paint2_linear)"/>
<path d="M1065.63 311.337C1080.98 311.337 1093.02 315.834 1100.88 323.444C1107.33 330.19 1111 339.011 1111 349.562L1110.99 350.553C1110.74 369.628 1099.29 381.266 1083.13 386.249L1082.03 386.575L1115.01 432.41H1089.53L1059.52 390.208L1043.76 390.205L1054.82 371.352L1064.06 371.355C1079.06 371.355 1088.74 363.921 1089.17 351.96L1089.18 351.118L1089.18 350.311C1088.97 337.465 1079.75 330.709 1063.88 330.709H1032.65L1032.65 368.135L1032.63 368.133V395.133L1032.65 395.124L1032.65 432.41H1011.18V311.337H1065.63Z" fill="url(#paint3_linear)"/>
<path d="M828.367 127.734C843.728 127.734 855.773 132.347 863.628 140.154C870.086 147.073 873.752 156.122 873.752 166.944L873.748 167.961C873.495 187.528 862.044 199.466 845.873 204.578L844.775 204.912L877.767 251.928H852.281L822.258 208.638L806.498 208.634L817.557 189.295L826.796 189.299C841.808 189.299 851.485 181.674 851.917 169.405L851.932 168.541L851.928 167.713C851.714 154.536 842.492 147.605 826.622 147.605H795.376L795.373 185.997L795.356 185.995V213.691L795.373 213.681L795.376 251.928H773.906V127.734H828.367Z" fill="white"/>
<path d="M1085.52 127.734C1106.6 127.734 1119.84 133.669 1132.38 144.316L1118.79 160.548C1109.39 152.52 1099.98 147.632 1084.65 147.632C1062.35 147.632 1045.1 167.181 1045.1 190.57L1045.11 192.023C1045.59 216.593 1062.02 234.554 1086.56 234.554C1098.24 234.554 1108.52 230.889 1116.01 225.304V202.613L1136.74 183.763V235.078C1124.54 245.376 1107.47 254.103 1085.87 254.103C1047.71 254.103 1022.63 226.875 1022.63 191.268L1022.64 189.805C1023.19 156.082 1048.99 127.734 1085.52 127.734ZM1217.23 127.734C1254.69 127.734 1280.82 156.185 1280.82 190.57L1280.81 192.021C1280.25 225.749 1253.93 254.103 1216.88 254.103C1179.42 254.103 1153.29 225.653 1153.29 191.268L1153.3 189.817C1153.86 156.089 1180.17 127.734 1217.23 127.734ZM691.202 128.956L744.861 252.009L723.047 252.008L680.923 154.614L639.106 252.008L617.681 252.009L671.341 128.956H691.202ZM965.482 128.956L1019.14 252.009L997.328 252.008L955.203 154.614L913.386 252.008L891.962 252.009L945.621 128.956H965.482ZM1322.65 129.829L1387.98 214.308V129.829H1409.06V252.009H1391.11L1323.87 165.087V252.009H1302.79V129.829H1322.65ZM1216.88 147.632C1192.66 147.632 1175.76 166.832 1175.76 190.57L1175.78 191.963C1176.27 215.227 1193.2 234.205 1217.23 234.205C1241.44 234.205 1258.34 215.006 1258.34 191.268L1258.33 189.874C1257.84 166.61 1240.91 147.632 1216.88 147.632Z" fill="white"/>
<defs>
<linearGradient id="paint0_linear" x1="104" y1="335.424" x2="333.476" y2="150.604" gradientUnits="userSpaceOnUse">
<stop stop-color="#FFC58F"/>
<stop offset="1" stop-color="#FF7C7C"/>
</linearGradient>
<linearGradient id="paint1_linear" x1="313.462" y1="173.651" x2="398.132" y2="120.259" gradientUnits="userSpaceOnUse">
<stop stop-color="#FFC58F"/>
<stop offset="1" stop-color="#FF7C7C"/>
</linearGradient>
<linearGradient id="paint2_linear" x1="616.425" y1="374.873" x2="1214.07" y2="255.216" gradientUnits="userSpaceOnUse">
<stop stop-color="#FFC58F"/>
<stop offset="1" stop-color="#FF7C7C"/>
</linearGradient>
<linearGradient id="paint3_linear" x1="940.401" y1="444.118" x2="1109.96" y2="336.362" gradientUnits="userSpaceOnUse">
<stop stop-color="#FFC58F"/>
<stop offset="1" stop-color="#FF7C7C"/>
</linearGradient>
</defs>
</svg>
