<svg width="547" height="548" viewBox="0 0 547 548" fill="none" xmlns="http://www.w3.org/2000/svg">
<path d="M273.5 548C424.55 548 547 425.326 547 274C547 122.674 424.55 0 273.5 0C122.45 0 0 122.674 0 274C0 425.326 122.45 548 273.5 548Z" fill="#171717"/>
<path d="M80.1995 253.436L111.373 336.568C120.238 338.095 125.696 340.178 125.696 342.474L125.695 342.517L125.68 342.473L125.732 342.674C125.92 343.635 125.889 344.681 125.642 345.812L125.696 345.815L125.527 346.286C125.284 347.194 124.908 348.155 124.397 349.168C116.133 368.7 97.8721 382.476 75.4004 382.476C53.2746 382.476 34.3824 369.12 25.8311 350.07L26.3321 350.959C25.3191 349.222 24.6307 347.638 24.2671 346.209C24.2231 346.082 24.1755 345.949 24.1285 345.815L24.1737 345.813C23.9615 344.831 23.9087 343.926 24.0152 343.096L24.1285 342.474L24.1518 342.215C24.5617 339.933 30.3601 337.879 39.4928 336.393L70.6013 253.436C72.0985 249.412 78.6921 249.412 80.1995 253.436ZM244.642 253.426L275.809 336.538C284.251 337.979 289.645 339.92 290.248 342.07L290.163 341.896C290.655 342.844 290.799 343.937 290.592 345.176L290.462 345.805C290.284 346.508 290.009 347.242 289.632 348.017C281.584 368.159 262.75 382.466 239.843 382.466C217.177 382.466 197.905 368.45 189.666 348.655C189.177 347.692 188.791 346.77 188.594 345.905L188.574 345.814C188.573 345.811 188.572 345.808 188.571 345.805L188.572 345.803L188.509 345.408C188.428 344.708 188.472 343.864 188.639 342.874L188.764 342.206L188.753 342.263C188.758 342.225 188.765 342.187 188.774 342.149L188.786 342.105L188.792 342.106C189.357 339.884 195.037 337.883 203.916 336.424L235.044 253.426C236.541 249.402 243.134 249.402 244.642 253.426ZM75.4004 269.873L50.9798 334.988C58.1105 334.35 66.2585 333.989 74.9121 333.989L76.4647 333.993C84.9478 334.035 92.9081 334.425 99.8528 335.081L75.4004 269.873ZM239.843 269.873L215.415 335.004C222.587 334.356 230.797 333.989 239.521 333.989L241.074 333.993C249.488 334.035 257.388 334.419 264.293 335.065L239.843 269.873ZM158.342 157.01C158.342 157.01 170.504 195.167 170.504 201.925C170.504 206.579 167.817 210.51 163.992 212.574C167.141 213.595 169.909 215.391 172.073 217.795C176.903 213.585 184.019 209.674 194.233 209.674C205.912 209.674 215.951 214.782 224.811 219.291C227.631 220.725 230.369 222.097 232.902 223.171C234.789 221.169 237.424 219.889 240.377 219.889C246.099 219.889 250.734 224.553 250.734 230.311C250.734 236.068 246.099 240.732 240.377 240.732C235.732 240.732 231.948 237.606 230.636 233.365C227.242 232.065 223.765 230.311 220.187 228.495C212.352 224.512 203.462 219.993 194.233 219.993C185.363 219.993 179.825 224.13 176.667 227.628C176.79 228.515 176.934 229.392 176.934 230.311C176.934 240.639 168.607 249.018 158.342 249.018C148.078 249.018 139.751 240.639 139.751 230.311C139.751 229.392 139.895 228.505 140.018 227.618C136.849 224.11 131.312 219.993 122.452 219.993C113.223 219.993 104.332 224.522 96.4879 228.505C92.9194 230.321 89.4431 232.075 86.0489 233.375C84.7364 237.616 80.9525 240.743 76.3073 240.743C70.5853 240.743 65.9503 236.068 65.9503 230.311C65.9503 224.553 70.5853 219.889 76.3073 219.889C79.2605 219.889 81.8959 221.179 83.7827 223.171C86.3155 222.108 89.0432 220.735 91.8631 219.291C100.723 214.782 110.772 209.674 122.452 209.674C132.665 209.674 139.782 213.585 144.612 217.795C146.775 215.391 149.544 213.585 152.692 212.574C148.867 210.51 146.181 206.589 146.181 201.925C146.181 195.167 158.342 157.01 158.342 157.01Z" fill="url(#paint0_linear)"/>
<path d="M303.695 144.3C303.695 144.3 291.079 145.384 282.72 149.901C282.72 149.901 315.965 149.721 331.437 162.719C331.437 162.719 293.81 151.158 249.953 179.868C249.953 179.868 319.705 166.504 352.773 194.855C352.773 194.855 342.102 175.105 319.659 170.855C319.659 170.855 345.194 169.837 353.939 174.087C353.939 174.087 346.386 157.817 337.824 153.938V142.34C337.824 139.991 325.037 128.047 303.695 126.031V144.3Z" fill="url(#paint1_linear)"/>
<path d="M298.021 196.165C298.021 196.165 303.402 200.858 305.679 205.195C305.679 205.195 300.761 210.056 296.06 212.45C296.06 212.45 310.301 216.934 314.051 222.239C306.458 219.852 293.492 220.747 290.369 227.194C299.038 226.26 304.346 228.499 305.461 231.82C305.461 231.82 303.401 234.79 297.09 236.11C290.369 237.516 288.652 240.31 288.652 244.212C288.652 248.114 293.756 251.682 303.025 251.393C312.281 251.097 337.528 247.278 339.436 199.513C337.528 195.022 314.467 185.851 297.961 185.952L298.021 196.165Z" fill="white"/>
<path d="M347.375 249.024C358.708 231.387 364.909 216.019 365.977 202.922C382.755 221.567 381.747 243.396 378.896 260.103C376.974 254.727 374.493 249.197 371.456 243.513C373.463 269.272 365.837 283.217 348.579 285.35C346.56 273.452 346.159 261.343 347.375 249.024Z" fill="white"/>
<path d="M137.96 89.0479C134.811 93.8922 130.195 107.362 124.112 129.456C110.441 145.1 97.0683 166.57 83.9935 193.866C77.5377 195.874 70.689 198.707 63.4482 202.367C82.0182 168.223 100.188 142.448 117.954 125.039C122.059 111.396 128.728 99.3985 137.96 89.0479Z" fill="white"/>
<path d="M175.397 127.139L129.449 148.817C142.542 149.037 152.939 146.657 160.643 141.676C168.346 136.695 173.264 131.849 175.397 127.139Z" fill="white"/>
<path d="M158.443 119.231C158.183 109.757 156.949 104.432 154.742 103.256C152.289 102.161 150.863 99.8007 152.289 95.4913C153.169 92.7522 152.904 89.703 151.494 86.3435L163.958 78.0171L177.984 86.8592C178.475 89.979 177.456 92.8564 174.927 95.4913C177.984 98.7997 177.984 103.07 174.442 108.002C174.541 109.223 174.609 110.421 174.648 111.595C174.706 113.375 174.637 115.92 174.442 119.231H158.443Z" fill="white"/>
<path d="M331.505 265.192C329.307 305.244 337.834 328.005 357.087 333.475C385.966 341.68 424.594 344.075 435.096 404.897C437.707 413.124 436.437 420.683 438.597 428.093C430.128 437.059 420.946 445.337 411.139 452.836C401.541 429.627 389.541 415.295 372.669 404.897C306.179 363.477 292.458 316.909 331.505 265.192Z" fill="white"/>
<path d="M164.113 392.655C198.93 480.062 254.665 424.057 297.72 444.531C317.406 453.893 328.144 471.078 329.936 496.087C313.151 499.997 295.662 502.06 277.691 502.06C242.847 502.06 209.81 494.302 180.205 480.416C180.096 454.104 174.73 424.852 164.113 392.655Z" fill="white"/>
<path d="M350.012 131.134C364.055 153.464 370.605 169.981 369.662 180.686C369.303 184.554 367.603 188.87 364.561 193.633C375.247 192.679 380.59 186.108 380.59 173.918C380.59 161.729 370.398 147.467 350.012 131.134Z" fill="white"/>
<path d="M227.979 156.299C237.011 153.803 244.393 148.169 250.124 139.396C249.76 144.619 248.452 149.115 246.199 152.884C272.302 148.189 292.561 132.372 306.975 105.434C280.397 90.9833 253.001 100.841 238.316 118.819C228.526 130.804 225.081 143.297 227.979 156.299Z" fill="white"/>
<defs>
<linearGradient id="paint0_linear" x1="23.9618" y1="350.001" x2="271.546" y2="150.596" gradientUnits="userSpaceOnUse">
<stop stop-color="#FFC58F"/>
<stop offset="1" stop-color="#FF7C7C"/>
</linearGradient>
<linearGradient id="paint1_linear" x1="249.953" y1="175.462" x2="341.304" y2="117.856" gradientUnits="userSpaceOnUse">
<stop stop-color="#FFC58F"/>
<stop offset="1" stop-color="#FF7C7C"/>
</linearGradient>
</defs>
</svg>
