<svg width="1440" height="611" viewBox="0 0 1440 611" fill="none" xmlns="http://www.w3.org/2000/svg">
<rect width="1440" height="611" fill="white"/>
<g style="mix-blend-mode:multiply">
<rect width="1440" height="611" fill="url(#paint0_linear)"/>
</g>
<circle cx="308.297" cy="318.297" r="142.297" fill="url(#paint1_linear)"/>
<path d="M419.501 299.036C420.488 278.534 406.169 264.933 390.008 255.595L379.504 317.306C386.776 316.9 390.332 319.661 391.624 320.96C393.24 322.584 397.281 327.456 392.432 335.17C402.533 333.546 418.309 323.802 419.501 299.036Z" fill="url(#paint2_linear)"/>
<path fill-rule="evenodd" clip-rule="evenodd" d="M281.709 227.19L269.185 214.604C288.039 212.304 337.786 215.254 385.944 245.46C386.752 248.708 385.944 253.579 385.944 253.579L389.984 255.609C393.486 260.617 399.438 274.853 395.236 291.743C391.035 308.632 383.789 315.832 380.692 317.32C374.228 317.32 363.239 321.055 359.683 337.62C356.128 354.184 349.314 357.784 346.351 357.513L275.245 358.325L228.38 330.718L221.512 273.473L234.844 255.609L258.681 236.122L275.649 229.22L281.709 227.19ZM365.689 250.837C362.554 254.103 359.622 255.67 358.785 256.095C340.476 252.2 333.88 242.728 333.88 242.728C351.15 242.621 366.737 246.729 378.141 253.678C378.141 253.678 371.968 251.677 365.689 250.837Z" fill="url(#paint3_linear)"/>
<path fill-rule="evenodd" clip-rule="evenodd" d="M359.057 337.625C346.506 343.784 331.626 347.35 315.67 347.35C270.821 347.35 234.464 319.176 234.464 284.421C234.464 258.749 254.302 236.667 282.747 226.879C228.648 229.997 185.175 273.458 185.175 327.083C185.175 388.974 240.344 440.113 308.398 440.113C359.216 440.113 401.516 410.649 423.634 371.229C393.201 378.074 357.174 365.061 359.057 337.625Z" fill="url(#paint4_linear)"/>
<path fill-rule="evenodd" clip-rule="evenodd" d="M723.849 267.49C716.909 260.593 706.268 256.518 692.697 256.518H644.58V366.243H663.549L663.546 332.452L663.531 332.46V307.991L663.546 307.993L663.549 274.074H691.154C705.176 274.074 713.323 280.197 713.513 291.839L713.516 292.57L713.503 293.333C713.121 304.173 704.572 310.91 691.309 310.91L683.146 310.907L673.375 327.993L687.299 327.996L713.825 366.243H736.341L707.193 324.704L708.163 324.409C722.45 319.892 732.567 309.345 732.79 292.058L732.794 291.16C732.794 281.598 729.555 273.604 723.849 267.49ZM971.001 271.168C959.919 261.762 948.221 256.519 929.596 256.519C897.319 256.519 874.53 281.564 874.038 311.358L874.03 312.651C874.03 344.109 896.195 368.166 929.904 368.166C948.99 368.166 964.075 360.455 974.849 351.357V306.02L956.532 322.674V342.721C949.914 347.656 940.832 350.894 930.519 350.894C908.832 350.894 894.317 335.025 893.895 313.318L893.886 312.034C893.886 291.37 909.124 274.098 928.826 274.098C942.371 274.098 950.683 278.416 958.995 285.51L971.001 271.168ZM1107.68 312.034C1107.68 281.655 1084.59 256.519 1051.5 256.519C1018.76 256.519 995.511 281.57 995.015 311.369L995.007 312.651C995.007 343.03 1018.1 368.166 1051.19 368.166C1083.93 368.166 1107.17 343.115 1107.67 313.315L1107.68 312.034ZM621.743 366.315L574.334 257.598H556.787L509.379 366.315L528.307 366.314L565.253 280.267L602.47 366.314L621.743 366.315ZM865.927 366.315L818.518 257.598H800.971L753.563 366.315L772.492 366.314L809.437 280.267L846.654 366.314L865.927 366.315ZM1203.38 333.006L1145.65 258.369H1128.11V366.315H1146.73V289.519L1206.15 366.315H1222V258.369H1203.38V333.006ZM1014.86 312.034C1014.86 291.061 1029.79 274.098 1051.19 274.098C1072.42 274.098 1087.38 290.865 1087.81 311.419L1087.82 312.651C1087.82 333.623 1072.89 350.586 1051.5 350.586C1030.26 350.586 1015.31 333.819 1014.87 313.265L1014.86 312.034Z" fill="white"/>
<defs>
<linearGradient id="paint0_linear" x1="1440" y1="-0.000103977" x2="581.715" y2="-454.715" gradientUnits="userSpaceOnUse">
<stop stop-color="#01E8F7"/>
<stop offset="1" stop-color="#00C2FF"/>
</linearGradient>
<linearGradient id="paint1_linear" x1="308.297" y1="197" x2="308.297" y2="475.722" gradientUnits="userSpaceOnUse">
<stop stop-color="white" stop-opacity="0.16"/>
<stop offset="1" stop-color="white" stop-opacity="0"/>
</linearGradient>
<linearGradient id="paint2_linear" x1="399.698" y1="278.102" x2="405.1" y2="347.818" gradientUnits="userSpaceOnUse">
<stop stop-color="white"/>
<stop offset="1" stop-color="white"/>
</linearGradient>
<linearGradient id="paint3_linear" x1="278.189" y1="229.472" x2="351.495" y2="345.817" gradientUnits="userSpaceOnUse">
<stop stop-color="#C2F5FF"/>
<stop offset="1" stop-color="#8EEDFF"/>
</linearGradient>
<linearGradient id="paint4_linear" x1="262.33" y1="249.748" x2="374.211" y2="413.366" gradientUnits="userSpaceOnUse">
<stop stop-color="#C2F5FF"/>
<stop offset="1" stop-color="#F5FDFF"/>
</linearGradient>
</defs>
</svg>
