<svg fill="none" height="611" viewBox="0 0 1440 611" width="1440" xmlns="http://www.w3.org/2000/svg" xmlns:xlink="http://www.w3.org/1999/xlink"><linearGradient id="a" gradientUnits="userSpaceOnUse" x1="307.966" x2="307.966" y1="265.375" y2="453.733"><stop offset="0" stop-color="#01e8f8"/><stop offset="1" stop-color="#01e8f8" stop-opacity="0"/></linearGradient><linearGradient id="b"><stop offset="0" stop-color="#01e8f7"/><stop offset="1" stop-color="#00c2ff"/></linearGradient><linearGradient id="c" gradientUnits="userSpaceOnUse" x1="399.154" x2="404.545" xlink:href="#b" y1="277.72" y2="347.289"/><linearGradient id="d"><stop offset="0" stop-color="#01e8f7"/><stop offset="1" stop-color="#00b3ec"/></linearGradient><linearGradient id="e" gradientUnits="userSpaceOnUse" x1="277.928" x2="351.088" xlink:href="#d" y1="229.19" y2="345.276"/><linearGradient id="f" gradientUnits="userSpaceOnUse" x1="305.101" x2="311.633" xlink:href="#b" y1="286.788" y2="474.105"/><linearGradient id="g" gradientUnits="userSpaceOnUse" x1="314.821" x2="453.357" xlink:href="#d" y1="211.042" y2="635.229"/><path d="m0 0h1440v611h-1440z" fill="#fff"/><ellipse cx="307.966" cy="308" fill="url(#a)" fill-opacity=".05" rx="141.966" ry="142"/><path d="m418.911 298.61c.985-20.459-13.302-34.032-29.424-43.35l-10.48 61.582c7.255-.406 10.802 2.349 12.092 3.646 1.612 1.62 5.643 6.482.806 14.18 10.077-1.621 25.816-11.344 27.006-36.058z" fill="url(#c)"/><g clip-rule="evenodd" fill-rule="evenodd"><path d="m281.44 226.913-12.495-12.559c18.81-2.296 68.441.648 116.487 30.79.806 3.242 0 8.103 0 8.103l4.03 2.026c3.494 4.997 9.432 19.204 5.24 36.058s-11.42 24.038-14.51 25.524c-6.449 0-17.413 3.727-20.96 20.257s-10.345 20.122-13.301 19.852l-70.94.81-46.756-27.549-6.852-57.126 13.301-17.826 23.781-19.447 16.929-6.887zm83.784 23.598c-3.128 3.259-6.053 4.823-6.888 5.247-18.267-3.887-24.848-13.339-24.848-13.339 17.23-.106 32.781 3.993 44.159 10.927 0 0-6.159-1.996-12.423-2.835z" fill="url(#e)"/><path d="m358.608 337.117c-12.522 6.147-27.368 9.706-43.286 9.706-44.744 0-81.017-28.116-81.017-62.798 0-25.619 19.793-47.655 48.173-57.422-53.974 3.11-97.347 46.48-97.347 99.995 0 61.761 55.04 112.793 122.936 112.793 50.699 0 92.901-29.402 114.968-68.74-30.363 6.83-66.305-6.155-64.427-33.534z" fill="url(#f)"/><path d="m971.217 267.026c-11.073-9.401-22.761-14.641-41.37-14.641-32.249 0-55.019 25.03-55.51 54.806l-.008 1.292c0 31.439 22.146 55.48 55.826 55.48 19.07 0 34.141-7.705 44.907-16.798v-45.309l-18.301 16.644v20.035c-6.613 4.931-15.687 8.168-25.991 8.168-21.669 0-36.171-15.859-36.593-37.553l-.009-1.284c0-20.651 15.225-37.912 34.91-37.912 13.534 0 21.838 4.315 30.143 11.405zm136.563 40.84c0-30.36-23.07-55.481-56.14-55.481-32.71 0-55.934 25.036-56.43 54.817l-.008 1.281c0 30.36 23.068 55.48 56.138 55.48 32.7 0 55.93-25.035 56.43-54.816zm-485.522 54.248-47.367-108.65h-17.532l-47.368 108.65 18.913-.001 36.913-85.994 37.185 85.994zm243.975 0-47.368-108.65h-17.532l-47.367 108.65 18.912-.001 36.914-85.994 37.185 85.994zm337.157-33.288-57.67-74.591h-17.53v107.879h18.61v-76.748l59.36 76.748h15.84v-107.879h-18.61zm-188.35-20.96c0-20.959 14.92-37.912 36.3-37.912 21.21 0 36.15 16.757 36.59 37.298l.01 1.231c0 20.959-14.92 37.912-36.3 37.912-21.21 0-36.15-16.757-36.59-37.298zm-290.763-44.515c-6.934-6.893-17.566-10.966-31.126-10.966h-48.076v109.658h18.953l-.003-33.771-.014.009v-24.455l.014.003.003-33.898h27.582c14.01 0 22.15 6.119 22.34 17.754l.003.731-.013.762c-.382 10.834-8.924 17.566-22.176 17.566l-8.155-.003-9.763 17.076 13.912.003 26.503 38.223h22.497l-29.123-41.513.969-.295c14.275-4.514 24.384-15.055 24.606-32.331l.004-.898c0-9.556-3.236-17.545-8.937-23.655z" fill="url(#g)"/></g></svg>