<svg id="Capa_1" data-name="Capa 1" xmlns="http://www.w3.org/2000/svg" xmlns:xlink="http://www.w3.org/1999/xlink" viewBox="0 0 1528.91 1080.41"><defs><style>.cls-1,.cls-11,.cls-2{fill:#d9d9d9;}.cls-1{clip-rule:evenodd;}.cls-3{fill:url(#linear-gradient);}.cls-4{fill:url(#linear-gradient-2);}.cls-5{fill:url(#linear-gradient-3);}.cls-6{fill:#202020;}.cls-7{fill:url(#linear-gradient-4);}.cls-8{fill:#353535;}.cls-9{fill:#282828;}.cls-10{stroke-miterlimit:10;stroke-width:8px;fill:url(#Degradado_sin_nombre_2);stroke:url(#linear-gradient-5);}.cls-11{fill-rule:evenodd;}.cls-12{clip-path:url(#clip-path);}.cls-13{clip-path:url(#clip-path-2);}.cls-14{clip-path:url(#clip-path-3);}.cls-15{clip-path:url(#clip-path-5);}.cls-16{clip-path:url(#clip-path-7);}.cls-17{clip-path:url(#clip-path-9);}.cls-18{clip-path:url(#clip-path-11);}</style><linearGradient id="linear-gradient" x1="1981.96" y1="2444.5" x2="2163.3" y2="2444.5" gradientTransform="matrix(-0.3, 0.96, -0.96, -0.3, 3429.78, -736.67)" gradientUnits="userSpaceOnUse"><stop offset="0.04" stop-color="#e8e8e8"/><stop offset="1" stop-color="#b3b3b3"/></linearGradient><linearGradient id="linear-gradient-2" x1="244.6" y1="113.13" x2="324.34" y2="222.12" gradientUnits="userSpaceOnUse"><stop offset="0.04" stop-color="#fafafa"/><stop offset="1" stop-color="#cfcfcf"/></linearGradient><linearGradient id="linear-gradient-3" x1="111.46" y1="126.74" x2="224.12" y2="280.74" gradientUnits="userSpaceOnUse"><stop offset="0" stop-color="#f0f0f0"/><stop offset="1" stop-color="#adadad"/></linearGradient><linearGradient id="linear-gradient-4" x1="186.47" y1="233.73" x2="186.47" y2="36.5" gradientUnits="userSpaceOnUse"><stop offset="0"/><stop offset="1" stop-color="#0d0d0d"/></linearGradient><linearGradient id="Degradado_sin_nombre_2" x1="186.06" y1="248.8" x2="186.06" y2="-16.97" gradientUnits="userSpaceOnUse"><stop offset="0.04" stop-color="#b6b6b6"/><stop offset="1" stop-color="#8f8f8f"/></linearGradient><linearGradient id="linear-gradient-5" x1="24.84" y1="168.86" x2="347.27" y2="168.86" gradientUnits="userSpaceOnUse"><stop offset="0.04" stop-color="#ebebeb"/><stop offset="1" stop-color="#bdbdbd"/></linearGradient><clipPath id="clip-path" transform="translate(275.09 407.43)"><path class="cls-1" d="M672.65,168.46v-.21c0-21.19,16.23-39.13,39.08-39.13,13.2,0,21.31,3.68,29.1,10.26l-8.44,10.06c-5.84-5-11.58-8.11-21.21-8.11-14,0-24.58,12.21-24.58,26.69v.23c0,15.55,10.29,27,25.77,27a30.93,30.93,0,0,0,18.28-5.73V172.4l12.88-8.59v31.78a48.32,48.32,0,0,1-31.59,11.77c-23.7,0-39.29-16.86-39.29-38.9"/></clipPath><clipPath id="clip-path-2" transform="translate(275.09 407.43)"><rect class="cls-2" x="-275.09" y="-407.43" width="1528.91" height="1080.41"/></clipPath><clipPath id="clip-path-3" transform="translate(275.09 407.43)"><polygon class="cls-1" points="424.65 131.71 391.31 207.91 404.94 207.91 412.74 189.64 417.62 177.86 430.59 147.61 443.69 177.86 448.57 189.64 456.24 207.91 470.31 207.91 436.99 131.71 424.65 131.71"/></clipPath><clipPath id="clip-path-5" transform="translate(275.09 407.43)"><polygon class="cls-1" points="611.21 130.14 577.87 206.34 591.51 206.34 599.3 188.07 604.18 176.29 617.16 146.04 630.25 176.29 635.13 188.07 642.81 206.34 656.88 206.34 623.55 130.14 611.21 130.14"/></clipPath><clipPath id="clip-path-7" transform="translate(275.09 407.43)"><path class="cls-1" d="M808,129.39c-23.28,0-39.72,17.83-39.72,39.13v.21c0,21.29,16.23,38.9,39.49,38.9s39.72-17.83,39.72-39.11v-.23C847.51,147,831.28,129.39,808,129.39Zm25.54,39.34c0,14.69-10.5,26.69-25.54,26.69s-25.76-12.21-25.76-26.9v-.23c0-14.69,10.5-26.69,25.53-26.69s25.77,12.21,25.77,26.92Z"/></clipPath><clipPath id="clip-path-9" transform="translate(275.09 407.43)"><polygon class="cls-1" points="927.35 130.68 927.35 182.99 886.77 130.68 874.43 130.68 874.43 206.34 887.52 206.34 887.52 152.52 929.3 206.34 940.44 206.34 940.44 130.68 927.35 130.68"/></clipPath><clipPath id="clip-path-11" transform="translate(275.09 407.43)"><path class="cls-1" d="M539.16,177.69c10.6-3,18.06-10.48,18.06-22.91v-.21a22.81,22.81,0,0,0-6.28-16.32c-4.86-4.77-12.33-7.57-21.85-7.57H495.32v75.66h13.32V142.78H528a26.57,26.57,0,0,1,4.63.44c7,1.23,11.06,5.38,11.06,12.1v.22c0,7.67-6.06,12.65-15.58,12.65h-7.4L515.55,180h9.76l18.61,26.38h15.69Z"/></clipPath></defs><title>vectorial_grayscale_horizontal</title><circle class="cls-3" cx="472.06" cy="546.54" r="90.67"/><path class="cls-4" d="M260.65,111.86a50,50,0,0,1,9.86,30c0,13.08-5.43,25.18-14.64,35l5.57,20.9h17l17.89-20.34,4.78-29.66,1-17.67-17.67-20Z" transform="translate(275.09 407.43)"/><path class="cls-5" d="M63.68,200.19l3.1,12.25s36.61,75.11,119,103c0,0,77.21-32,110.51-86.27l-48.22-40.1s-22,17.46-54.67,17.46-77.06-19.46-77.06-59.7,46-54.87,46-54.87l-19.61-4.83H92.56L60.78,163.78Z" transform="translate(275.09 407.43)"/><path class="cls-6" d="M305.44,228.11" transform="translate(275.09 407.43)"/><path class="cls-7" d="M340.56,119.5c-1.41-1.39-42-44.37-153.26-82.69l-.74-.31c-107.84,37-154.17,83-154.17,83,4.24,24.46,14.84,51.78,24.39,73,.79,1.75,13.63,24.36,23.07,36.71-5.58-12.28-11.7-22.95-11.7-41.4,0-51.88,40.24-94.13,90.53-95.9,1.23,0,2.46,0,3.71.07l-12-12s48.26-8.14,110.26,29.36c0,0,.87,1.94,0,7.5,0,0,29.24,12.64,31.74,37.14s-13,38.5-25.5,40.5c0,0,6.46-10.06-3.5-15.5a14.27,14.27,0,0,0-7.12-1.64h0c-19.12,0-21.25,21.76-21.25,21.76a24.22,24.22,0,0,0-.24,3.31s-3.17,31.91,53.58,31.3c0,0,28.75-32.61,36.42-61.94,2.82-10.8,4.77-18.92,6.12-24.87,3.2-8.48,6.32-17.34,9.33-26.43Z" transform="translate(275.09 407.43)"/><path class="cls-8" d="M236.64,116" transform="translate(275.09 407.43)"/><path class="cls-9" d="M236,119.14a20.39,20.39,0,0,0,6.36-4.83A75.84,75.84,0,0,1,254.33,117c-10.92-6.65-25.84-10.52-42.33-10.44,0,0,6.3,9,23.75,12.7A.77.77,0,0,0,236,119.14Z" transform="translate(275.09 407.43)"/><path class="cls-9" d="M186.06,41.3c10.56,3.34,87.63,28.86,149.16,79.84l6.9-2-.46-.39c-60.21-51-136.34-77.46-152.1-82.59l-1.5-.48-2-.62-3.5,1.1c-15.77,5.13-91.9,31.63-152.11,82.59l-.65.55,6.68,2.23C98.07,70.28,175.47,44.65,186.06,41.3Z" transform="translate(275.09 407.43)"/><path class="cls-10" d="M341.66,109.21c-60.21-51-136.34-77.46-152.1-82.59l-1.5-.48-2-.62-3.5,1.1c-15.77,5.13-91.9,31.63-152.11,82.59l-1.3,1.1.28,1.68c.06.38,6.59,39.11,28.82,82.76,13.08,25.67,29,48,47.21,66.48a206.63,206.63,0,0,0,77.19,49.7l1.67.6,1.74.61,1.76-.66,1.65-.55a206.51,206.51,0,0,0,77.18-49.7c18.25-18.44,34.13-40.81,47.21-66.48,22.24-43.65,28.76-82.38,28.82-82.76l.28-1.68ZM308.52,192c-12.8,25.12-28.32,47-46.13,65a200.6,200.6,0,0,1-76.33,48.77,200.53,200.53,0,0,1-76.26-48.7c-17.8-18-33.32-39.8-46.12-64.89-19.27-37.77-26.53-71.74-28-79.52C97.38,61,175.42,35.16,186.06,31.8c10.63,3.36,88.67,29.2,150.4,80.87C335,120.43,327.75,154.28,308.52,192Z" transform="translate(275.09 407.43)"/><path class="cls-11" d="M672.65,168.46v-.21c0-21.19,16.23-39.13,39.08-39.13,13.2,0,21.31,3.68,29.1,10.26l-8.44,10.06c-5.84-5-11.58-8.11-21.21-8.11-14,0-24.58,12.21-24.58,26.69v.23c0,15.55,10.29,27,25.77,27a30.93,30.93,0,0,0,18.28-5.73V172.4l12.88-8.59v31.78a48.32,48.32,0,0,1-31.59,11.77c-23.7,0-39.29-16.86-39.29-38.9" transform="translate(275.09 407.43)"/><g class="cls-12"><rect class="cls-2" width="1528.91" height="1080.41"/><g class="cls-13"><rect class="cls-2" x="938.67" y="527.47" width="89.04" height="96.4"/></g></g><polygon class="cls-11" points="699.74 539.14 666.4 615.34 680.04 615.34 687.83 597.07 692.71 585.28 705.69 555.03 718.78 585.28 723.66 597.07 731.34 615.34 745.41 615.34 712.09 539.14 699.74 539.14"/><g class="cls-14"><rect class="cls-2" width="1528.91" height="1080.41"/><g class="cls-13"><rect class="cls-2" x="657.32" y="530.06" width="97.16" height="94.36"/></g></g><polygon class="cls-11" points="886.3 537.57 852.97 613.77 866.6 613.77 874.4 595.5 879.27 583.72 892.25 553.46 905.35 583.72 910.23 595.5 917.9 613.77 931.97 613.77 898.65 537.57 886.3 537.57"/><g class="cls-15"><rect class="cls-2" width="1528.91" height="1080.41"/><g class="cls-13"><rect class="cls-2" x="843.89" y="528.49" width="97.16" height="94.36"/></g></g><path class="cls-11" d="M808,129.39c-23.28,0-39.72,17.83-39.72,39.13v.21c0,21.29,16.23,38.9,39.49,38.9s39.72-17.83,39.72-39.11v-.23C847.51,147,831.28,129.39,808,129.39Zm25.54,39.34c0,14.69-10.5,26.69-25.54,26.69s-25.76-12.21-25.76-26.9v-.23c0-14.69,10.5-26.69,25.53-26.69s25.77,12.21,25.77,26.92Z" transform="translate(275.09 407.43)"/><g class="cls-16"><rect class="cls-2" width="1528.91" height="1080.41"/><g class="cls-13"><rect class="cls-2" x="1034.31" y="527.74" width="97.38" height="96.4"/></g></g><polygon class="cls-11" points="1202.44 538.11 1202.44 590.42 1161.87 538.11 1149.52 538.11 1149.52 613.77 1162.62 613.77 1162.62 559.95 1204.39 613.77 1215.54 613.77 1215.54 538.11 1202.44 538.11"/><g class="cls-17"><rect class="cls-2" width="1528.91" height="1080.41"/><g class="cls-13"><rect class="cls-2" x="1140.44" y="529.03" width="84.17" height="93.82"/></g></g><path class="cls-11" d="M539.16,177.69c10.6-3,18.06-10.48,18.06-22.91v-.21a22.81,22.81,0,0,0-6.28-16.32c-4.86-4.77-12.33-7.57-21.85-7.57H495.32v75.66h13.32V142.78H528a26.57,26.57,0,0,1,4.63.44c7,1.23,11.06,5.38,11.06,12.1v.22c0,7.67-6.06,12.65-15.58,12.65h-7.4L515.55,180h9.76l18.61,26.38h15.69Z" transform="translate(275.09 407.43)"/><g class="cls-18"><rect class="cls-2" width="1528.91" height="1080.41"/><g class="cls-13"><rect class="cls-2" x="761.34" y="529.03" width="82.45" height="93.82"/></g></g></svg>