<svg fill="none" height="284" viewBox="0 0 791 284" width="791" xmlns="http://www.w3.org/2000/svg" xmlns:xlink="http://www.w3.org/1999/xlink"><linearGradient id="a" gradientUnits="userSpaceOnUse" x1="255.934" x2="337.584" y1="30.4581" y2="327.852"><stop offset="0" stop-color="#01e8f7"/><stop offset="1" stop-color="#00b3ec"/></linearGradient><linearGradient id="b" gradientUnits="userSpaceOnUse" x1="238.314" x2="243.748" y1="104.274" y2="174.165"><stop offset="0" stop-color="#fff"/><stop offset="1" stop-color="#fff"/></linearGradient><linearGradient id="c" gradientUnits="userSpaceOnUse" x1="116.923" x2="190.528" y1="55.5187" y2="171.926"><stop offset="0" stop-color="#c2f5ff"/><stop offset="1" stop-color="#8eedff"/></linearGradient><linearGradient id="d" gradientUnits="userSpaceOnUse" x1="49" x2="165.93" y1="47" y2="167.291"><stop offset="0" stop-color="#c2f5ff"/><stop offset="1" stop-color="#f5fdff"/></linearGradient><rect fill="url(#a)" height="284" rx="142" width="791"/><path d="m258.098 125.262c.986-20.555-13.32-34.1909-29.464-43.5526l-10.494 61.8686c7.265-.407 10.817 2.361 12.108 3.663 1.615 1.628 5.651 6.513.807 14.246 10.091-1.628 25.851-11.397 27.043-36.225z" fill="url(#b)"/><g clip-rule="evenodd" fill-rule="evenodd"><path d="m120.44 53.2307-12.512-12.618c18.835-2.3065 68.534.6513 116.645 30.9343.807 3.2562 0 8.1406 0 8.1406l4.036 2.0351c3.498 5.0201 9.445 19.2933 5.247 36.2253-4.197 16.933-11.435 24.151-14.53 25.643-6.458 0-17.436 3.745-20.988 20.352s-10.359 20.216-13.319 19.944l-71.037.814-46.8193-27.678-6.8614-57.391 13.3193-17.9093 23.8134-19.5374 16.952-6.9195zm83.898 23.7076c-3.133 3.2743-6.062 4.8453-6.898 5.2713-18.291-3.9046-24.881-13.4009-24.881-13.4009 17.253-.1068 32.826 4.0114 44.219 10.9779 0 0-6.168-2.0057-12.44-2.8483z" fill="url(#c)"/><path d="m197.713 163.948c-12.539 6.175-27.405 9.75-43.345 9.75-44.805 0-81.1269-28.246-81.1269-63.089 0-25.7389 19.8197-47.8777 48.2379-57.6901-54.0473 3.1248-97.479 46.6969-97.479 100.4601 0 62.049 55.1151 113.319 123.103 113.319 50.768 0 93.028-29.539 115.124-69.06-30.404 6.862-66.395-6.184-64.514-33.69z" fill="url(#d)"/><path d="m318.635 71.472c-.947-.1547-1.972-.232-3.074-.232h-16.501v41.76h5.162v-15.428h11.339c1.102 0 2.127-.0773 3.074-.232 2.185-.348 4.05-1.1117 5.597-2.291 1.566-1.1987 2.745-2.7067 3.538-4.524.793-1.8367 1.189-3.8763 1.189-6.119s-.396-4.2727-1.189-6.09c-.793-1.8367-1.962-3.3447-3.509-4.524-1.547-1.1987-3.422-1.972-5.626-2.32zm-.638 20.938c-.754.174-1.624.261-2.61.261h-11.165v-16.53h11.165c.986 0 1.856.087 2.61.261 1.875.4253 3.287 1.392 4.234 2.9.967 1.508 1.45 3.2093 1.45 5.104s-.483 3.596-1.45 5.104c-.947 1.508-2.359 2.4747-4.234 2.9zm21.77 19.372c2.282 1.392 4.959 2.088 8.033 2.088 3.055 0 5.723-.686 8.004-2.059 2.282-1.392 4.031-3.335 5.249-5.829 1.238-2.513 1.856-5.404 1.856-8.671 0-3.2287-.609-6.09-1.827-8.584s-2.967-4.437-5.249-5.829c-2.281-1.392-4.959-2.088-8.033-2.088-3.016 0-5.664.696-7.946 2.088-2.281 1.3727-4.04 3.306-5.278 5.8-1.237 2.494-1.856 5.365-1.856 8.613 0 3.229.609 6.1 1.827 8.613 1.218 2.494 2.958 4.447 5.22 5.858zm15.196-5.945c-1.624 2.088-4.011 3.132-7.163 3.132-3.093 0-5.471-1.034-7.134-3.103-1.643-2.088-2.465-4.94-2.465-8.555 0-3.5573.803-6.38 2.407-8.468 1.624-2.088 4.022-3.132 7.192-3.132 3.132 0 5.52 1.0343 7.163 3.103 1.644 2.0493 2.465 4.8817 2.465 8.497 0 3.577-.821 6.419-2.465 8.526zm10.299-24.186 5.133.029 6.989 22.91 7.047-22.91h4.553l7.018 22.91 7.018-22.91h5.104l-9.57 31.32h-4.292l-7.569-23.809-7.569 23.809h-4.292zm53.52 24.679c-1.624-1.759-2.542-4.273-2.755-7.54h24.012c.019-.29.029-.7153.029-1.276 0-3.4413-.58-6.409-1.74-8.903-1.16-2.5133-2.832-4.437-5.017-5.771-2.165-1.3533-4.746-2.03-7.743-2.03-3.016 0-5.665.6863-7.946 2.059-2.262 1.3533-4.021 3.2963-5.278 5.829-1.237 2.5133-1.856 5.4617-1.856 8.845 0 3.229.628 6.08 1.885 8.555 1.276 2.475 3.064 4.389 5.365 5.742 2.32 1.353 5.007 2.03 8.062 2.03s5.8-.764 8.236-2.291 4.263-3.664 5.481-6.409l-4.959-1.711c-.87 1.779-2.078 3.142-3.625 4.089-1.527.947-3.316 1.421-5.365 1.421-2.881 0-5.143-.88-6.786-2.639zm.319-18.531c1.624-1.566 3.838-2.349 6.641-2.349 5.317 0 8.294 3.0643 8.932 9.193h-18.56c.367-2.9967 1.363-5.278 2.987-6.844zm34.674-4.205c.87-.696 1.894-1.2277 3.074-1.595 1.179-.3673 2.368-.551 3.567-.551.754 0 1.498.0773 2.233.232v4.843c-.812-.1933-1.595-.29-2.349-.29-1.876 0-3.48.493-4.814 1.479-1.412 1.0053-2.398 2.3297-2.958 3.973-.561 1.624-.841 3.4897-.841 5.597v15.718h-5.191v-31.32h4.611v4.959c.734-1.276 1.624-2.291 2.668-3.045zm20.345 22.736c-1.624-1.759-2.542-4.273-2.755-7.54h24.012c.019-.29.029-.7153.029-1.276 0-3.4413-.58-6.409-1.74-8.903-1.16-2.5133-2.832-4.437-5.017-5.771-2.165-1.3533-4.746-2.03-7.743-2.03-3.016 0-5.665.6863-7.946 2.059-2.262 1.3533-4.021 3.2963-5.278 5.829-1.237 2.5133-1.856 5.4617-1.856 8.845 0 3.229.628 6.08 1.885 8.555 1.276 2.475 3.064 4.389 5.365 5.742 2.32 1.353 5.007 2.03 8.062 2.03s5.8-.764 8.236-2.291 4.263-3.664 5.481-6.409l-4.959-1.711c-.87 1.779-2.078 3.142-3.625 4.089-1.527.947-3.316 1.421-5.365 1.421-2.881 0-5.143-.88-6.786-2.639zm.319-18.531c1.624-1.566 3.838-2.349 6.641-2.349 5.317 0 8.294 3.0643 8.932 9.193h-18.56c.367-2.9967 1.363-5.278 2.987-6.844zm54.103-16.559v41.76h-4.611v-3.538c-1.179 1.411-2.59 2.504-4.234 3.277-1.643.754-3.499 1.131-5.568 1.131-2.861 0-5.355-.715-7.482-2.146-2.107-1.45-3.731-3.422-4.872-5.916-1.121-2.513-1.682-5.346-1.682-8.497 0-3.132.561-5.945 1.682-8.439 1.141-2.5133 2.765-4.4853 4.872-5.916 2.127-1.4307 4.611-2.146 7.453-2.146 1.914 0 3.645.319 5.191.957 1.566.638 2.92 1.5563 4.06 2.755v-13.282zm-13.775 37.903c3.036 0 5.317-1.073 6.844-3.219 1.547-2.146 2.32-5.017 2.32-8.613s-.763-6.4573-2.291-8.584c-1.527-2.1267-3.77-3.19-6.728-3.19-2.049 0-3.779.5123-5.191 1.537-1.392 1.0247-2.436 2.4263-3.132 4.205-.676 1.7593-1.015 3.77-1.015 6.032 0 2.2813.339 4.311 1.015 6.09.696 1.779 1.731 3.18 3.103 4.205 1.392 1.025 3.084 1.537 5.075 1.537zm55.349-26.187c-2.108-1.4307-4.582-2.146-7.424-2.146-1.914 0-3.654.319-5.22.957-1.547.638-2.891 1.5563-4.031 2.755v-13.282h-5.191v41.76h4.611v-3.538c1.179 1.411 2.59 2.504 4.234 3.277 1.643.754 3.499 1.131 5.568 1.131 2.861 0 5.345-.715 7.453-2.146 2.126-1.45 3.75-3.422 4.872-5.916 1.14-2.513 1.711-5.346 1.711-8.497 0-3.132-.571-5.945-1.711-8.439-1.122-2.5133-2.746-4.4853-4.872-5.916zm-3.045 24.65c-1.373 1.025-3.055 1.537-5.046 1.537-3.036 0-5.327-1.073-6.873-3.219-1.528-2.146-2.291-5.017-2.291-8.613s.763-6.4573 2.291-8.584c1.527-2.1267 3.77-3.19 6.728-3.19 2.049 0 3.77.5123 5.162 1.537 1.411 1.0247 2.455 2.4263 3.132 4.205.696 1.7593 1.044 3.77 1.044 6.032 0 2.2813-.348 4.311-1.044 6.09-.677 1.779-1.711 3.18-3.103 4.205zm35.399-25.926h5.249l-17.052 45.24h-5.017l5.162-14.036-12.702-31.204h5.423l9.773 24.65zm-70.589 71.321c10.676 0 17.382 3.005 23.735 8.397l-6.883 8.221c-4.764-4.066-9.529-6.541-17.293-6.541-11.294 0-20.029 9.9-20.029 21.745l.005.737c.242 12.443 8.563 21.539 20.994 21.539 5.912 0 11.118-1.856 14.912-4.685v-11.491l10.5-9.547v25.989c-6.177 5.215-14.824 9.635-25.765 9.635-19.323 0-32.028-13.79-32.028-31.823l.004-.741c.282-17.079 13.346-31.435 31.848-31.435zm69.877 0c18.97 0 32.205 14.408 32.205 31.822l-.005.735c-.284 17.082-13.61 31.442-32.377 31.442-18.97 0-32.205-14.409-32.205-31.823l.005-.735c.284-17.081 13.611-31.441 32.377-31.441zm-273.524.618 27.176 62.32h-11.047l-21.334-49.325-21.179 49.325h-10.85l27.176-62.32zm139.974 0 27.176 62.32h-11.048l-21.334-49.325-21.178 49.325h-10.85l27.175-62.32zm187.524.442 33.087 42.784v-42.784h10.677v61.878h-9.088l-34.058-44.022v44.022h-10.677v-61.878zm-54.151 9.017c-12.264 0-20.823 9.723-20.823 21.745l.006.706c.249 11.782 8.823 21.394 20.994 21.394 12.264 0 20.823-9.724 20.823-21.746l-.006-.706c-.249-11.782-8.823-21.393-20.994-21.393zm-187.64-3.788c-3.978-3.954-10.078-6.29-17.858-6.29h-27.582v62.898h10.874l-.002-19.37-.009.005v-14.027l.009.001.002-19.443h15.824c8.038 0 12.708 3.51 12.817 10.183l.002.42-.008.437c-.219 6.214-5.12 10.075-12.723 10.075l-4.679-.001-5.601 9.794 7.982.002 15.205 21.924h12.907l-16.708-23.811.556-.17c8.19-2.589 13.989-8.635 14.117-18.544l.002-.515c0-5.481-1.856-10.064-5.127-13.568z" fill="#fff"/></g></svg>