<?xml version="1.0" encoding="UTF-8"?>
<svg width="39px" height="6px" viewBox="0 0 39 6" version="1.1" xmlns="http://www.w3.org/2000/svg" xmlns:xlink="http://www.w3.org/1999/xlink">
    <!-- Generator: Sketch 50.2 (55047) - http://www.bohemiancoding.com/sketch -->
    <title>domain</title>
    <desc>Created with Sketch.</desc>
    <defs></defs>
    <g id="Page-1" stroke="none" stroke-width="1" fill="none" fill-rule="evenodd">
        <g id="domain" fill="#FFFFFF">
            <path d="M3.618,5 L3.288,4.082 L1.626,4.082 L1.296,5 L0.534,5 L2.1,0.8 L2.814,0.8 L4.374,5 L3.618,5 Z M3.06,3.434 L2.598,2.174 C2.55,2.054 2.49,1.874 2.46,1.748 C2.424,1.874 2.364,2.054 2.322,2.174 L1.854,3.434 L3.06,3.434 Z M5.016,5 L5.016,0.8 L6.876,0.8 C7.92,0.8 8.256,1.418 8.256,2.078 C8.256,2.558 7.986,3.098 7.392,3.278 L8.232,5 L7.422,5 L6.612,3.356 L5.736,3.356 L5.736,5 L5.016,5 Z M5.736,2.672 L6.888,2.672 C7.356,2.672 7.512,2.384 7.512,2.078 C7.512,1.796 7.38,1.484 6.888,1.484 L5.736,1.484 L5.736,2.672 Z M11.802,5 L11.472,4.082 L9.81,4.082 L9.48,5 L8.718,5 L10.284,0.8 L10.998,0.8 L12.558,5 L11.802,5 Z M11.244,3.434 L10.782,2.174 C10.734,2.054 10.674,1.874 10.644,1.748 C10.608,1.874 10.548,2.054 10.506,2.174 L10.038,3.434 L11.244,3.434 Z M14.724,5.072 C13.428,5.072 12.882,3.998 12.882,2.9 C12.882,1.874 13.464,0.728 14.724,0.728 C15.534,0.728 15.918,1.136 16.194,1.574 L15.552,1.94 C15.366,1.664 15.12,1.424 14.724,1.424 C13.878,1.424 13.626,2.246 13.626,2.9 C13.626,3.656 13.944,4.376 14.724,4.376 C15.192,4.376 15.534,4.028 15.534,3.59 L15.534,3.524 L14.796,3.524 L14.796,2.846 L16.266,2.846 L16.266,3.428 C16.266,4.496 15.594,5.072 14.724,5.072 Z M18.816,5.072 C17.466,5.072 16.974,3.938 16.974,2.9 C16.974,1.862 17.466,0.728 18.816,0.728 C20.172,0.728 20.658,1.862 20.658,2.9 C20.658,3.938 20.172,5.072 18.816,5.072 Z M18.816,4.382 C19.626,4.382 19.914,3.542 19.914,2.9 C19.914,2.21 19.632,1.418 18.816,1.418 C18,1.418 17.718,2.252 17.718,2.9 C17.718,3.584 18,4.382 18.816,4.382 Z M22.2276702,2.04332209 C22.2264409,2.04087566 22.2252174,2.03843478 22.224,2.036 C22.224,2.036 22.2240013,2.03601072 22.224002,2.03601609 L22.2276702,2.04332209 Z M22.224002,2.03601609 C22.2360007,2.1320134 22.242,2.25200536 22.242,2.348 L22.242,5 L21.528,5 L21.528,0.8 L22.224,0.8 L23.922,3.41 C23.982,3.5 24.042,3.62 24.096,3.728 C24.084,3.62 24.078,3.5 24.078,3.41 L24.078,0.8 L24.792,0.8 L24.792,5 L24.138,5 L22.398,2.348 C22.3452174,2.26589372 22.2809697,2.14939233 22.2276702,2.04332209 L22.224002,2.03601609 Z M25.998,5.072 C25.722,5.072 25.518,4.868 25.518,4.604 C25.518,4.346 25.722,4.136 25.998,4.136 C26.268,4.136 26.478,4.346 26.478,4.604 C26.478,4.868 26.268,5.072 25.998,5.072 Z M28.776,5.072 C27.426,5.072 26.934,3.938 26.934,2.9 C26.934,1.862 27.426,0.728 28.776,0.728 C30.132,0.728 30.618,1.862 30.618,2.9 C30.618,3.938 30.132,5.072 28.776,5.072 Z M28.776,4.382 C29.586,4.382 29.874,3.542 29.874,2.9 C29.874,2.21 29.592,1.418 28.776,1.418 C27.96,1.418 27.678,2.252 27.678,2.9 C27.678,3.584 27.96,4.382 28.776,4.382 Z M32.1876702,2.04332209 C32.1864409,2.04087566 32.1852174,2.03843478 32.184,2.036 C32.184,2.036 32.1840013,2.03601072 32.184002,2.03601609 L32.1876702,2.04332209 Z M32.184002,2.03601609 C32.1960007,2.1320134 32.202,2.25200536 32.202,2.348 L32.202,5 L31.488,5 L31.488,0.8 L32.184,0.8 L33.882,3.41 C33.942,3.5 34.002,3.62 34.056,3.728 C34.044,3.62 34.038,3.5 34.038,3.41 L34.038,0.8 L34.752,0.8 L34.752,5 L34.098,5 L32.358,2.348 C32.3052174,2.26589372 32.2409697,2.14939233 32.1876702,2.04332209 L32.184002,2.03601609 Z M35.772,5 L35.772,0.8 L38.508,0.8 L38.508,1.478 L36.492,1.478 L36.492,2.492 L37.734,2.492 L37.734,3.17 L36.492,3.17 L36.492,4.322 L38.64,4.322 L38.64,5 L35.772,5 Z" id="ARAGON.ONE"></path>
        </g>
    </g>
</svg>