<svg width="48" height="45" viewBox="0 0 48 45" xmlns="http://www.w3.org/2000/svg"><defs><linearGradient x1="33.964%" y1="62.335%" x2="50%" y2="45.463%" id="a"><stop stop-color="#FFF" offset="0%"/><stop stop-color="#FFF" offset="100%"/></linearGradient><linearGradient x1="50%" y1="0%" x2="15.043%" y2="120.489%" id="b"><stop stop-color="#FFF" offset="0%"/><stop stop-color="#FFF" offset="100%"/></linearGradient><linearGradient x1="50%" y1="-9.698%" x2="50%" y2="100%" id="c"><stop stop-color="#FFF" stop-opacity="0" offset="0%"/><stop stop-color="#FFF" offset="100%"/></linearGradient></defs><g fill="none" fill-rule="evenodd"><path d="M33.542 13.233a20.406 20.406 0 0 0-1.756-.379c-.233.262-.58.504-1.042.724-1.474-.371-2.672-1.002-3.597-1.89 2.372-.182 4.503.333 6.395 1.545z" fill="url(#a)" fill-rule="nonzero" transform="translate(1 1)"/><path d="M37.745 31.53l-1.019-.166a34.552 34.552 0 0 1-1.434-.254c-3.447-.799-5.133-2.463-4.944-4.968.16-2.115 1.137-3.458 2.562-3.895 1.209-.37 2.547.027 3 .905.223.49.284 1.027.188 1.602 2.075-1.149 3.095-2.714 3.095-4.714-.025-2.718-1.56-4.87-4.65-6.478l-.16-.085v-1.189c-5.581-3.263-10.88-4.733-15.9-4.417a73.784 73.784 0 0 0 1.32 1.33l.505.489-.702.027c-4.942.192-8.7 2.13-11.302 5.824-2.607 3.7-3.313 7.902-2.152 12.551 2.685 4.493 4.8 7.39 6.329 8.678 4.015 3.382 9.396 6.156 10.424 5.908 6.797-2.26 11.739-5.976 14.84-11.149z" stroke="url(#b)" stroke-width=".6" transform="translate(1 1)"/><path d="M35.5 14.213c.089.19-.073-.157 0 .032.99 2.571.483 5.106-1.291 7.718-.058.085-.127.081-.209-.013 1.916-2.772 2.33-5.364 1.208-7.95l.292.213zm.009.056c.974 2.555.474 5.076-1.275 7.67-.095.14.101-.08 0 .061L34 21.964c1.916-2.778 2.33-5.374 1.208-7.964.15.048.25.137.3.269z" stroke="#FFF" stroke-width=".5" fill="url(#c)" fill-rule="nonzero" transform="translate(1 1)"/><path d="M31.207 26.688l.107.173c-2.278 1.23-4.943 1.593-7.995 1.093-6.76-1.109-9.784-5.133-9.52-10.182.177-3.366 2.626-5.849 7.347-7.449l.065.192c-4.65 1.576-7.037 3.997-7.208 7.268-.274 5.225 2.997 8.93 9.349 9.97 3.005.493 5.622.137 7.855-1.065zm.107.173c-2.278 1.23-4.943 1.593-7.995 1.093-6.76-1.109-9.784-5.133-9.52-10.182.177-3.366 2.626-5.849 7.347-7.449l.065.192c-4.65 1.576-7.037 3.997-7.208 7.268-.274 5.225 2.997 8.93 9.349 9.97 3.005.493 5.622.137 7.855-1.065l.107.173z" stroke="#FFF" stroke-width=".4" fill-rule="nonzero"/><g fill="#FFF" fill-rule="nonzero" stroke="#FFF" stroke-width=".5"><path d="M24.156 43.623l-.19.33c-.133-.067-.037-.028-.099-.047C12.583 40.399 4.972 30.29 1.03 13.61l.058-.176c6.51-5.529 14.165-9.663 22.964-12.402l.106.34C15.44 4.085 7.856 8.172 1.4 13.634 5.344 30.23 12.93 40.217 24.155 43.622z"/><path d="M23.854 43.623l.103.34c11.386-3.454 19.06-13.58 23.023-30.352l-.058-.176C40.412 7.906 32.85 3.772 24.05 1.033l-.196.34c8.717 2.713 16.302 6.8 22.756 12.262-3.944 16.596-11.53 26.583-22.755 29.988z"/></g></g></svg>